<?xml version="1.0" encoding="UTF-8" standalone="no"?><!DOCTYPE svg PUBLIC "-//W3C//DTD SVG 1.1//EN" "http://www.w3.org/Graphics/SVG/1.1/DTD/svg11.dtd"><!-- Generated by graphviz version 2.40.1 (20161225.0304)
 --><!-- Title: G Pages: 1 --><svg xmlns="http://www.w3.org/2000/svg" xmlns:xlink="http://www.w3.org/1999/xlink" width="712pt" height="2098pt" viewBox="0.00 0.00 712.09 2098.00">
<g id="graph0" class="graph" transform="scale(1 1) rotate(0) translate(4 2094)">
<title>G</title>
<polygon fill="#2e3e56" stroke="transparent" points="-4,4 -4,-2094 708.0918,-2094 708.0918,4 -4,4"/>
<g id="clust1" class="cluster">
<title>clusterContext</title>
<path fill="#445773" stroke="#445773" d="M28.7463,-8C28.7463,-8 138.2956,-8 138.2956,-8 144.2956,-8 150.2956,-14 150.2956,-20 150.2956,-20 150.2956,-127 150.2956,-127 150.2956,-133 144.2956,-139 138.2956,-139 138.2956,-139 28.7463,-139 28.7463,-139 22.7463,-139 16.7463,-133 16.7463,-127 16.7463,-127 16.7463,-20 16.7463,-20 16.7463,-14 22.7463,-8 28.7463,-8"/>
<text text-anchor="middle" x="83.5209" y="-122.4" font-family="Times,serif" font-size="14.00" fill="#f0f0f0">Context</text>
</g>
<g id="clust2" class="cluster">
<title>clusterIERC20</title>
<path fill="#445773" stroke="#445773" d="M26.0752,-147C26.0752,-147 140.9667,-147 140.9667,-147 146.9667,-147 152.9667,-153 152.9667,-159 152.9667,-159 152.9667,-482 152.9667,-482 152.9667,-488 146.9667,-494 140.9667,-494 140.9667,-494 26.0752,-494 26.0752,-494 20.0752,-494 14.0752,-488 14.0752,-482 14.0752,-482 14.0752,-159 14.0752,-159 14.0752,-153 20.0752,-147 26.0752,-147"/>
<text text-anchor="middle" x="83.5209" y="-477.4" font-family="Times,serif" font-size="14.00" fill="#f0f0f0">IERC20  (iface)</text>
</g>
<g id="clust3" class="cluster">
<title>clusterIERC20Metadata</title>
<path fill="#445773" stroke="#445773" d="M17.1608,-502C17.1608,-502 149.8811,-502 149.8811,-502 155.8811,-502 161.8811,-508 161.8811,-514 161.8811,-514 161.8811,-675 161.8811,-675 161.8811,-681 155.8811,-687 149.8811,-687 149.8811,-687 17.1608,-687 17.1608,-687 11.1608,-687 5.1608,-681 5.1608,-675 5.1608,-675 5.1608,-514 5.1608,-514 5.1608,-508 11.1608,-502 17.1608,-502"/>
<text text-anchor="middle" x="83.5209" y="-670.4" font-family="Times,serif" font-size="14.00" fill="#f0f0f0">IERC20Metadata  (iface)</text>
</g>
<g id="clust4" class="cluster">
<title>clusterOwnable</title>
<path fill="#445773" stroke="#445773" d="M24.5541,-695C24.5541,-695 673.9134,-695 673.9134,-695 679.9134,-695 685.9134,-701 685.9134,-707 685.9134,-707 685.9134,-922 685.9134,-922 685.9134,-928 679.9134,-934 673.9134,-934 673.9134,-934 24.5541,-934 24.5541,-934 18.5541,-934 12.5541,-928 12.5541,-922 12.5541,-922 12.5541,-707 12.5541,-707 12.5541,-701 18.5541,-695 24.5541,-695"/>
<text text-anchor="middle" x="349.2337" y="-917.4" font-family="Times,serif" font-size="14.00" fill="#f0f0f0">Ownable</text>
</g>
<g id="clust5" class="cluster">
<title>clusterERC20</title>
<path fill="#445773" stroke="#445773" d="M20,-1490C20,-1490 684.0918,-1490 684.0918,-1490 690.0918,-1490 696.0918,-1496 696.0918,-1502 696.0918,-1502 696.0918,-1933 696.0918,-1933 696.0918,-1939 690.0918,-1945 684.0918,-1945 684.0918,-1945 20,-1945 20,-1945 14,-1945 8,-1939 8,-1933 8,-1933 8,-1502 8,-1502 8,-1496 14,-1490 20,-1490"/>
<text text-anchor="middle" x="352.0459" y="-1928.4" font-family="Times,serif" font-size="14.00" fill="#f0f0f0">ERC20</text>
</g>
<g id="clust6" class="cluster">
<title>clusterIClayToken</title>
<path fill="#445773" stroke="#445773" d="M268.2233,-942C268.2233,-942 383.1148,-942 383.1148,-942 389.1148,-942 395.1148,-948 395.1148,-954 395.1148,-954 395.1148,-1223 395.1148,-1223 395.1148,-1229 389.1148,-1235 383.1148,-1235 383.1148,-1235 268.2233,-1235 268.2233,-1235 262.2233,-1235 256.2233,-1229 256.2233,-1223 256.2233,-1223 256.2233,-954 256.2233,-954 256.2233,-948 262.2233,-942 268.2233,-942"/>
<text text-anchor="middle" x="325.669" y="-1218.4" font-family="Times,serif" font-size="14.00" fill="#f0f0f0">IClayToken  (iface)</text>
</g>
<g id="clust7" class="cluster">
<title>clusterClayBonds</title>
<path fill="#445773" stroke="#445773" d="M20,-1243C20,-1243 452.2962,-1243 452.2962,-1243 458.2962,-1243 464.2962,-1249 464.2962,-1255 464.2962,-1255 464.2962,-1470 464.2962,-1470 464.2962,-1476 458.2962,-1482 452.2962,-1482 452.2962,-1482 20,-1482 20,-1482 14,-1482 8,-1476 8,-1470 8,-1470 8,-1255 8,-1255 8,-1249 14,-1243 20,-1243"/>
<text text-anchor="middle" x="236.1481" y="-1465.4" font-family="Times,serif" font-size="14.00" fill="#f0f0f0">ClayBonds</text>
</g>
<g id="clust8" class="cluster">
<title>cluster_01</title>
<polygon fill="#2e3e56" stroke="#000000" points="10.5209,-1953 10.5209,-2082 360.669,-2082 360.669,-1953 10.5209,-1953"/>
<text text-anchor="middle" x="185.595" y="-2065.4" font-family="Times,serif" font-size="14.00" fill="#000000">Legend</text>
</g>
<!-- Context._msgSender -->
<g id="node1" class="node">
<title>Context._msgSender</title>
<ellipse fill="#f2c383" stroke="#f2c383" stroke-width="3" cx="83.5209" cy="-88" rx="58.5502" ry="18"/>
<text text-anchor="middle" x="83.5209" y="-83.8" font-family="Times,serif" font-size="14.00" fill="#000000">_msgSender</text>
</g>
<!-- Context._msgData -->
<g id="node2" class="node">
<title>Context._msgData</title>
<ellipse fill="#f2c383" stroke="#f2c383" stroke-width="3" cx="83.5209" cy="-34" rx="50.38" ry="18"/>
<text text-anchor="middle" x="83.5209" y="-29.8" font-family="Times,serif" font-size="14.00" fill="#000000">_msgData</text>
</g>
<!-- IERC20.totalSupply -->
<g id="node3" class="node">
<title>IERC20.totalSupply</title>
<ellipse fill="#ffbdb9" stroke="#ffbdb9" stroke-width="3" cx="83.5209" cy="-443" rx="55.6372" ry="18"/>
<text text-anchor="middle" x="83.5209" y="-438.8" font-family="Times,serif" font-size="14.00" fill="#000000">totalSupply</text>
</g>
<!-- IERC20.balanceOf -->
<g id="node4" class="node">
<title>IERC20.balanceOf</title>
<ellipse fill="#ffbdb9" stroke="#ffbdb9" stroke-width="3" cx="83.5209" cy="-389" rx="50.9211" ry="18"/>
<text text-anchor="middle" x="83.5209" y="-384.8" font-family="Times,serif" font-size="14.00" fill="#000000">balanceOf</text>
</g>
<!-- IERC20.transfer -->
<g id="node5" class="node">
<title>IERC20.transfer</title>
<ellipse fill="#ffbdb9" stroke="#ffbdb9" stroke-width="3" cx="83.5209" cy="-335" rx="40.5441" ry="18"/>
<text text-anchor="middle" x="83.5209" y="-330.8" font-family="Times,serif" font-size="14.00" fill="#000000">transfer</text>
</g>
<!-- IERC20.allowance -->
<g id="node6" class="node">
<title>IERC20.allowance</title>
<ellipse fill="#ffbdb9" stroke="#ffbdb9" stroke-width="3" cx="83.5209" cy="-281" rx="50.3586" ry="18"/>
<text text-anchor="middle" x="83.5209" y="-276.8" font-family="Times,serif" font-size="14.00" fill="#000000">allowance</text>
</g>
<!-- IERC20.approve -->
<g id="node7" class="node">
<title>IERC20.approve</title>
<ellipse fill="#ffbdb9" stroke="#ffbdb9" stroke-width="3" cx="83.5209" cy="-227" rx="42.2777" ry="18"/>
<text text-anchor="middle" x="83.5209" y="-222.8" font-family="Times,serif" font-size="14.00" fill="#000000">approve</text>
</g>
<!-- IERC20.transferFrom -->
<g id="node8" class="node">
<title>IERC20.transferFrom</title>
<ellipse fill="#ffbdb9" stroke="#ffbdb9" stroke-width="3" cx="83.5209" cy="-173" rx="61.3916" ry="18"/>
<text text-anchor="middle" x="83.5209" y="-168.8" font-family="Times,serif" font-size="14.00" fill="#000000">transferFrom</text>
</g>
<!-- IERC20Metadata.name -->
<g id="node9" class="node">
<title>IERC20Metadata.name</title>
<ellipse fill="#ffbdb9" stroke="#ffbdb9" stroke-width="3" cx="83.5209" cy="-636" rx="31.9012" ry="18"/>
<text text-anchor="middle" x="83.5209" y="-631.8" font-family="Times,serif" font-size="14.00" fill="#000000">name</text>
</g>
<!-- IERC20Metadata.symbol -->
<g id="node10" class="node">
<title>IERC20Metadata.symbol</title>
<ellipse fill="#ffbdb9" stroke="#ffbdb9" stroke-width="3" cx="83.5209" cy="-582" rx="39.4466" ry="18"/>
<text text-anchor="middle" x="83.5209" y="-577.8" font-family="Times,serif" font-size="14.00" fill="#000000">symbol</text>
</g>
<!-- IERC20Metadata.decimals -->
<g id="node11" class="node">
<title>IERC20Metadata.decimals</title>
<ellipse fill="#ffbdb9" stroke="#ffbdb9" stroke-width="3" cx="83.5209" cy="-528" rx="45.2208" ry="18"/>
<text text-anchor="middle" x="83.5209" y="-523.8" font-family="Times,serif" font-size="14.00" fill="#000000">decimals</text>
</g>
<!-- Ownable.&lt;Constructor&gt; -->
<g id="node12" class="node">
<title>Ownable.&lt;Constructor&gt;</title>
<ellipse fill="#ff9797" stroke="#ff9797" stroke-width="3" cx="325.669" cy="-829" rx="67.5419" ry="18"/>
<text text-anchor="middle" x="325.669" y="-824.8" font-family="Times,serif" font-size="14.00" fill="#000000">&lt;Constructor&gt;</text>
</g>
<!-- Ownable._transferOwnership -->
<g id="node18" class="node">
<title>Ownable._transferOwnership</title>
<ellipse fill="#edad56" stroke="#edad56" stroke-width="3" cx="590.194" cy="-775" rx="87.9394" ry="18"/>
<text text-anchor="middle" x="590.194" y="-770.8" font-family="Times,serif" font-size="14.00" fill="#000000">_transferOwnership</text>
</g>
<!-- Ownable.&lt;Constructor&gt;&#45;&gt;Ownable._transferOwnership -->
<g id="edge1" class="edge">
<title>Ownable.&lt;Constructor&gt;-&gt;Ownable._transferOwnership</title>
<path fill="none" stroke="#1bc6a6" stroke-width="2" d="M380.698,-818.5299C406.1584,-813.6221 436.7912,-807.6274 464.2962,-802 482.4052,-798.295 501.9505,-794.1666 520.115,-790.2748"/>
<polygon fill="#1bc6a6" stroke="#1bc6a6" stroke-width="2" points="521.0047,-793.6636 530.0464,-788.1412 519.5343,-786.8197 521.0047,-793.6636"/>
</g>
<!-- Ownable._msgSender -->
<g id="node19" class="node">
<title>Ownable._msgSender</title>
<ellipse fill="#edad56" stroke="#edad56" stroke-width="3" cx="590.194" cy="-829" rx="58.5502" ry="18"/>
<text text-anchor="middle" x="590.194" y="-824.8" font-family="Times,serif" font-size="14.00" fill="#000000">_msgSender</text>
</g>
<!-- Ownable.&lt;Constructor&gt;&#45;&gt;Ownable._msgSender -->
<g id="edge2" class="edge">
<title>Ownable.&lt;Constructor&gt;-&gt;Ownable._msgSender</title>
<path fill="none" stroke="#1bc6a6" stroke-width="2" d="M393.4473,-829C432.5947,-829 481.7209,-829 521.0904,-829"/>
<polygon fill="#1bc6a6" stroke="#1bc6a6" stroke-width="2" points="521.1369,-832.5001 531.1368,-829 521.1368,-825.5001 521.1369,-832.5001"/>
</g>
<!-- Ownable.onlyOwner -->
<g id="node13" class="node">
<title>Ownable.onlyOwner</title>
<polygon fill="#edad56" stroke="#1bc6a6" stroke-width="3" points="142.4568,-871.5442 142.4568,-886.4558 107.933,-897 59.1089,-897 24.5851,-886.4558 24.5851,-871.5442 59.1089,-861 107.933,-861 142.4568,-871.5442"/>
<polygon fill="none" stroke="#1bc6a6" stroke-width="3" points="146.4547,-868.583 146.4547,-889.417 108.5296,-901 58.5123,-901 20.5872,-889.417 20.5872,-868.583 58.5123,-857 108.5296,-857 146.4547,-868.583"/>
<text text-anchor="middle" x="83.5209" y="-874.8" font-family="Times,serif" font-size="14.00" fill="#000000">onlyOwner</text>
</g>
<!-- Ownable._checkOwner -->
<g id="node15" class="node">
<title>Ownable._checkOwner</title>
<ellipse fill="#edad56" stroke="#edad56" stroke-width="3" cx="325.669" cy="-883" rx="64.8099" ry="18"/>
<text text-anchor="middle" x="325.669" y="-878.8" font-family="Times,serif" font-size="14.00" fill="#000000">_checkOwner</text>
</g>
<!-- Ownable.onlyOwner&#45;&gt;Ownable._checkOwner -->
<g id="edge3" class="edge">
<title>Ownable.onlyOwner-&gt;Ownable._checkOwner</title>
<path fill="none" stroke="#1bc6a6" stroke-width="2" d="M146.5104,-880.0405C178.3859,-880.5671 217.3008,-881.2099 250.7087,-881.7617"/>
<polygon fill="#1bc6a6" stroke="#1bc6a6" stroke-width="2" points="250.8295,-885.2641 260.8859,-881.9299 250.9451,-878.2651 250.8295,-885.2641"/>
</g>
<!-- Ownable.owner -->
<g id="node14" class="node">
<title>Ownable.owner</title>
<ellipse fill="#edad56" stroke="#edad56" stroke-width="3" cx="590.194" cy="-883" rx="35.3334" ry="18"/>
<text text-anchor="middle" x="590.194" y="-878.8" font-family="Times,serif" font-size="14.00" fill="#000000">owner</text>
</g>
<!-- Ownable._checkOwner&#45;&gt;Ownable.owner -->
<g id="edge4" class="edge">
<title>Ownable._checkOwner-&gt;Ownable.owner</title>
<path fill="none" stroke="#1bc6a6" stroke-width="2" d="M390.3791,-883C438.2808,-883 502.342,-883 544.8717,-883"/>
<polygon fill="#1bc6a6" stroke="#1bc6a6" stroke-width="2" points="544.9315,-886.5001 554.9315,-883 544.9314,-879.5001 544.9315,-886.5001"/>
</g>
<!-- Ownable._checkOwner&#45;&gt;Ownable._msgSender -->
<g id="edge5" class="edge">
<title>Ownable._checkOwner-&gt;Ownable._msgSender</title>
<path fill="none" stroke="#1bc6a6" stroke-width="2" d="M379.3686,-872.7861C405.0873,-867.8317 436.3107,-861.7257 464.2962,-856 486.5112,-851.4549 510.8875,-846.2727 532.2247,-841.6717"/>
<polygon fill="#1bc6a6" stroke="#1bc6a6" stroke-width="2" points="533.0782,-845.0682 542.1129,-839.5344 531.5992,-838.2262 533.0782,-845.0682"/>
</g>
<!-- Ownable.renounceOwnership -->
<g id="node16" class="node">
<title>Ownable.renounceOwnership</title>
<ellipse fill="#ff9797" stroke="#ff9797" stroke-width="3" cx="325.669" cy="-775" rx="88.5889" ry="18"/>
<text text-anchor="middle" x="325.669" y="-770.8" font-family="Times,serif" font-size="14.00" fill="#000000">renounceOwnership</text>
</g>
<!-- Ownable.renounceOwnership&#45;&gt;Ownable._transferOwnership -->
<g id="edge6" class="edge">
<title>Ownable.renounceOwnership-&gt;Ownable._transferOwnership</title>
<path fill="none" stroke="#1bc6a6" stroke-width="2" d="M414.4879,-775C439.3985,-775 466.6221,-775 492.0415,-775"/>
<polygon fill="#1bc6a6" stroke="#1bc6a6" stroke-width="2" points="492.0594,-778.5001 502.0593,-775 492.0593,-771.5001 492.0594,-778.5001"/>
</g>
<!-- Ownable.transferOwnership -->
<g id="node17" class="node">
<title>Ownable.transferOwnership</title>
<ellipse fill="#ff9797" stroke="#ff9797" stroke-width="3" cx="325.669" cy="-721" rx="82.782" ry="18"/>
<text text-anchor="middle" x="325.669" y="-716.8" font-family="Times,serif" font-size="14.00" fill="#000000">transferOwnership</text>
</g>
<!-- Ownable.transferOwnership&#45;&gt;Ownable._transferOwnership -->
<g id="edge7" class="edge">
<title>Ownable.transferOwnership-&gt;Ownable._transferOwnership</title>
<path fill="none" stroke="#1bc6a6" stroke-width="2" d="M388.1718,-732.9134C412.0153,-737.5263 439.4336,-742.9133 464.2962,-748 482.4052,-751.705 501.9505,-755.8334 520.115,-759.7252"/>
<polygon fill="#1bc6a6" stroke="#1bc6a6" stroke-width="2" points="519.5343,-763.1803 530.0464,-761.8588 521.0047,-756.3364 519.5343,-763.1803"/>
</g>
<!-- ERC20.&lt;Constructor&gt; -->
<g id="node20" class="node">
<title>ERC20.&lt;Constructor&gt;</title>
<ellipse fill="#ff9797" stroke="#ff9797" stroke-width="3" cx="83.5209" cy="-1894" rx="67.5419" ry="18"/>
<text text-anchor="middle" x="83.5209" y="-1889.8" font-family="Times,serif" font-size="14.00" fill="#000000">&lt;Constructor&gt;</text>
</g>
<!-- ERC20.name -->
<g id="node21" class="node">
<title>ERC20.name</title>
<ellipse fill="#ff9797" stroke="#ff9797" stroke-width="3" cx="83.5209" cy="-1840" rx="31.9012" ry="18"/>
<text text-anchor="middle" x="83.5209" y="-1835.8" font-family="Times,serif" font-size="14.00" fill="#000000">name</text>
</g>
<!-- ERC20.symbol -->
<g id="node22" class="node">
<title>ERC20.symbol</title>
<ellipse fill="#ff9797" stroke="#ff9797" stroke-width="3" cx="83.5209" cy="-1786" rx="39.4466" ry="18"/>
<text text-anchor="middle" x="83.5209" y="-1781.8" font-family="Times,serif" font-size="14.00" fill="#000000">symbol</text>
</g>
<!-- ERC20.decimals -->
<g id="node23" class="node">
<title>ERC20.decimals</title>
<ellipse fill="#ff9797" stroke="#ff9797" stroke-width="3" cx="83.5209" cy="-1732" rx="45.2208" ry="18"/>
<text text-anchor="middle" x="83.5209" y="-1727.8" font-family="Times,serif" font-size="14.00" fill="#000000">decimals</text>
</g>
<!-- ERC20.totalSupply -->
<g id="node24" class="node">
<title>ERC20.totalSupply</title>
<ellipse fill="#ff9797" stroke="#ff9797" stroke-width="3" cx="83.5209" cy="-1678" rx="55.6372" ry="18"/>
<text text-anchor="middle" x="83.5209" y="-1673.8" font-family="Times,serif" font-size="14.00" fill="#000000">totalSupply</text>
</g>
<!-- ERC20.balanceOf -->
<g id="node25" class="node">
<title>ERC20.balanceOf</title>
<ellipse fill="#ff9797" stroke="#ff9797" stroke-width="3" cx="83.5209" cy="-1624" rx="50.9211" ry="18"/>
<text text-anchor="middle" x="83.5209" y="-1619.8" font-family="Times,serif" font-size="14.00" fill="#000000">balanceOf</text>
</g>
<!-- ERC20.transfer -->
<g id="node26" class="node">
<title>ERC20.transfer</title>
<ellipse fill="#ff9797" stroke="#ff9797" stroke-width="3" cx="83.5209" cy="-1516" rx="40.5441" ry="18"/>
<text text-anchor="middle" x="83.5209" y="-1511.8" font-family="Times,serif" font-size="14.00" fill="#000000">transfer</text>
</g>
<!-- ERC20._transfer -->
<g id="node32" class="node">
<title>ERC20._transfer</title>
<ellipse fill="#edad56" stroke="#edad56" stroke-width="3" cx="325.669" cy="-1624" rx="45.2015" ry="18"/>
<text text-anchor="middle" x="325.669" y="-1619.8" font-family="Times,serif" font-size="14.00" fill="#000000">_transfer</text>
</g>
<!-- ERC20.transfer&#45;&gt;ERC20._transfer -->
<g id="edge9" class="edge">
<title>ERC20.transfer-&gt;ERC20._transfer</title>
<path fill="none" stroke="#1bc6a6" stroke-width="2" d="M120.8456,-1523.2334C134.7945,-1527.3068 150.0948,-1533.5475 161.8811,-1543 183.8522,-1560.6206 171.9889,-1580.8207 195.0419,-1597 216.783,-1612.2586 245.2641,-1619.2642 270.0815,-1622.3493"/>
<polygon fill="#1bc6a6" stroke="#1bc6a6" stroke-width="2" points="269.79,-1625.8379 280.1035,-1623.4125 270.5285,-1618.877 269.79,-1625.8379"/>
</g>
<!-- ERC20._msgSender -->
<g id="node39" class="node">
<title>ERC20._msgSender</title>
<ellipse fill="#edad56" stroke="#edad56" stroke-width="3" cx="590.194" cy="-1718" rx="58.5502" ry="18"/>
<text text-anchor="middle" x="590.194" y="-1713.8" font-family="Times,serif" font-size="14.00" fill="#000000">_msgSender</text>
</g>
<!-- ERC20.transfer&#45;&gt;ERC20._msgSender -->
<g id="edge8" class="edge">
<title>ERC20.transfer-&gt;ERC20._msgSender</title>
<path fill="none" stroke="#1bc6a6" stroke-width="2" d="M122.1876,-1521.7613C136.3112,-1525.6429 151.3804,-1532.137 161.8811,-1543 196.779,-1579.102 155.5069,-1620.0452 195.0419,-1651 218.6342,-1669.4721 435.079,-1659.3538 464.2962,-1666 494.628,-1672.8998 527.0284,-1686.4379 551.3634,-1697.9707"/>
<polygon fill="#1bc6a6" stroke="#1bc6a6" stroke-width="2" points="550.0777,-1701.2366 560.6043,-1702.4372 553.124,-1694.9342 550.0777,-1701.2366"/>
</g>
<!-- ERC20.allowance -->
<g id="node27" class="node">
<title>ERC20.allowance</title>
<ellipse fill="#edad56" stroke="#edad56" stroke-width="3" cx="590.194" cy="-1826" rx="50.3586" ry="18"/>
<text text-anchor="middle" x="590.194" y="-1821.8" font-family="Times,serif" font-size="14.00" fill="#000000">allowance</text>
</g>
<!-- ERC20.approve -->
<g id="node28" class="node">
<title>ERC20.approve</title>
<ellipse fill="#ff9797" stroke="#ff9797" stroke-width="3" cx="325.669" cy="-1718" rx="42.2777" ry="18"/>
<text text-anchor="middle" x="325.669" y="-1713.8" font-family="Times,serif" font-size="14.00" fill="#000000">approve</text>
</g>
<!-- ERC20._approve -->
<g id="node35" class="node">
<title>ERC20._approve</title>
<ellipse fill="#edad56" stroke="#edad56" stroke-width="3" cx="590.194" cy="-1772" rx="46.9342" ry="18"/>
<text text-anchor="middle" x="590.194" y="-1767.8" font-family="Times,serif" font-size="14.00" fill="#000000">_approve</text>
</g>
<!-- ERC20.approve&#45;&gt;ERC20._approve -->
<g id="edge11" class="edge">
<title>ERC20.approve-&gt;ERC20._approve</title>
<path fill="none" stroke="#1bc6a6" stroke-width="2" d="M364.2511,-1725.312C392.0853,-1730.6364 430.5455,-1738.0948 464.2962,-1745 489.0969,-1750.0741 516.5914,-1755.9423 539.5436,-1760.9093"/>
<polygon fill="#1bc6a6" stroke="#1bc6a6" stroke-width="2" points="538.8966,-1764.3503 549.4113,-1763.0496 540.3805,-1757.5093 538.8966,-1764.3503"/>
</g>
<!-- ERC20.approve&#45;&gt;ERC20._msgSender -->
<g id="edge10" class="edge">
<title>ERC20.approve-&gt;ERC20._msgSender</title>
<path fill="none" stroke="#1bc6a6" stroke-width="2" d="M367.8763,-1718C409.1383,-1718 472.6693,-1718 521.2668,-1718"/>
<polygon fill="#1bc6a6" stroke="#1bc6a6" stroke-width="2" points="521.3969,-1721.5001 531.3969,-1718 521.3969,-1714.5001 521.3969,-1721.5001"/>
</g>
<!-- ERC20.transferFrom -->
<g id="node29" class="node">
<title>ERC20.transferFrom</title>
<ellipse fill="#ff9797" stroke="#ff9797" stroke-width="3" cx="83.5209" cy="-1570" rx="61.3916" ry="18"/>
<text text-anchor="middle" x="83.5209" y="-1565.8" font-family="Times,serif" font-size="14.00" fill="#000000">transferFrom</text>
</g>
<!-- ERC20.transferFrom&#45;&gt;ERC20._transfer -->
<g id="edge14" class="edge">
<title>ERC20.transferFrom-&gt;ERC20._transfer</title>
<path fill="none" stroke="#1bc6a6" stroke-width="2" d="M130.3751,-1581.7154C150.2781,-1586.5953 173.7578,-1592.2253 195.0419,-1597 221.3381,-1602.8991 250.7207,-1609.0145 274.9494,-1613.9304"/>
<polygon fill="#1bc6a6" stroke="#1bc6a6" stroke-width="2" points="274.4985,-1617.41 284.9936,-1615.9597 275.8848,-1610.5486 274.4985,-1617.41"/>
</g>
<!-- ERC20._spendAllowance -->
<g id="node36" class="node">
<title>ERC20._spendAllowance</title>
<ellipse fill="#edad56" stroke="#edad56" stroke-width="3" cx="325.669" cy="-1880" rx="80.4403" ry="18"/>
<text text-anchor="middle" x="325.669" y="-1875.8" font-family="Times,serif" font-size="14.00" fill="#000000">_spendAllowance</text>
</g>
<!-- ERC20.transferFrom&#45;&gt;ERC20._spendAllowance -->
<g id="edge13" class="edge">
<title>ERC20.transferFrom-&gt;ERC20._spendAllowance</title>
<path fill="none" stroke="#1bc6a6" stroke-width="2" d="M136.6279,-1579.3487C146.2732,-1583.3206 155.3354,-1588.9697 161.8811,-1597 234.3685,-1685.928 117.0155,-1768.89 195.0419,-1853 205.7651,-1864.5592 220.0243,-1871.8797 235.1801,-1876.3985"/>
<polygon fill="#1bc6a6" stroke="#1bc6a6" stroke-width="2" points="234.6849,-1879.8847 245.241,-1878.9798 236.4246,-1873.1043 234.6849,-1879.8847"/>
</g>
<!-- ERC20.transferFrom&#45;&gt;ERC20._msgSender -->
<g id="edge12" class="edge">
<title>ERC20.transferFrom-&gt;ERC20._msgSender</title>
<path fill="none" stroke="#1bc6a6" stroke-width="2" d="M133.5557,-1580.6452C143.7565,-1584.5365 153.82,-1589.8249 161.8811,-1597 187.2962,-1619.6215 167.1089,-1646.573 195.0419,-1666 244.3753,-1700.3107 404.8967,-1681.9059 464.2962,-1691 487.2824,-1694.5192 512.376,-1699.6366 534.0688,-1704.4722"/>
<polygon fill="#1bc6a6" stroke="#1bc6a6" stroke-width="2" points="533.5717,-1707.9482 544.0976,-1706.7411 535.1163,-1701.1207 533.5717,-1707.9482"/>
</g>
<!-- ERC20.increaseAllowance -->
<g id="node30" class="node">
<title>ERC20.increaseAllowance</title>
<ellipse fill="#ff9797" stroke="#ff9797" stroke-width="3" cx="325.669" cy="-1826" rx="84.486" ry="18"/>
<text text-anchor="middle" x="325.669" y="-1821.8" font-family="Times,serif" font-size="14.00" fill="#000000">increaseAllowance</text>
</g>
<!-- ERC20.increaseAllowance&#45;&gt;ERC20.allowance -->
<g id="edge17" class="edge">
<title>ERC20.increaseAllowance-&gt;ERC20.allowance</title>
<path fill="none" stroke="#1bc6a6" stroke-width="2" d="M410.4579,-1826C449.2445,-1826 494.3113,-1826 529.6148,-1826"/>
<polygon fill="#1bc6a6" stroke="#1bc6a6" stroke-width="2" points="529.7687,-1829.5001 539.7687,-1826 529.7687,-1822.5001 529.7687,-1829.5001"/>
</g>
<!-- ERC20.increaseAllowance&#45;&gt;ERC20._approve -->
<g id="edge16" class="edge">
<title>ERC20.increaseAllowance-&gt;ERC20._approve</title>
<path fill="none" stroke="#1bc6a6" stroke-width="2" d="M388.8639,-1813.9527C412.5449,-1809.3696 439.6738,-1804.0376 464.2962,-1799 489.0969,-1793.9259 516.5914,-1788.0577 539.5436,-1783.0907"/>
<polygon fill="#1bc6a6" stroke="#1bc6a6" stroke-width="2" points="540.3805,-1786.4907 549.4113,-1780.9504 538.8966,-1779.6497 540.3805,-1786.4907"/>
</g>
<!-- ERC20.increaseAllowance&#45;&gt;ERC20._msgSender -->
<g id="edge15" class="edge">
<title>ERC20.increaseAllowance-&gt;ERC20._msgSender</title>
<path fill="none" stroke="#1bc6a6" stroke-width="2" d="M408.4278,-1822.2306C428.1898,-1818.1451 448.1982,-1811.0459 464.2962,-1799 485.9416,-1782.8031 471.2881,-1762.0154 492.2962,-1745 502.0257,-1737.1196 513.8908,-1731.5336 525.9578,-1727.5754"/>
<polygon fill="#1bc6a6" stroke="#1bc6a6" stroke-width="2" points="527.0298,-1730.9086 535.6418,-1724.7373 525.061,-1724.1911 527.0298,-1730.9086"/>
</g>
<!-- ERC20.decreaseAllowance -->
<g id="node31" class="node">
<title>ERC20.decreaseAllowance</title>
<ellipse fill="#ff9797" stroke="#ff9797" stroke-width="3" cx="325.669" cy="-1772" rx="86.1923" ry="18"/>
<text text-anchor="middle" x="325.669" y="-1767.8" font-family="Times,serif" font-size="14.00" fill="#000000">decreaseAllowance</text>
</g>
<!-- ERC20.decreaseAllowance&#45;&gt;ERC20.allowance -->
<g id="edge19" class="edge">
<title>ERC20.decreaseAllowance-&gt;ERC20.allowance</title>
<path fill="none" stroke="#1bc6a6" stroke-width="2" d="M389.5579,-1784.1816C413.074,-1788.7344 439.914,-1794.0115 464.2962,-1799 488.226,-1803.8959 514.6638,-1809.5312 537.1092,-1814.3828"/>
<polygon fill="#1bc6a6" stroke="#1bc6a6" stroke-width="2" points="536.6033,-1817.8543 547.1177,-1816.5513 538.0856,-1811.013 536.6033,-1817.8543"/>
</g>
<!-- ERC20.decreaseAllowance&#45;&gt;ERC20._approve -->
<g id="edge20" class="edge">
<title>ERC20.decreaseAllowance-&gt;ERC20._approve</title>
<path fill="none" stroke="#1bc6a6" stroke-width="2" d="M411.9184,-1772C451.5758,-1772 497.5382,-1772 532.8605,-1772"/>
<polygon fill="#1bc6a6" stroke="#1bc6a6" stroke-width="2" points="532.9934,-1775.5001 542.9934,-1772 532.9934,-1768.5001 532.9934,-1775.5001"/>
</g>
<!-- ERC20.decreaseAllowance&#45;&gt;ERC20._msgSender -->
<g id="edge18" class="edge">
<title>ERC20.decreaseAllowance-&gt;ERC20._msgSender</title>
<path fill="none" stroke="#1bc6a6" stroke-width="2" d="M389.5579,-1759.8184C413.074,-1755.2656 439.914,-1749.9885 464.2962,-1745 486.5112,-1740.4549 510.8875,-1735.2727 532.2247,-1730.6717"/>
<polygon fill="#1bc6a6" stroke="#1bc6a6" stroke-width="2" points="533.0782,-1734.0682 542.1129,-1728.5344 531.5992,-1727.2262 533.0782,-1734.0682"/>
</g>
<!-- ERC20._beforeTokenTransfer -->
<g id="node37" class="node">
<title>ERC20._beforeTokenTransfer</title>
<ellipse fill="#edad56" stroke="#edad56" stroke-width="3" cx="590.194" cy="-1597" rx="97.7958" ry="18"/>
<text text-anchor="middle" x="590.194" y="-1592.8" font-family="Times,serif" font-size="14.00" fill="#000000">_beforeTokenTransfer</text>
</g>
<!-- ERC20._transfer&#45;&gt;ERC20._beforeTokenTransfer -->
<g id="edge21" class="edge">
<title>ERC20._transfer-&gt;ERC20._beforeTokenTransfer</title>
<path fill="none" stroke="#1bc6a6" stroke-width="2" d="M369.6469,-1619.5112C403.5129,-1616.0545 451.5908,-1611.1472 494.2183,-1606.7962"/>
<polygon fill="#1bc6a6" stroke="#1bc6a6" stroke-width="2" points="494.7624,-1610.259 504.3553,-1605.7615 494.0516,-1603.2951 494.7624,-1610.259"/>
</g>
<!-- ERC20._afterTokenTransfer -->
<g id="node38" class="node">
<title>ERC20._afterTokenTransfer</title>
<ellipse fill="#edad56" stroke="#edad56" stroke-width="3" cx="590.194" cy="-1543" rx="90.8492" ry="18"/>
<text text-anchor="middle" x="590.194" y="-1538.8" font-family="Times,serif" font-size="14.00" fill="#000000">_afterTokenTransfer</text>
</g>
<!-- ERC20._transfer&#45;&gt;ERC20._afterTokenTransfer -->
<g id="edge22" class="edge">
<title>ERC20._transfer-&gt;ERC20._afterTokenTransfer</title>
<path fill="none" stroke="#1bc6a6" stroke-width="2" d="M370.8886,-1621.7155C399.0801,-1618.7525 435.3673,-1612.0529 464.2962,-1597 479.632,-1589.0201 477.2778,-1578.5623 492.2962,-1570 499.8078,-1565.7175 508.0342,-1562.0848 516.4259,-1559.0103"/>
<polygon fill="#1bc6a6" stroke="#1bc6a6" stroke-width="2" points="517.6027,-1562.3071 525.9414,-1555.7713 515.347,-1555.6804 517.6027,-1562.3071"/>
</g>
<!-- ERC20._mint -->
<g id="node33" class="node">
<title>ERC20._mint</title>
<ellipse fill="#f2c383" stroke="#f2c383" stroke-width="3" cx="325.669" cy="-1570" rx="33.646" ry="18"/>
<text text-anchor="middle" x="325.669" y="-1565.8" font-family="Times,serif" font-size="14.00" fill="#000000">_mint</text>
</g>
<!-- ERC20._mint&#45;&gt;ERC20._beforeTokenTransfer -->
<g id="edge23" class="edge">
<title>ERC20._mint-&gt;ERC20._beforeTokenTransfer</title>
<path fill="none" stroke="#1bc6a6" stroke-width="2" d="M358.9035,-1573.3922C392.78,-1576.85 446.937,-1582.3778 494.3317,-1587.2154"/>
<polygon fill="#1bc6a6" stroke="#1bc6a6" stroke-width="2" points="494.0291,-1590.7026 504.3328,-1588.2362 494.7399,-1583.7387 494.0291,-1590.7026"/>
</g>
<!-- ERC20._mint&#45;&gt;ERC20._afterTokenTransfer -->
<g id="edge24" class="edge">
<title>ERC20._mint-&gt;ERC20._afterTokenTransfer</title>
<path fill="none" stroke="#1bc6a6" stroke-width="2" d="M358.9035,-1566.6078C393.8811,-1563.0376 450.4791,-1557.2607 498.931,-1552.3152"/>
<polygon fill="#1bc6a6" stroke="#1bc6a6" stroke-width="2" points="499.5428,-1555.771 509.1357,-1551.2736 498.832,-1548.8072 499.5428,-1555.771"/>
</g>
<!-- ERC20._burn -->
<g id="node34" class="node">
<title>ERC20._burn</title>
<ellipse fill="#f2c383" stroke="#f2c383" stroke-width="3" cx="325.669" cy="-1516" rx="33.6305" ry="18"/>
<text text-anchor="middle" x="325.669" y="-1511.8" font-family="Times,serif" font-size="14.00" fill="#000000">_burn</text>
</g>
<!-- ERC20._burn&#45;&gt;ERC20._beforeTokenTransfer -->
<g id="edge25" class="edge">
<title>ERC20._burn-&gt;ERC20._beforeTokenTransfer</title>
<path fill="none" stroke="#1bc6a6" stroke-width="2" d="M359.3473,-1517.23C388.5622,-1519.5037 431.2346,-1525.7967 464.2962,-1543 479.632,-1550.9799 477.2778,-1561.4377 492.2962,-1570 499.2651,-1573.9732 506.8493,-1577.3869 514.61,-1580.3146"/>
<polygon fill="#1bc6a6" stroke="#1bc6a6" stroke-width="2" points="513.5395,-1583.648 524.1343,-1583.6496 515.8529,-1577.0413 513.5395,-1583.648"/>
</g>
<!-- ERC20._burn&#45;&gt;ERC20._afterTokenTransfer -->
<g id="edge26" class="edge">
<title>ERC20._burn-&gt;ERC20._afterTokenTransfer</title>
<path fill="none" stroke="#1bc6a6" stroke-width="2" d="M358.9035,-1519.3922C393.8811,-1522.9624 450.4791,-1528.7393 498.931,-1533.6848"/>
<polygon fill="#1bc6a6" stroke="#1bc6a6" stroke-width="2" points="498.832,-1537.1928 509.1357,-1534.7264 499.5428,-1530.229 498.832,-1537.1928"/>
</g>
<!-- ERC20._spendAllowance&#45;&gt;ERC20.allowance -->
<g id="edge27" class="edge">
<title>ERC20._spendAllowance-&gt;ERC20.allowance</title>
<path fill="none" stroke="#1bc6a6" stroke-width="2" d="M387.1374,-1868.2867C411.22,-1863.6299 439.0732,-1858.1605 464.2962,-1853 488.226,-1848.1041 514.6638,-1842.4688 537.1092,-1837.6172"/>
<polygon fill="#1bc6a6" stroke="#1bc6a6" stroke-width="2" points="538.0856,-1840.987 547.1177,-1835.4487 536.6033,-1834.1457 538.0856,-1840.987"/>
</g>
<!-- ERC20._spendAllowance&#45;&gt;ERC20._approve -->
<g id="edge29" class="edge">
<title>ERC20._spendAllowance-&gt;ERC20._approve</title>
<path fill="none" stroke="#1bc6a6" stroke-width="2" d="M404.8165,-1876.9448C425.7352,-1872.9924 447.2166,-1865.7804 464.2962,-1853 485.9416,-1836.8031 471.2881,-1816.0154 492.2962,-1799 504.434,-1789.169 519.8954,-1782.9088 534.9263,-1778.9253"/>
<polygon fill="#1bc6a6" stroke="#1bc6a6" stroke-width="2" points="535.7717,-1782.322 544.7024,-1776.6217 534.1662,-1775.5086 535.7717,-1782.322"/>
</g>
<!-- ERC20.type -->
<g id="node40" class="node">
<title>ERC20.type</title>
<ellipse fill="#edad56" stroke="#edad56" stroke-width="3" cx="590.194" cy="-1880" rx="27.8286" ry="18"/>
<text text-anchor="middle" x="590.194" y="-1875.8" font-family="Times,serif" font-size="14.00" fill="#000000">type</text>
</g>
<!-- ERC20._spendAllowance&#45;&gt;ERC20.type -->
<g id="edge28" class="edge">
<title>ERC20._spendAllowance-&gt;ERC20.type</title>
<path fill="none" stroke="#1bc6a6" stroke-width="2" d="M406.1126,-1880C454.6023,-1880 514.1294,-1880 552.1159,-1880"/>
<polygon fill="#1bc6a6" stroke="#1bc6a6" stroke-width="2" points="552.2318,-1883.5001 562.2317,-1880 552.2317,-1876.5001 552.2318,-1883.5001"/>
</g>
<!-- IClayToken.mint -->
<g id="node41" class="node">
<title>IClayToken.mint</title>
<ellipse fill="#edad56" stroke="#edad56" stroke-width="3" cx="325.669" cy="-1130" rx="28.991" ry="18"/>
<text text-anchor="middle" x="325.669" y="-1125.8" font-family="Times,serif" font-size="14.00" fill="#000000">mint</text>
</g>
<!-- IClayToken.burn -->
<g id="node42" class="node">
<title>IClayToken.burn</title>
<ellipse fill="#edad56" stroke="#edad56" stroke-width="3" cx="325.669" cy="-1076" rx="28.9754" ry="18"/>
<text text-anchor="middle" x="325.669" y="-1071.8" font-family="Times,serif" font-size="14.00" fill="#000000">burn</text>
</g>
<!-- IClayToken.balanceOf -->
<g id="node43" class="node">
<title>IClayToken.balanceOf</title>
<ellipse fill="#edad56" stroke="#edad56" stroke-width="3" cx="325.669" cy="-1022" rx="50.9211" ry="18"/>
<text text-anchor="middle" x="325.669" y="-1017.8" font-family="Times,serif" font-size="14.00" fill="#000000">balanceOf</text>
</g>
<!-- IClayToken.transferFrom -->
<g id="node44" class="node">
<title>IClayToken.transferFrom</title>
<ellipse fill="#edad56" stroke="#edad56" stroke-width="3" cx="325.669" cy="-1184" rx="61.3916" ry="18"/>
<text text-anchor="middle" x="325.669" y="-1179.8" font-family="Times,serif" font-size="14.00" fill="#000000">transferFrom</text>
</g>
<!-- IClayToken.totalSupply -->
<g id="node45" class="node">
<title>IClayToken.totalSupply</title>
<ellipse fill="#ffbdb9" stroke="#ffbdb9" stroke-width="3" cx="325.669" cy="-968" rx="55.6372" ry="18"/>
<text text-anchor="middle" x="325.669" y="-963.8" font-family="Times,serif" font-size="14.00" fill="#000000">totalSupply</text>
</g>
<!-- ClayBonds.&lt;Constructor&gt; -->
<g id="node46" class="node">
<title>ClayBonds.&lt;Constructor&gt;</title>
<ellipse fill="#ff9797" stroke="#ff9797" stroke-width="3" cx="83.5209" cy="-1431" rx="67.5419" ry="18"/>
<text text-anchor="middle" x="83.5209" y="-1426.8" font-family="Times,serif" font-size="14.00" fill="#000000">&lt;Constructor&gt;</text>
</g>
<!-- ClayBonds.getDaysLeftToMaturationDate -->
<g id="node47" class="node">
<title>ClayBonds.getDaysLeftToMaturationDate</title>
<ellipse fill="#edad56" stroke="#edad56" stroke-width="3" cx="325.669" cy="-1377" rx="130.7544" ry="18"/>
<text text-anchor="middle" x="325.669" y="-1372.8" font-family="Times,serif" font-size="14.00" fill="#000000">getDaysLeftToMaturationDate</text>
</g>
<!-- ClayBonds.getRewardPercent -->
<g id="node48" class="node">
<title>ClayBonds.getRewardPercent</title>
<ellipse fill="#edad56" stroke="#edad56" stroke-width="3" cx="325.669" cy="-1431" rx="81.6384" ry="18"/>
<text text-anchor="middle" x="325.669" y="-1426.8" font-family="Times,serif" font-size="14.00" fill="#000000">getRewardPercent</text>
</g>
<!-- ClayBonds.getReward -->
<g id="node49" class="node">
<title>ClayBonds.getReward</title>
<ellipse fill="#edad56" stroke="#edad56" stroke-width="3" cx="325.669" cy="-1323" rx="52.7276" ry="18"/>
<text text-anchor="middle" x="325.669" y="-1318.8" font-family="Times,serif" font-size="14.00" fill="#000000">getReward</text>
</g>
<!-- ClayBonds.issue -->
<g id="node50" class="node">
<title>ClayBonds.issue</title>
<ellipse fill="#ffbdb9" stroke="#ffbdb9" stroke-width="3" cx="83.5209" cy="-1377" rx="30.1938" ry="18"/>
<text text-anchor="middle" x="83.5209" y="-1372.8" font-family="Times,serif" font-size="14.00" fill="#000000">issue</text>
</g>
<!-- ClayBonds.issue&#45;&gt;ERC20._mint -->
<g id="edge34" class="edge">
<title>ClayBonds.issue-&gt;ERC20._mint</title>
<path fill="none" stroke="#1bc6a6" stroke-width="2" d="M113.4216,-1380.2673C129.9186,-1383.6065 149.5086,-1390.3565 161.8811,-1404 204.5456,-1451.0473 149.4559,-1498.7776 195.0419,-1543 217.8396,-1565.1157 253.7047,-1571.284 282.0912,-1572.2447"/>
<polygon fill="#1bc6a6" stroke="#1bc6a6" stroke-width="2" points="282.1258,-1575.7454 292.1729,-1572.383 282.2219,-1568.7461 282.1258,-1575.7454"/>
</g>
<!-- ClayBonds.issue&#45;&gt;IClayToken.transferFrom -->
<g id="edge33" class="edge">
<title>ClayBonds.issue-&gt;IClayToken.transferFrom</title>
<path fill="none" stroke="#ffffff" stroke-width="2" d="M113.5232,-1373.3874C129.8463,-1369.9352 149.2303,-1363.1872 161.8811,-1350 197.5249,-1312.8448 160.6567,-1277.3229 195.0419,-1239 213.3211,-1218.6275 240.3775,-1205.5752 265.1325,-1197.3279"/>
<polygon fill="#ffffff" stroke="#ffffff" stroke-width="2" points="266.3432,-1200.6165 274.8431,-1194.2918 264.2543,-1193.9355 266.3432,-1200.6165"/>
</g>
<!-- ClayBonds.issue&#45;&gt;ClayBonds.getDaysLeftToMaturationDate -->
<g id="edge30" class="edge">
<title>ClayBonds.issue-&gt;ClayBonds.getDaysLeftToMaturationDate</title>
<path fill="none" stroke="#1bc6a6" stroke-width="2" d="M114.1892,-1377C132.8088,-1377 158.0561,-1377 184.6227,-1377"/>
<polygon fill="#1bc6a6" stroke="#1bc6a6" stroke-width="2" points="184.8582,-1380.5001 194.8582,-1377 184.8581,-1373.5001 184.8582,-1380.5001"/>
</g>
<!-- ClayBonds.issue&#45;&gt;ClayBonds.getRewardPercent -->
<g id="edge31" class="edge">
<title>ClayBonds.issue-&gt;ClayBonds.getRewardPercent</title>
<path fill="none" stroke="#1bc6a6" stroke-width="2" d="M111.8781,-1384.1448C134.381,-1389.747 166.6631,-1397.6337 195.0419,-1404 214.3801,-1408.3382 235.3874,-1412.7934 254.7867,-1416.8024"/>
<polygon fill="#1bc6a6" stroke="#1bc6a6" stroke-width="2" points="254.2672,-1420.2688 264.7673,-1418.8553 255.6775,-1413.4123 254.2672,-1420.2688"/>
</g>
<!-- ClayBonds.issue&#45;&gt;ClayBonds.getReward -->
<g id="edge32" class="edge">
<title>ClayBonds.issue-&gt;ClayBonds.getReward</title>
<path fill="none" stroke="#1bc6a6" stroke-width="2" d="M111.8781,-1369.8552C134.381,-1364.253 166.6631,-1356.3663 195.0419,-1350 219.5476,-1344.5025 246.7337,-1338.8173 269.9312,-1334.09"/>
<polygon fill="#1bc6a6" stroke="#1bc6a6" stroke-width="2" points="270.8417,-1337.4766 279.946,-1332.0579 269.4497,-1330.6164 270.8417,-1337.4766"/>
</g>
<!-- ClayBonds.claim -->
<g id="node51" class="node">
<title>ClayBonds.claim</title>
<ellipse fill="#ffbdb9" stroke="#ffbdb9" stroke-width="3" cx="83.5209" cy="-1323" rx="32.4788" ry="18"/>
<text text-anchor="middle" x="83.5209" y="-1318.8" font-family="Times,serif" font-size="14.00" fill="#000000">claim</text>
</g>
<!-- ClayBonds.claim&#45;&gt;ERC20._burn -->
<g id="edge36" class="edge">
<title>ClayBonds.claim-&gt;ERC20._burn</title>
<path fill="none" stroke="#1bc6a6" stroke-width="2" d="M115.3421,-1326.6984C131.4042,-1330.1751 149.9593,-1336.919 161.8811,-1350 203.7893,-1395.9831 150.7549,-1442.3032 195.0419,-1486 217.7597,-1508.4151 253.6306,-1515.423 282.0396,-1517.0989"/>
<polygon fill="#1bc6a6" stroke="#1bc6a6" stroke-width="2" points="282.001,-1520.6 292.1302,-1517.4938 282.2748,-1513.6054 282.001,-1520.6"/>
</g>
<!-- ClayBonds.claim&#45;&gt;IClayToken.mint -->
<g id="edge37" class="edge">
<title>ClayBonds.claim-&gt;IClayToken.mint</title>
<path fill="none" stroke="#ffffff" stroke-width="2" d="M115.3684,-1319.3255C131.438,-1315.8557 149.9919,-1309.1106 161.8811,-1296 204.5456,-1248.9527 149.4559,-1201.2224 195.0419,-1157 219.0979,-1133.6636 257.7037,-1128.0837 286.7197,-1127.642"/>
<polygon fill="#ffffff" stroke="#ffffff" stroke-width="2" points="286.9155,-1131.1428 296.9313,-1127.6883 286.9473,-1124.1429 286.9155,-1131.1428"/>
</g>
<!-- ClayBonds.balanceOf -->
<g id="node53" class="node">
<title>ClayBonds.balanceOf</title>
<ellipse fill="#edad56" stroke="#edad56" stroke-width="3" cx="325.669" cy="-1269" rx="50.9211" ry="18"/>
<text text-anchor="middle" x="325.669" y="-1264.8" font-family="Times,serif" font-size="14.00" fill="#000000">balanceOf</text>
</g>
<!-- ClayBonds.claim&#45;&gt;ClayBonds.balanceOf -->
<g id="edge35" class="edge">
<title>ClayBonds.claim-&gt;ClayBonds.balanceOf</title>
<path fill="none" stroke="#1bc6a6" stroke-width="2" d="M113.2776,-1315.507C135.706,-1309.9295 167.2462,-1302.2355 195.0419,-1296 219.9413,-1290.4142 247.6079,-1284.6346 271.046,-1279.8629"/>
<polygon fill="#1bc6a6" stroke="#1bc6a6" stroke-width="2" points="272.0455,-1283.2316 281.1509,-1277.8146 270.6548,-1276.3711 272.0455,-1283.2316"/>
</g>
<!-- ClayBonds.burn -->
<g id="node52" class="node">
<title>ClayBonds.burn</title>
<ellipse fill="#ffbdb9" stroke="#ffbdb9" stroke-width="3" cx="83.5209" cy="-1269" rx="28.9754" ry="18"/>
<text text-anchor="middle" x="83.5209" y="-1264.8" font-family="Times,serif" font-size="14.00" fill="#000000">burn</text>
</g>
<!-- ClayBonds.burn&#45;&gt;IClayToken.burn -->
<g id="edge39" class="edge">
<title>ClayBonds.burn-&gt;IClayToken.burn</title>
<path fill="none" stroke="#ffffff" stroke-width="2" d="M90.0319,-1251.3819C103.7346,-1216.9151 138.9871,-1140.6563 195.0419,-1103 222.1439,-1084.7935 259.0143,-1078.4515 286.6732,-1076.4279"/>
<polygon fill="#ffffff" stroke="#ffffff" stroke-width="2" points="287,-1079.915 296.7831,-1075.848 286.5991,-1072.9265 287,-1079.915"/>
</g>
<!-- ClayBonds.burn&#45;&gt;IClayToken.balanceOf -->
<g id="edge38" class="edge">
<title>ClayBonds.burn-&gt;IClayToken.balanceOf</title>
<path fill="none" stroke="#ffffff" stroke-width="2" d="M87.0711,-1251.0913C96.4697,-1208.668 126.1542,-1101.666 195.0419,-1049 214.8418,-1033.8626 241.0812,-1026.6809 264.8461,-1023.4411"/>
<polygon fill="#ffffff" stroke="#ffffff" stroke-width="2" points="265.3226,-1026.9094 274.8536,-1022.2822 264.5173,-1019.9558 265.3226,-1026.9094"/>
</g>
<!-- key -->
<g id="node54" class="node">
<title>key</title>
<polygon fill="#edad56" stroke="transparent" stroke-width="3" points="148.5209,-2049 18.5209,-2049 18.5209,-1961 148.5209,-1961 148.5209,-2049"/>
<text text-anchor="start" x="68.1569" y="-2030.4" font-family="Times,serif" font-size="14.00" fill="#000000">Internal Call</text>
<text text-anchor="start" x="64.2649" y="-2010.4" font-family="Times,serif" font-size="14.00" fill="#000000">External Call</text>
<text text-anchor="start" x="41.7263" y="-1990.4" font-family="Times,serif" font-size="14.00" fill="#000000">Defined Contract</text>
<text text-anchor="start" x="28.1236" y="-1970.4" font-family="Times,serif" font-size="14.00" fill="#000000">Undefined Contract</text>
</g>
<!-- key2 -->
<g id="node55" class="node">
<title>key2</title>
<polygon fill="#edad56" stroke="transparent" stroke-width="3" points="352.669,-2049 298.669,-2049 298.669,-1961 352.669,-1961 352.669,-2049"/>
<text text-anchor="start" x="313.4281" y="-2030.4" font-family="Times,serif" font-size="14.00" fill="#000000">   </text>
<text text-anchor="start" x="313.4281" y="-2010.4" font-family="Times,serif" font-size="14.00" fill="#000000">   </text>
<polygon fill="#445773" stroke="transparent" points="311.669,-1985 311.669,-2005 339.669,-2005 339.669,-1985 311.669,-1985"/>
<text text-anchor="start" x="313.4281" y="-1990.4" font-family="Times,serif" font-size="14.00" fill="#000000">   </text>
<polygon fill="none" stroke="#e8726d" points="313.669,-1967 313.669,-1983 337.669,-1983 337.669,-1967 313.669,-1967"/>
</g>
<!-- key&#45;&gt;key2 -->
<g id="edge40" class="edge">
<title>key:e-&gt;key2:w</title>
<path fill="none" stroke="#1bc6a6" stroke-width="2" d="M140.5209,-2035C213.0212,-2035 233.6951,-2035 301.3366,-2035"/>
<polygon fill="#1bc6a6" stroke="#1bc6a6" stroke-width="2" points="301.6691,-2038.5001 311.669,-2035 301.669,-2031.5001 301.6691,-2038.5001"/>
</g>
<!-- key&#45;&gt;key2 -->
<g id="edge41" class="edge">
<title>key:e-&gt;key2:w</title>
<path fill="none" stroke="#ffffff" stroke-width="2" d="M140.5209,-2015C213.0212,-2015 233.6951,-2015 301.3366,-2015"/>
<polygon fill="#ffffff" stroke="#ffffff" stroke-width="2" points="301.6691,-2018.5001 311.669,-2015 301.669,-2011.5001 301.6691,-2018.5001"/>
</g>
</g>
</svg>