<?xml version="1.0" encoding="UTF-8" standalone="no"?><!DOCTYPE svg PUBLIC "-//W3C//DTD SVG 1.1//EN" "http://www.w3.org/Graphics/SVG/1.1/DTD/svg11.dtd"><!-- Generated by graphviz version 2.40.1 (20161225.0304)
 --><!-- Title: G Pages: 1 --><svg xmlns="http://www.w3.org/2000/svg" xmlns:xlink="http://www.w3.org/1999/xlink" width="546pt" height="902pt" viewBox="0.00 0.00 546.09 902.00">
<g id="graph0" class="graph" transform="scale(1 1) rotate(0) translate(4 898)">
<title>G</title>
<polygon fill="#2e3e56" stroke="transparent" points="-4,4 -4,-898 542.0946,-898 542.0946,4 -4,4"/>
<g id="clust1" class="cluster">
<title>clusterClayStakingRewards</title>
<path fill="#445773" stroke="#445773" d="M20,-232C20,-232 518.0946,-232 518.0946,-232 524.0946,-232 530.0946,-238 530.0946,-244 530.0946,-244 530.0946,-737 530.0946,-737 530.0946,-743 524.0946,-749 518.0946,-749 518.0946,-749 20,-749 20,-749 14,-749 8,-743 8,-737 8,-737 8,-244 8,-244 8,-238 14,-232 20,-232"/>
<text text-anchor="middle" x="269.0473" y="-732.4" font-family="Times,serif" font-size="14.00" fill="#f0f0f0">ClayStakingRewards</text>
</g>
<g id="clust2" class="cluster">
<title>clusterIERC20</title>
<path fill="#3b4b63" stroke="#e8726d" stroke-dasharray="5,2" d="M389.2681,-8C389.2681,-8 504.1596,-8 504.1596,-8 510.1596,-8 516.1596,-14 516.1596,-20 516.1596,-20 516.1596,-127 516.1596,-127 516.1596,-133 510.1596,-139 504.1596,-139 504.1596,-139 389.2681,-139 389.2681,-139 383.2681,-139 377.2681,-133 377.2681,-127 377.2681,-127 377.2681,-20 377.2681,-20 377.2681,-14 383.2681,-8 389.2681,-8"/>
<text text-anchor="middle" x="446.7138" y="-122.4" font-family="Times,serif" font-size="14.00" fill="#f0f0f0">IERC20</text>
</g>
<g id="clust3" class="cluster">
<title>clusterIClayToken</title>
<path fill="#3b4b63" stroke="#e8726d" stroke-dasharray="5,2" d="M417.9694,-147C417.9694,-147 476.4583,-147 476.4583,-147 482.4583,-147 488.4583,-153 488.4583,-159 488.4583,-159 488.4583,-212 488.4583,-212 488.4583,-218 482.4583,-224 476.4583,-224 476.4583,-224 417.9694,-224 417.9694,-224 411.9694,-224 405.9694,-218 405.9694,-212 405.9694,-212 405.9694,-159 405.9694,-159 405.9694,-153 411.9694,-147 417.9694,-147"/>
<text text-anchor="middle" x="447.2138" y="-207.4" font-family="Times,serif" font-size="14.00" fill="#f0f0f0">IClayToken</text>
</g>
<g id="clust4" class="cluster">
<title>cluster_01</title>
<polygon fill="#2e3e56" stroke="#000000" points="27.5046,-757 27.5046,-886 313.1712,-886 313.1712,-757 27.5046,-757"/>
<text text-anchor="middle" x="170.3379" y="-869.4" font-family="Times,serif" font-size="14.00" fill="#000000">Legend</text>
</g>
<!-- ClayStakingRewards.&lt;Constructor&gt; -->
<g id="node1" class="node">
<title>ClayStakingRewards.&lt;Constructor&gt;</title>
<ellipse fill="#ff9797" stroke="#ff9797" stroke-width="3" cx="100.5046" cy="-698" rx="67.5419" ry="18"/>
<text text-anchor="middle" x="100.5046" y="-693.8" font-family="Times,serif" font-size="14.00" fill="#000000">&lt;Constructor&gt;</text>
</g>
<!-- ClayStakingRewards.IERC20 -->
<g id="node14" class="node">
<title>ClayStakingRewards.IERC20</title>
<ellipse fill="#edad56" stroke="#edad56" stroke-width="3" cx="278.1712" cy="-644" rx="42.8771" ry="18"/>
<text text-anchor="middle" x="278.1712" y="-639.8" font-family="Times,serif" font-size="14.00" fill="#000000">IERC20</text>
</g>
<!-- ClayStakingRewards.&lt;Constructor&gt;&#45;&gt;ClayStakingRewards.IERC20 -->
<g id="edge1" class="edge">
<title>ClayStakingRewards.&lt;Constructor&gt;-&gt;ClayStakingRewards.IERC20</title>
<path fill="none" stroke="#1bc6a6" stroke-width="2" d="M145.3374,-684.3735C172.4373,-676.1368 206.8463,-665.6785 233.853,-657.4701"/>
<polygon fill="#1bc6a6" stroke="#1bc6a6" stroke-width="2" points="234.8907,-660.8129 243.4407,-654.556 232.855,-654.1154 234.8907,-660.8129"/>
</g>
<!-- ClayStakingRewards.IClayToken -->
<g id="node15" class="node">
<title>ClayStakingRewards.IClayToken</title>
<ellipse fill="#edad56" stroke="#edad56" stroke-width="3" cx="278.1712" cy="-698" rx="57.3243" ry="18"/>
<text text-anchor="middle" x="278.1712" y="-693.8" font-family="Times,serif" font-size="14.00" fill="#000000">IClayToken</text>
</g>
<!-- ClayStakingRewards.&lt;Constructor&gt;&#45;&gt;ClayStakingRewards.IClayToken -->
<g id="edge2" class="edge">
<title>ClayStakingRewards.&lt;Constructor&gt;-&gt;ClayStakingRewards.IClayToken</title>
<path fill="none" stroke="#1bc6a6" stroke-width="2" d="M168.1795,-698C182.1467,-698 196.8548,-698 210.8107,-698"/>
<polygon fill="#1bc6a6" stroke="#1bc6a6" stroke-width="2" points="210.8186,-701.5001 220.8185,-698 210.8185,-694.5001 210.8186,-701.5001"/>
</g>
<!-- ClayStakingRewards.totalSupply -->
<g id="node2" class="node">
<title>ClayStakingRewards.totalSupply</title>
<ellipse fill="#ffbdb9" stroke="#ffbdb9" stroke-width="3" cx="100.5046" cy="-644" rx="55.6372" ry="18"/>
<text text-anchor="middle" x="100.5046" y="-639.8" font-family="Times,serif" font-size="14.00" fill="#000000">totalSupply</text>
</g>
<!-- ClayStakingRewards.balanceOf -->
<g id="node3" class="node">
<title>ClayStakingRewards.balanceOf</title>
<ellipse fill="#ffbdb9" stroke="#ffbdb9" stroke-width="3" cx="100.5046" cy="-590" rx="50.9211" ry="18"/>
<text text-anchor="middle" x="100.5046" y="-585.8" font-family="Times,serif" font-size="14.00" fill="#000000">balanceOf</text>
</g>
<!-- ClayStakingRewards.rewardPerToken -->
<g id="node4" class="node">
<title>ClayStakingRewards.rewardPerToken</title>
<ellipse fill="#edad56" stroke="#edad56" stroke-width="3" cx="446.7138" cy="-544" rx="75.2616" ry="18"/>
<text text-anchor="middle" x="446.7138" y="-539.8" font-family="Times,serif" font-size="14.00" fill="#000000">rewardPerToken</text>
</g>
<!-- ClayStakingRewards.earned -->
<g id="node5" class="node">
<title>ClayStakingRewards.earned</title>
<ellipse fill="#ff9797" stroke="#ff9797" stroke-width="3" cx="278.1712" cy="-563" rx="36.5383" ry="18"/>
<text text-anchor="middle" x="278.1712" y="-558.8" font-family="Times,serif" font-size="14.00" fill="#000000">earned</text>
</g>
<!-- ClayStakingRewards.earned&#45;&gt;ClayStakingRewards.rewardPerToken -->
<g id="edge3" class="edge">
<title>ClayStakingRewards.earned-&gt;ClayStakingRewards.rewardPerToken</title>
<path fill="none" stroke="#1bc6a6" stroke-width="2" d="M314.3278,-558.924C330.1518,-557.1402 349.3797,-554.9726 368.2206,-552.8486"/>
<polygon fill="#1bc6a6" stroke="#1bc6a6" stroke-width="2" points="368.7746,-556.3084 378.3196,-551.7102 367.9904,-549.3525 368.7746,-556.3084"/>
</g>
<!-- ClayStakingRewards.updateReward -->
<g id="node6" class="node">
<title>ClayStakingRewards.updateReward</title>
<polygon fill="#edad56" stroke="#1bc6a6" stroke-width="3" points="172.6383,-524.5442 172.6383,-539.4558 130.3834,-550 70.6259,-550 28.3709,-539.4558 28.3709,-524.5442 70.6259,-514 130.3834,-514 172.6383,-524.5442"/>
<polygon fill="none" stroke="#1bc6a6" stroke-width="3" points="176.6285,-521.4178 176.6285,-542.5822 130.8725,-554 70.1367,-554 24.3808,-542.5822 24.3808,-521.4178 70.1367,-510 130.8725,-510 176.6285,-521.4178"/>
<text text-anchor="middle" x="100.5046" y="-527.8" font-family="Times,serif" font-size="14.00" fill="#000000">updateReward</text>
</g>
<!-- ClayStakingRewards.updateReward&#45;&gt;ClayStakingRewards.rewardPerToken -->
<g id="edge4" class="edge">
<title>ClayStakingRewards.updateReward-&gt;ClayStakingRewards.rewardPerToken</title>
<path fill="none" stroke="#1bc6a6" stroke-width="2" d="M176.6824,-532.2445C222.6495,-532.6542 282.3781,-533.649 335.3331,-536 344.9927,-536.4289 355.1161,-536.9943 365.1559,-537.6267"/>
<polygon fill="#1bc6a6" stroke="#1bc6a6" stroke-width="2" points="364.9408,-541.12 375.1476,-538.279 365.3968,-534.1349 364.9408,-541.12"/>
</g>
<!-- ClayStakingRewards.updateReward&#45;&gt;ClayStakingRewards.earned -->
<g id="edge5" class="edge">
<title>ClayStakingRewards.updateReward-&gt;ClayStakingRewards.earned</title>
<path fill="none" stroke="#1bc6a6" stroke-width="2" d="M170.4681,-544.2075C191.7045,-547.9129 214.4493,-551.8816 233.5394,-555.2125"/>
<polygon fill="#1bc6a6" stroke="#1bc6a6" stroke-width="2" points="232.9953,-558.6703 243.4481,-556.9414 234.1986,-551.7745 232.9953,-558.6703"/>
</g>
<!-- ClayStakingRewards.stake -->
<g id="node7" class="node">
<title>ClayStakingRewards.stake</title>
<ellipse fill="#ffbdb9" stroke="#ffbdb9" stroke-width="3" cx="100.5046" cy="-312" rx="30.7558" ry="18"/>
<text text-anchor="middle" x="100.5046" y="-307.8" font-family="Times,serif" font-size="14.00" fill="#000000">stake</text>
</g>
<!-- IERC20.transferFrom -->
<g id="node18" class="node">
<title>IERC20.transferFrom</title>
<ellipse fill="#edad56" stroke="#edad56" stroke-width="3" cx="446.7138" cy="-34" rx="61.3916" ry="18"/>
<text text-anchor="middle" x="446.7138" y="-29.8" font-family="Times,serif" font-size="14.00" fill="#000000">transferFrom</text>
</g>
<!-- ClayStakingRewards.stake&#45;&gt;IERC20.transferFrom -->
<g id="edge6" class="edge">
<title>ClayStakingRewards.stake-&gt;IERC20.transferFrom</title>
<path fill="none" stroke="#ffffff" stroke-width="2" d="M130.098,-306.8574C147.2057,-302.8742 168.5345,-296.1051 185.0092,-285 292.3872,-212.6199 265.2266,-135.2315 371.3331,-61 377.3629,-56.7816 384.1223,-53.1533 391.0516,-50.0514"/>
<polygon fill="#ffffff" stroke="#ffffff" stroke-width="2" points="392.6376,-53.1836 400.5536,-46.1418 389.974,-46.7101 392.6376,-53.1836"/>
</g>
<!-- ClayStakingRewards.withdraw -->
<g id="node8" class="node">
<title>ClayStakingRewards.withdraw</title>
<ellipse fill="#ff9797" stroke="#ff9797" stroke-width="3" cx="278.1712" cy="-425" rx="47.51" ry="18"/>
<text text-anchor="middle" x="278.1712" y="-420.8" font-family="Times,serif" font-size="14.00" fill="#000000">withdraw</text>
</g>
<!-- IERC20.transfer -->
<g id="node19" class="node">
<title>IERC20.transfer</title>
<ellipse fill="#edad56" stroke="#edad56" stroke-width="3" cx="446.7138" cy="-88" rx="40.5441" ry="18"/>
<text text-anchor="middle" x="446.7138" y="-83.8" font-family="Times,serif" font-size="14.00" fill="#000000">transfer</text>
</g>
<!-- ClayStakingRewards.withdraw&#45;&gt;IERC20.transfer -->
<g id="edge7" class="edge">
<title>ClayStakingRewards.withdraw-&gt;IERC20.transfer</title>
<path fill="none" stroke="#ffffff" stroke-width="2" d="M315.5784,-413.8385C323.1525,-409.958 330.321,-404.8042 335.3331,-398 403.2158,-305.8459 312.4517,-241.15 371.3331,-143 380.5122,-127.6992 395.7462,-115.3837 410.1259,-106.3169"/>
<polygon fill="#ffffff" stroke="#ffffff" stroke-width="2" points="412.1019,-109.2139 418.9071,-101.0937 408.5233,-103.1978 412.1019,-109.2139"/>
</g>
<!-- ClayStakingRewards.exit -->
<g id="node9" class="node">
<title>ClayStakingRewards.exit</title>
<ellipse fill="#ffbdb9" stroke="#ffbdb9" stroke-width="3" cx="100.5046" cy="-474" rx="27" ry="18"/>
<text text-anchor="middle" x="100.5046" y="-469.8" font-family="Times,serif" font-size="14.00" fill="#000000">exit</text>
</g>
<!-- ClayStakingRewards.exit&#45;&gt;ClayStakingRewards.withdraw -->
<g id="edge8" class="edge">
<title>ClayStakingRewards.exit-&gt;ClayStakingRewards.withdraw</title>
<path fill="none" stroke="#1bc6a6" stroke-width="2" d="M125.5831,-467.0834C152.5712,-459.6402 196.1524,-447.6206 229.8431,-438.3288"/>
<polygon fill="#1bc6a6" stroke="#1bc6a6" stroke-width="2" points="230.796,-441.6967 239.5055,-435.6639 228.9348,-434.9486 230.796,-441.6967"/>
</g>
<!-- ClayStakingRewards.getReward -->
<g id="node10" class="node">
<title>ClayStakingRewards.getReward</title>
<ellipse fill="#edad56" stroke="#edad56" stroke-width="3" cx="278.1712" cy="-479" rx="52.7276" ry="18"/>
<text text-anchor="middle" x="278.1712" y="-474.8" font-family="Times,serif" font-size="14.00" fill="#000000">getReward</text>
</g>
<!-- ClayStakingRewards.exit&#45;&gt;ClayStakingRewards.getReward -->
<g id="edge9" class="edge">
<title>ClayStakingRewards.exit-&gt;ClayStakingRewards.getReward</title>
<path fill="none" stroke="#1bc6a6" stroke-width="2" d="M127.4883,-474.7594C150.7746,-475.4147 185.3174,-476.3869 215.4572,-477.2351"/>
<polygon fill="#1bc6a6" stroke="#1bc6a6" stroke-width="2" points="215.3925,-480.7345 225.4871,-477.5173 215.5895,-473.7373 215.3925,-480.7345"/>
</g>
<!-- IClayToken.mint -->
<g id="node20" class="node">
<title>IClayToken.mint</title>
<ellipse fill="#edad56" stroke="#edad56" stroke-width="3" cx="446.7138" cy="-173" rx="28.991" ry="18"/>
<text text-anchor="middle" x="446.7138" y="-168.8" font-family="Times,serif" font-size="14.00" fill="#000000">mint</text>
</g>
<!-- ClayStakingRewards.getReward&#45;&gt;IClayToken.mint -->
<g id="edge10" class="edge">
<title>ClayStakingRewards.getReward-&gt;IClayToken.mint</title>
<path fill="none" stroke="#ffffff" stroke-width="2" d="M317.2472,-466.8384C324.1703,-463.0806 330.6518,-458.2296 335.3331,-452 395.9083,-371.3901 318.637,-313.9676 371.3331,-228 381.5952,-211.2586 399.0386,-198.0405 414.5623,-188.7625"/>
<polygon fill="#ffffff" stroke="#ffffff" stroke-width="2" points="416.43,-191.7272 423.4118,-183.7582 412.9843,-185.634 416.43,-191.7272"/>
</g>
<!-- ClayStakingRewards.pause -->
<g id="node11" class="node">
<title>ClayStakingRewards.pause</title>
<ellipse fill="#ffbdb9" stroke="#ffbdb9" stroke-width="3" cx="100.5046" cy="-420" rx="33.045" ry="18"/>
<text text-anchor="middle" x="100.5046" y="-415.8" font-family="Times,serif" font-size="14.00" fill="#000000">pause</text>
</g>
<!-- ClayStakingRewards._pause -->
<g id="node16" class="node">
<title>ClayStakingRewards._pause</title>
<ellipse fill="#edad56" stroke="#edad56" stroke-width="3" cx="278.1712" cy="-371" rx="37.7025" ry="18"/>
<text text-anchor="middle" x="278.1712" y="-366.8" font-family="Times,serif" font-size="14.00" fill="#000000">_pause</text>
</g>
<!-- ClayStakingRewards.pause&#45;&gt;ClayStakingRewards._pause -->
<g id="edge11" class="edge">
<title>ClayStakingRewards.pause-&gt;ClayStakingRewards._pause</title>
<path fill="none" stroke="#1bc6a6" stroke-width="2" d="M130.242,-411.7985C159.0684,-403.8483 203.0889,-391.7075 235.62,-382.7355"/>
<polygon fill="#1bc6a6" stroke="#1bc6a6" stroke-width="2" points="236.6079,-386.0938 245.3174,-380.061 234.7467,-379.3457 236.6079,-386.0938"/>
</g>
<!-- ClayStakingRewards.unpause -->
<g id="node12" class="node">
<title>ClayStakingRewards.unpause</title>
<ellipse fill="#ffbdb9" stroke="#ffbdb9" stroke-width="3" cx="100.5046" cy="-366" rx="42.8596" ry="18"/>
<text text-anchor="middle" x="100.5046" y="-361.8" font-family="Times,serif" font-size="14.00" fill="#000000">unpause</text>
</g>
<!-- ClayStakingRewards._unpause -->
<g id="node17" class="node">
<title>ClayStakingRewards._unpause</title>
<ellipse fill="#edad56" stroke="#edad56" stroke-width="3" cx="278.1712" cy="-317" rx="47.5158" ry="18"/>
<text text-anchor="middle" x="278.1712" y="-312.8" font-family="Times,serif" font-size="14.00" fill="#000000">_unpause</text>
</g>
<!-- ClayStakingRewards.unpause&#45;&gt;ClayStakingRewards._unpause -->
<g id="edge12" class="edge">
<title>ClayStakingRewards.unpause-&gt;ClayStakingRewards._unpause</title>
<path fill="none" stroke="#1bc6a6" stroke-width="2" d="M136.4581,-356.0841C163.332,-348.6724 200.3574,-338.4609 229.8231,-330.3343"/>
<polygon fill="#1bc6a6" stroke="#1bc6a6" stroke-width="2" points="230.7909,-333.6981 239.5004,-327.6653 228.9297,-326.9501 230.7909,-333.6981"/>
</g>
<!-- ClayStakingRewards.updateRewardRate -->
<g id="node13" class="node">
<title>ClayStakingRewards.updateRewardRate</title>
<ellipse fill="#ffbdb9" stroke="#ffbdb9" stroke-width="3" cx="100.5046" cy="-258" rx="84.5092" ry="18"/>
<text text-anchor="middle" x="100.5046" y="-253.8" font-family="Times,serif" font-size="14.00" fill="#000000">updateRewardRate</text>
</g>
<!-- key -->
<g id="node21" class="node">
<title>key</title>
<polygon fill="#edad56" stroke="transparent" stroke-width="3" points="165.5046,-853 35.5046,-853 35.5046,-765 165.5046,-765 165.5046,-853"/>
<text text-anchor="start" x="85.1406" y="-834.4" font-family="Times,serif" font-size="14.00" fill="#000000">Internal Call</text>
<text text-anchor="start" x="81.2486" y="-814.4" font-family="Times,serif" font-size="14.00" fill="#000000">External Call</text>
<text text-anchor="start" x="58.71" y="-794.4" font-family="Times,serif" font-size="14.00" fill="#000000">Defined Contract</text>
<text text-anchor="start" x="45.1073" y="-774.4" font-family="Times,serif" font-size="14.00" fill="#000000">Undefined Contract</text>
</g>
<!-- key2 -->
<g id="node22" class="node">
<title>key2</title>
<polygon fill="#edad56" stroke="transparent" stroke-width="3" points="305.1712,-853 251.1712,-853 251.1712,-765 305.1712,-765 305.1712,-853"/>
<text text-anchor="start" x="265.9303" y="-834.4" font-family="Times,serif" font-size="14.00" fill="#000000">   </text>
<text text-anchor="start" x="265.9303" y="-814.4" font-family="Times,serif" font-size="14.00" fill="#000000">   </text>
<polygon fill="#445773" stroke="transparent" points="264.1712,-789 264.1712,-809 292.1712,-809 292.1712,-789 264.1712,-789"/>
<text text-anchor="start" x="265.9303" y="-794.4" font-family="Times,serif" font-size="14.00" fill="#000000">   </text>
<polygon fill="none" stroke="#e8726d" points="266.1712,-771 266.1712,-787 290.1712,-787 290.1712,-771 266.1712,-771"/>
</g>
<!-- key&#45;&gt;key2 -->
<g id="edge13" class="edge">
<title>key:e-&gt;key2:w</title>
<path fill="none" stroke="#1bc6a6" stroke-width="2" d="M157.5046,-839C201.2083,-839 214.6949,-839 253.6772,-839"/>
<polygon fill="#1bc6a6" stroke="#1bc6a6" stroke-width="2" points="254.1712,-842.5001 264.1712,-839 254.1711,-835.5001 254.1712,-842.5001"/>
</g>
<!-- key&#45;&gt;key2 -->
<g id="edge14" class="edge">
<title>key:e-&gt;key2:w</title>
<path fill="none" stroke="#ffffff" stroke-width="2" d="M157.5046,-819C201.2083,-819 214.6949,-819 253.6772,-819"/>
<polygon fill="#ffffff" stroke="#ffffff" stroke-width="2" points="254.1712,-822.5001 264.1712,-819 254.1711,-815.5001 254.1712,-822.5001"/>
</g>
</g>
</svg>