<?xml version="1.0" encoding="UTF-8" standalone="no"?><!DOCTYPE svg PUBLIC "-//W3C//DTD SVG 1.1//EN" "http://www.w3.org/Graphics/SVG/1.1/DTD/svg11.dtd"><!-- Generated by graphviz version 2.40.1 (20161225.0304)
 --><!-- Title: G Pages: 1 --><svg xmlns="http://www.w3.org/2000/svg" xmlns:xlink="http://www.w3.org/1999/xlink" width="746pt" height="2045pt" viewBox="0.00 0.00 745.74 2045.00">
<g id="graph0" class="graph" transform="scale(1 1) rotate(0) translate(4 2041)">
<title>G</title>
<polygon fill="#2e3e56" stroke="transparent" points="-4,4 -4,-2041 741.7384,-2041 741.7384,4 -4,4"/>
<g id="clust1" class="cluster">
<title>clusterContext</title>
<path fill="#445773" stroke="#445773" d="M45.73,-425C45.73,-425 155.2793,-425 155.2793,-425 161.2793,-425 167.2793,-431 167.2793,-437 167.2793,-437 167.2793,-544 167.2793,-544 167.2793,-550 161.2793,-556 155.2793,-556 155.2793,-556 45.73,-556 45.73,-556 39.73,-556 33.73,-550 33.73,-544 33.73,-544 33.73,-437 33.73,-437 33.73,-431 39.73,-425 45.73,-425"/>
<text text-anchor="middle" x="100.5046" y="-539.4" font-family="Times,serif" font-size="14.00" fill="#f0f0f0">Context</text>
</g>
<g id="clust2" class="cluster">
<title>clusterIClayToken</title>
<path fill="#445773" stroke="#445773" d="M464.8713,-680C464.8713,-680 579.7628,-680 579.7628,-680 585.7628,-680 591.7628,-686 591.7628,-692 591.7628,-692 591.7628,-961 591.7628,-961 591.7628,-967 585.7628,-973 579.7628,-973 579.7628,-973 464.8713,-973 464.8713,-973 458.8713,-973 452.8713,-967 452.8713,-961 452.8713,-961 452.8713,-692 452.8713,-692 452.8713,-686 458.8713,-680 464.8713,-680"/>
<text text-anchor="middle" x="522.3171" y="-956.4" font-family="Times,serif" font-size="14.00" fill="#f0f0f0">IClayToken  (iface)</text>
</g>
<g id="clust3" class="cluster">
<title>clusterOwnable</title>
<path fill="#445773" stroke="#445773" d="M41.5378,-1506C41.5378,-1506 606.0365,-1506 606.0365,-1506 612.0365,-1506 618.0365,-1512 618.0365,-1518 618.0365,-1518 618.0365,-1733 618.0365,-1733 618.0365,-1739 612.0365,-1745 606.0365,-1745 606.0365,-1745 41.5378,-1745 41.5378,-1745 35.5378,-1745 29.5378,-1739 29.5378,-1733 29.5378,-1733 29.5378,-1518 29.5378,-1518 29.5378,-1512 35.5378,-1506 41.5378,-1506"/>
<text text-anchor="middle" x="323.7871" y="-1728.4" font-family="Times,serif" font-size="14.00" fill="#f0f0f0">Ownable</text>
</g>
<g id="clust4" class="cluster">
<title>clusterPausable</title>
<path fill="#445773" stroke="#445773" d="M229.9345,-8C229.9345,-8 717.7384,-8 717.7384,-8 723.7384,-8 729.7384,-14 729.7384,-20 729.7384,-20 729.7384,-305 729.7384,-305 729.7384,-311 723.7384,-317 717.7384,-317 717.7384,-317 229.9345,-317 229.9345,-317 223.9345,-317 217.9345,-311 217.9345,-305 217.9345,-305 217.9345,-20 217.9345,-20 217.9345,-14 223.9345,-8 229.9345,-8"/>
<text text-anchor="middle" x="473.8365" y="-300.4" font-family="Times,serif" font-size="14.00" fill="#f0f0f0">Pausable</text>
</g>
<g id="clust5" class="cluster">
<title>clusterReentrancyGuard</title>
<path fill="#445773" stroke="#445773" d="M32.2475,-1753C32.2475,-1753 168.7617,-1753 168.7617,-1753 174.7617,-1753 180.7617,-1759 180.7617,-1765 180.7617,-1765 180.7617,-1880 180.7617,-1880 180.7617,-1886 174.7617,-1892 168.7617,-1892 168.7617,-1892 32.2475,-1892 32.2475,-1892 26.2475,-1892 20.2475,-1886 20.2475,-1880 20.2475,-1880 20.2475,-1765 20.2475,-1765 20.2475,-1759 26.2475,-1753 32.2475,-1753"/>
<text text-anchor="middle" x="100.5046" y="-1875.4" font-family="Times,serif" font-size="14.00" fill="#f0f0f0">ReentrancyGuard</text>
</g>
<g id="clust6" class="cluster">
<title>clusterIERC20</title>
<path fill="#445773" stroke="#445773" d="M464.8713,-325C464.8713,-325 579.7628,-325 579.7628,-325 585.7628,-325 591.7628,-331 591.7628,-337 591.7628,-337 591.7628,-660 591.7628,-660 591.7628,-666 585.7628,-672 579.7628,-672 579.7628,-672 464.8713,-672 464.8713,-672 458.8713,-672 452.8713,-666 452.8713,-660 452.8713,-660 452.8713,-337 452.8713,-337 452.8713,-331 458.8713,-325 464.8713,-325"/>
<text text-anchor="middle" x="522.3171" y="-655.4" font-family="Times,serif" font-size="14.00" fill="#f0f0f0">IERC20  (iface)</text>
</g>
<g id="clust7" class="cluster">
<title>clusterClayStakingRewards</title>
<path fill="#445773" stroke="#445773" d="M20,-981C20,-981 593.6978,-981 593.6978,-981 599.6978,-981 605.6978,-987 605.6978,-993 605.6978,-993 605.6978,-1486 605.6978,-1486 605.6978,-1492 599.6978,-1498 593.6978,-1498 593.6978,-1498 20,-1498 20,-1498 14,-1498 8,-1492 8,-1486 8,-1486 8,-993 8,-993 8,-987 14,-981 20,-981"/>
<text text-anchor="middle" x="306.8489" y="-1481.4" font-family="Times,serif" font-size="14.00" fill="#f0f0f0">ClayStakingRewards</text>
</g>
<g id="clust8" class="cluster">
<title>cluster_01</title>
<polygon fill="#2e3e56" stroke="#000000" points="27.5046,-1900 27.5046,-2029 344.8034,-2029 344.8034,-1900 27.5046,-1900"/>
<text text-anchor="middle" x="186.154" y="-2012.4" font-family="Times,serif" font-size="14.00" fill="#000000">Legend</text>
</g>
<!-- Context._msgSender -->
<g id="node1" class="node">
<title>Context._msgSender</title>
<ellipse fill="#f2c383" stroke="#f2c383" stroke-width="3" cx="100.5046" cy="-505" rx="58.5502" ry="18"/>
<text text-anchor="middle" x="100.5046" y="-500.8" font-family="Times,serif" font-size="14.00" fill="#000000">_msgSender</text>
</g>
<!-- Context._msgData -->
<g id="node2" class="node">
<title>Context._msgData</title>
<ellipse fill="#f2c383" stroke="#f2c383" stroke-width="3" cx="100.5046" cy="-451" rx="50.38" ry="18"/>
<text text-anchor="middle" x="100.5046" y="-446.8" font-family="Times,serif" font-size="14.00" fill="#000000">_msgData</text>
</g>
<!-- IClayToken.mint -->
<g id="node3" class="node">
<title>IClayToken.mint</title>
<ellipse fill="#edad56" stroke="#edad56" stroke-width="3" cx="522.3171" cy="-922" rx="28.991" ry="18"/>
<text text-anchor="middle" x="522.3171" y="-917.8" font-family="Times,serif" font-size="14.00" fill="#000000">mint</text>
</g>
<!-- IClayToken.burn -->
<g id="node4" class="node">
<title>IClayToken.burn</title>
<ellipse fill="#ffbdb9" stroke="#ffbdb9" stroke-width="3" cx="522.3171" cy="-868" rx="28.9754" ry="18"/>
<text text-anchor="middle" x="522.3171" y="-863.8" font-family="Times,serif" font-size="14.00" fill="#000000">burn</text>
</g>
<!-- IClayToken.balanceOf -->
<g id="node5" class="node">
<title>IClayToken.balanceOf</title>
<ellipse fill="#ffbdb9" stroke="#ffbdb9" stroke-width="3" cx="522.3171" cy="-814" rx="50.9211" ry="18"/>
<text text-anchor="middle" x="522.3171" y="-809.8" font-family="Times,serif" font-size="14.00" fill="#000000">balanceOf</text>
</g>
<!-- IClayToken.transferFrom -->
<g id="node6" class="node">
<title>IClayToken.transferFrom</title>
<ellipse fill="#ffbdb9" stroke="#ffbdb9" stroke-width="3" cx="522.3171" cy="-760" rx="61.3916" ry="18"/>
<text text-anchor="middle" x="522.3171" y="-755.8" font-family="Times,serif" font-size="14.00" fill="#000000">transferFrom</text>
</g>
<!-- IClayToken.totalSupply -->
<g id="node7" class="node">
<title>IClayToken.totalSupply</title>
<ellipse fill="#ffbdb9" stroke="#ffbdb9" stroke-width="3" cx="522.3171" cy="-706" rx="55.6372" ry="18"/>
<text text-anchor="middle" x="522.3171" y="-701.8" font-family="Times,serif" font-size="14.00" fill="#000000">totalSupply</text>
</g>
<!-- Ownable.&lt;Constructor&gt; -->
<g id="node8" class="node">
<title>Ownable.&lt;Constructor&gt;</title>
<ellipse fill="#ff9797" stroke="#ff9797" stroke-width="3" cx="309.8034" cy="-1640" rx="67.5419" ry="18"/>
<text text-anchor="middle" x="309.8034" y="-1635.8" font-family="Times,serif" font-size="14.00" fill="#000000">&lt;Constructor&gt;</text>
</g>
<!-- Ownable._transferOwnership -->
<g id="node14" class="node">
<title>Ownable._transferOwnership</title>
<ellipse fill="#edad56" stroke="#edad56" stroke-width="3" cx="522.3171" cy="-1586" rx="87.9394" ry="18"/>
<text text-anchor="middle" x="522.3171" y="-1581.8" font-family="Times,serif" font-size="14.00" fill="#000000">_transferOwnership</text>
</g>
<!-- Ownable.&lt;Constructor&gt;&#45;&gt;Ownable._transferOwnership -->
<g id="edge1" class="edge">
<title>Ownable.&lt;Constructor&gt;-&gt;Ownable._transferOwnership</title>
<path fill="none" stroke="#1bc6a6" stroke-width="2" d="M358.8252,-1627.5435C388.0258,-1620.1236 425.4463,-1610.615 457.1164,-1602.5676"/>
<polygon fill="#1bc6a6" stroke="#1bc6a6" stroke-width="2" points="458.3491,-1605.8656 467.1792,-1600.0106 456.6252,-1599.0812 458.3491,-1605.8656"/>
</g>
<!-- Ownable._msgSender -->
<g id="node15" class="node">
<title>Ownable._msgSender</title>
<ellipse fill="#edad56" stroke="#edad56" stroke-width="3" cx="522.3171" cy="-1640" rx="58.5502" ry="18"/>
<text text-anchor="middle" x="522.3171" y="-1635.8" font-family="Times,serif" font-size="14.00" fill="#000000">_msgSender</text>
</g>
<!-- Ownable.&lt;Constructor&gt;&#45;&gt;Ownable._msgSender -->
<g id="edge2" class="edge">
<title>Ownable.&lt;Constructor&gt;-&gt;Ownable._msgSender</title>
<path fill="none" stroke="#1bc6a6" stroke-width="2" d="M377.3361,-1640C401.4764,-1640 428.706,-1640 452.9949,-1640"/>
<polygon fill="#1bc6a6" stroke="#1bc6a6" stroke-width="2" points="453.2068,-1643.5001 463.2068,-1640 453.2067,-1636.5001 453.2068,-1643.5001"/>
</g>
<!-- Ownable.onlyOwner -->
<g id="node9" class="node">
<title>Ownable.onlyOwner</title>
<polygon fill="#edad56" stroke="#1bc6a6" stroke-width="3" points="159.4404,-1682.5442 159.4404,-1697.4558 124.9166,-1708 76.0926,-1708 41.5688,-1697.4558 41.5688,-1682.5442 76.0926,-1672 124.9166,-1672 159.4404,-1682.5442"/>
<polygon fill="none" stroke="#1bc6a6" stroke-width="3" points="163.4383,-1679.583 163.4383,-1700.417 125.5132,-1712 75.496,-1712 37.5709,-1700.417 37.5709,-1679.583 75.496,-1668 125.5132,-1668 163.4383,-1679.583"/>
<text text-anchor="middle" x="100.5046" y="-1685.8" font-family="Times,serif" font-size="14.00" fill="#000000">onlyOwner</text>
</g>
<!-- Ownable._checkOwner -->
<g id="node11" class="node">
<title>Ownable._checkOwner</title>
<ellipse fill="#edad56" stroke="#edad56" stroke-width="3" cx="309.8034" cy="-1694" rx="64.8099" ry="18"/>
<text text-anchor="middle" x="309.8034" y="-1689.8" font-family="Times,serif" font-size="14.00" fill="#000000">_checkOwner</text>
</g>
<!-- Ownable.onlyOwner&#45;&gt;Ownable._checkOwner -->
<g id="edge3" class="edge">
<title>Ownable.onlyOwner-&gt;Ownable._checkOwner</title>
<path fill="none" stroke="#1bc6a6" stroke-width="2" d="M163.585,-1691.2056C186.0226,-1691.6344 211.5045,-1692.1214 234.8396,-1692.5673"/>
<polygon fill="#1bc6a6" stroke="#1bc6a6" stroke-width="2" points="234.9762,-1696.0705 245.0413,-1692.7623 235.11,-1689.0718 234.9762,-1696.0705"/>
</g>
<!-- Ownable.owner -->
<g id="node10" class="node">
<title>Ownable.owner</title>
<ellipse fill="#edad56" stroke="#edad56" stroke-width="3" cx="522.3171" cy="-1694" rx="35.3334" ry="18"/>
<text text-anchor="middle" x="522.3171" y="-1689.8" font-family="Times,serif" font-size="14.00" fill="#000000">owner</text>
</g>
<!-- Ownable._checkOwner&#45;&gt;Ownable.owner -->
<g id="edge4" class="edge">
<title>Ownable._checkOwner-&gt;Ownable.owner</title>
<path fill="none" stroke="#1bc6a6" stroke-width="2" d="M374.7193,-1694C407.8037,-1694 447.223,-1694 476.9983,-1694"/>
<polygon fill="#1bc6a6" stroke="#1bc6a6" stroke-width="2" points="477.1019,-1697.5001 487.1018,-1694 477.1018,-1690.5001 477.1019,-1697.5001"/>
</g>
<!-- Ownable._checkOwner&#45;&gt;Ownable._msgSender -->
<g id="edge5" class="edge">
<title>Ownable._checkOwner-&gt;Ownable._msgSender</title>
<path fill="none" stroke="#1bc6a6" stroke-width="2" d="M357.7606,-1681.814C390.2955,-1673.5469 433.392,-1662.596 467.3196,-1653.9749"/>
<polygon fill="#1bc6a6" stroke="#1bc6a6" stroke-width="2" points="468.2497,-1657.3499 477.0798,-1651.4949 466.5258,-1650.5655 468.2497,-1657.3499"/>
</g>
<!-- Ownable.renounceOwnership -->
<g id="node12" class="node">
<title>Ownable.renounceOwnership</title>
<ellipse fill="#ff9797" stroke="#ff9797" stroke-width="3" cx="309.8034" cy="-1586" rx="88.5889" ry="18"/>
<text text-anchor="middle" x="309.8034" y="-1581.8" font-family="Times,serif" font-size="14.00" fill="#000000">renounceOwnership</text>
</g>
<!-- Ownable.renounceOwnership&#45;&gt;Ownable._transferOwnership -->
<g id="edge6" class="edge">
<title>Ownable.renounceOwnership-&gt;Ownable._transferOwnership</title>
<path fill="none" stroke="#1bc6a6" stroke-width="2" d="M398.697,-1586C407.199,-1586 415.8534,-1586 424.4345,-1586"/>
<polygon fill="#1bc6a6" stroke="#1bc6a6" stroke-width="2" points="424.4608,-1589.5001 434.4608,-1586 424.4608,-1582.5001 424.4608,-1589.5001"/>
</g>
<!-- Ownable.transferOwnership -->
<g id="node13" class="node">
<title>Ownable.transferOwnership</title>
<ellipse fill="#ff9797" stroke="#ff9797" stroke-width="3" cx="309.8034" cy="-1532" rx="82.782" ry="18"/>
<text text-anchor="middle" x="309.8034" y="-1527.8" font-family="Times,serif" font-size="14.00" fill="#000000">transferOwnership</text>
</g>
<!-- Ownable.transferOwnership&#45;&gt;Ownable._transferOwnership -->
<g id="edge7" class="edge">
<title>Ownable.transferOwnership-&gt;Ownable._transferOwnership</title>
<path fill="none" stroke="#1bc6a6" stroke-width="2" d="M363.7043,-1545.6963C392.0973,-1552.911 427.1396,-1561.8153 457.0593,-1569.4179"/>
<polygon fill="#1bc6a6" stroke="#1bc6a6" stroke-width="2" points="456.4386,-1572.8713 466.9926,-1571.942 458.1626,-1566.0869 456.4386,-1572.8713"/>
</g>
<!-- Pausable.&lt;Constructor&gt; -->
<g id="node16" class="node">
<title>Pausable.&lt;Constructor&gt;</title>
<ellipse fill="#ff9797" stroke="#ff9797" stroke-width="3" cx="309.8034" cy="-266" rx="67.5419" ry="18"/>
<text text-anchor="middle" x="309.8034" y="-261.8" font-family="Times,serif" font-size="14.00" fill="#000000">&lt;Constructor&gt;</text>
</g>
<!-- Pausable.whenNotPaused -->
<g id="node17" class="node">
<title>Pausable.whenNotPaused</title>
<polygon fill="#edad56" stroke="#1bc6a6" stroke-width="3" points="389.5477,-200.5442 389.5477,-215.4558 342.8346,-226 276.7723,-226 230.0592,-215.4558 230.0592,-200.5442 276.7723,-190 342.8346,-190 389.5477,-200.5442"/>
<polygon fill="none" stroke="#1bc6a6" stroke-width="3" points="393.5415,-197.3453 393.5415,-218.6547 343.2791,-230 276.3278,-230 226.0654,-218.6547 226.0654,-197.3453 276.3278,-186 343.2791,-186 393.5415,-197.3453"/>
<text text-anchor="middle" x="309.8034" y="-203.8" font-family="Times,serif" font-size="14.00" fill="#000000">whenNotPaused</text>
</g>
<!-- Pausable._requireNotPaused -->
<g id="node20" class="node">
<title>Pausable._requireNotPaused</title>
<ellipse fill="#edad56" stroke="#edad56" stroke-width="3" cx="522.3171" cy="-206" rx="85.0928" ry="18"/>
<text text-anchor="middle" x="522.3171" y="-201.8" font-family="Times,serif" font-size="14.00" fill="#000000">_requireNotPaused</text>
</g>
<!-- Pausable.whenNotPaused&#45;&gt;Pausable._requireNotPaused -->
<g id="edge8" class="edge">
<title>Pausable.whenNotPaused-&gt;Pausable._requireNotPaused</title>
<path fill="none" stroke="#1bc6a6" stroke-width="2" d="M393.7945,-207.2095C404.7201,-207.1067 415.9746,-207.0008 427.0673,-206.8964"/>
<polygon fill="#1bc6a6" stroke="#1bc6a6" stroke-width="2" points="427.2283,-210.3951 437.1949,-206.8011 427.1624,-203.3955 427.2283,-210.3951"/>
</g>
<!-- Pausable.whenPaused -->
<g id="node18" class="node">
<title>Pausable.whenPaused</title>
<polygon fill="#edad56" stroke="#1bc6a6" stroke-width="3" points="374.1769,-138.5442 374.1769,-153.4558 336.4678,-164 283.1391,-164 245.43,-153.4558 245.43,-138.5442 283.1391,-128 336.4678,-128 374.1769,-138.5442"/>
<polygon fill="none" stroke="#1bc6a6" stroke-width="3" points="378.1882,-135.5115 378.1882,-156.4885 337.0196,-168 282.5873,-168 241.4187,-156.4885 241.4187,-135.5115 282.5873,-124 337.0196,-124 378.1882,-135.5115"/>
<text text-anchor="middle" x="309.8034" y="-141.8" font-family="Times,serif" font-size="14.00" fill="#000000">whenPaused</text>
</g>
<!-- Pausable._requirePaused -->
<g id="node21" class="node">
<title>Pausable._requirePaused</title>
<ellipse fill="#edad56" stroke="#edad56" stroke-width="3" cx="522.3171" cy="-148" rx="70.6258" ry="18"/>
<text text-anchor="middle" x="522.3171" y="-143.8" font-family="Times,serif" font-size="14.00" fill="#000000">_requirePaused</text>
</g>
<!-- Pausable.whenPaused&#45;&gt;Pausable._requirePaused -->
<g id="edge9" class="edge">
<title>Pausable.whenPaused-&gt;Pausable._requirePaused</title>
<path fill="none" stroke="#1bc6a6" stroke-width="2" d="M378.2139,-146.6438C398.3387,-146.8332 420.5471,-147.0422 441.3772,-147.2383"/>
<polygon fill="#1bc6a6" stroke="#1bc6a6" stroke-width="2" points="441.4444,-150.739 451.477,-147.3333 441.5104,-143.7393 441.4444,-150.739"/>
</g>
<!-- Pausable.paused -->
<g id="node19" class="node">
<title>Pausable.paused</title>
<ellipse fill="#edad56" stroke="#edad56" stroke-width="3" cx="683.8874" cy="-177" rx="37.7025" ry="18"/>
<text text-anchor="middle" x="683.8874" y="-172.8" font-family="Times,serif" font-size="14.00" fill="#000000">paused</text>
</g>
<!-- Pausable._requireNotPaused&#45;&gt;Pausable.paused -->
<g id="edge10" class="edge">
<title>Pausable._requireNotPaused-&gt;Pausable.paused</title>
<path fill="none" stroke="#1bc6a6" stroke-width="2" d="M587.5682,-194.2882C604.5234,-191.2449 622.4274,-188.0314 638.1385,-185.2114"/>
<polygon fill="#1bc6a6" stroke="#1bc6a6" stroke-width="2" points="638.89,-188.6325 648.1143,-183.4209 637.6532,-181.7426 638.89,-188.6325"/>
</g>
<!-- Pausable._requirePaused&#45;&gt;Pausable.paused -->
<g id="edge11" class="edge">
<title>Pausable._requirePaused-&gt;Pausable.paused</title>
<path fill="none" stroke="#1bc6a6" stroke-width="2" d="M580.1913,-158.3878C599.203,-161.8001 620.0602,-165.5437 638.0521,-168.7731"/>
<polygon fill="#1bc6a6" stroke="#1bc6a6" stroke-width="2" points="637.5389,-172.2368 648,-170.5586 638.7756,-165.3469 637.5389,-172.2368"/>
</g>
<!-- Pausable._pause -->
<g id="node22" class="node">
<title>Pausable._pause</title>
<ellipse fill="#f2c383" stroke="#f2c383" stroke-width="3" cx="309.8034" cy="-88" rx="37.7025" ry="18"/>
<text text-anchor="middle" x="309.8034" y="-83.8" font-family="Times,serif" font-size="14.00" fill="#000000">_pause</text>
</g>
<!-- Pausable._msgSender -->
<g id="node24" class="node">
<title>Pausable._msgSender</title>
<ellipse fill="#edad56" stroke="#edad56" stroke-width="3" cx="522.3171" cy="-61" rx="58.5502" ry="18"/>
<text text-anchor="middle" x="522.3171" y="-56.8" font-family="Times,serif" font-size="14.00" fill="#000000">_msgSender</text>
</g>
<!-- Pausable._pause&#45;&gt;Pausable._msgSender -->
<g id="edge12" class="edge">
<title>Pausable._pause-&gt;Pausable._msgSender</title>
<path fill="none" stroke="#1bc6a6" stroke-width="2" d="M346.8205,-83.297C377.3651,-79.4163 421.43,-73.8178 457.7629,-69.2017"/>
<polygon fill="#1bc6a6" stroke="#1bc6a6" stroke-width="2" points="458.3088,-72.6605 467.7879,-67.928 457.4265,-65.7163 458.3088,-72.6605"/>
</g>
<!-- Pausable._unpause -->
<g id="node23" class="node">
<title>Pausable._unpause</title>
<ellipse fill="#f2c383" stroke="#f2c383" stroke-width="3" cx="309.8034" cy="-34" rx="47.5158" ry="18"/>
<text text-anchor="middle" x="309.8034" y="-29.8" font-family="Times,serif" font-size="14.00" fill="#000000">_unpause</text>
</g>
<!-- Pausable._unpause&#45;&gt;Pausable._msgSender -->
<g id="edge13" class="edge">
<title>Pausable._unpause-&gt;Pausable._msgSender</title>
<path fill="none" stroke="#1bc6a6" stroke-width="2" d="M354.8721,-39.726C384.795,-43.5277 424.5385,-48.5772 457.7962,-52.8026"/>
<polygon fill="#1bc6a6" stroke="#1bc6a6" stroke-width="2" points="457.5299,-56.2968 467.8914,-54.0852 458.4123,-49.3526 457.5299,-56.2968"/>
</g>
<!-- ReentrancyGuard.&lt;Constructor&gt; -->
<g id="node25" class="node">
<title>ReentrancyGuard.&lt;Constructor&gt;</title>
<ellipse fill="#ff9797" stroke="#ff9797" stroke-width="3" cx="100.5046" cy="-1841" rx="67.5419" ry="18"/>
<text text-anchor="middle" x="100.5046" y="-1836.8" font-family="Times,serif" font-size="14.00" fill="#000000">&lt;Constructor&gt;</text>
</g>
<!-- ReentrancyGuard.nonReentrant -->
<g id="node26" class="node">
<title>ReentrancyGuard.nonReentrant</title>
<polygon fill="#edad56" stroke="#1bc6a6" stroke-width="3" points="168.5331,-1775.5442 168.5331,-1790.4558 128.6829,-1801 72.3263,-1801 32.4761,-1790.4558 32.4761,-1775.5442 72.3263,-1765 128.6829,-1765 168.5331,-1775.5442"/>
<polygon fill="none" stroke="#1bc6a6" stroke-width="3" points="172.5197,-1772.4622 172.5197,-1793.5378 129.1997,-1805 71.8095,-1805 28.4895,-1793.5378 28.4895,-1772.4622 71.8095,-1761 129.1997,-1761 172.5197,-1772.4622"/>
<text text-anchor="middle" x="100.5046" y="-1778.8" font-family="Times,serif" font-size="14.00" fill="#000000">nonReentrant</text>
</g>
<!-- IERC20.totalSupply -->
<g id="node27" class="node">
<title>IERC20.totalSupply</title>
<ellipse fill="#ffbdb9" stroke="#ffbdb9" stroke-width="3" cx="522.3171" cy="-621" rx="55.6372" ry="18"/>
<text text-anchor="middle" x="522.3171" y="-616.8" font-family="Times,serif" font-size="14.00" fill="#000000">totalSupply</text>
</g>
<!-- IERC20.balanceOf -->
<g id="node28" class="node">
<title>IERC20.balanceOf</title>
<ellipse fill="#ffbdb9" stroke="#ffbdb9" stroke-width="3" cx="522.3171" cy="-567" rx="50.9211" ry="18"/>
<text text-anchor="middle" x="522.3171" y="-562.8" font-family="Times,serif" font-size="14.00" fill="#000000">balanceOf</text>
</g>
<!-- IERC20.transfer -->
<g id="node29" class="node">
<title>IERC20.transfer</title>
<ellipse fill="#edad56" stroke="#edad56" stroke-width="3" cx="522.3171" cy="-513" rx="40.5441" ry="18"/>
<text text-anchor="middle" x="522.3171" y="-508.8" font-family="Times,serif" font-size="14.00" fill="#000000">transfer</text>
</g>
<!-- IERC20.allowance -->
<g id="node30" class="node">
<title>IERC20.allowance</title>
<ellipse fill="#ffbdb9" stroke="#ffbdb9" stroke-width="3" cx="522.3171" cy="-459" rx="50.3586" ry="18"/>
<text text-anchor="middle" x="522.3171" y="-454.8" font-family="Times,serif" font-size="14.00" fill="#000000">allowance</text>
</g>
<!-- IERC20.approve -->
<g id="node31" class="node">
<title>IERC20.approve</title>
<ellipse fill="#ffbdb9" stroke="#ffbdb9" stroke-width="3" cx="522.3171" cy="-405" rx="42.2777" ry="18"/>
<text text-anchor="middle" x="522.3171" y="-400.8" font-family="Times,serif" font-size="14.00" fill="#000000">approve</text>
</g>
<!-- IERC20.transferFrom -->
<g id="node32" class="node">
<title>IERC20.transferFrom</title>
<ellipse fill="#edad56" stroke="#edad56" stroke-width="3" cx="522.3171" cy="-351" rx="61.3916" ry="18"/>
<text text-anchor="middle" x="522.3171" y="-346.8" font-family="Times,serif" font-size="14.00" fill="#000000">transferFrom</text>
</g>
<!-- ClayStakingRewards.&lt;Constructor&gt; -->
<g id="node33" class="node">
<title>ClayStakingRewards.&lt;Constructor&gt;</title>
<ellipse fill="#ff9797" stroke="#ff9797" stroke-width="3" cx="100.5046" cy="-1447" rx="67.5419" ry="18"/>
<text text-anchor="middle" x="100.5046" y="-1442.8" font-family="Times,serif" font-size="14.00" fill="#000000">&lt;Constructor&gt;</text>
</g>
<!-- ClayStakingRewards.totalSupply -->
<g id="node34" class="node">
<title>ClayStakingRewards.totalSupply</title>
<ellipse fill="#ffbdb9" stroke="#ffbdb9" stroke-width="3" cx="100.5046" cy="-1393" rx="55.6372" ry="18"/>
<text text-anchor="middle" x="100.5046" y="-1388.8" font-family="Times,serif" font-size="14.00" fill="#000000">totalSupply</text>
</g>
<!-- ClayStakingRewards.balanceOf -->
<g id="node35" class="node">
<title>ClayStakingRewards.balanceOf</title>
<ellipse fill="#ffbdb9" stroke="#ffbdb9" stroke-width="3" cx="100.5046" cy="-1339" rx="50.9211" ry="18"/>
<text text-anchor="middle" x="100.5046" y="-1334.8" font-family="Times,serif" font-size="14.00" fill="#000000">balanceOf</text>
</g>
<!-- ClayStakingRewards.rewardPerToken -->
<g id="node36" class="node">
<title>ClayStakingRewards.rewardPerToken</title>
<ellipse fill="#edad56" stroke="#edad56" stroke-width="3" cx="522.3171" cy="-1280" rx="75.2616" ry="18"/>
<text text-anchor="middle" x="522.3171" y="-1275.8" font-family="Times,serif" font-size="14.00" fill="#000000">rewardPerToken</text>
</g>
<!-- ClayStakingRewards.earned -->
<g id="node37" class="node">
<title>ClayStakingRewards.earned</title>
<ellipse fill="#ff9797" stroke="#ff9797" stroke-width="3" cx="309.8034" cy="-1299" rx="36.5383" ry="18"/>
<text text-anchor="middle" x="309.8034" y="-1294.8" font-family="Times,serif" font-size="14.00" fill="#000000">earned</text>
</g>
<!-- ClayStakingRewards.earned&#45;&gt;ClayStakingRewards.rewardPerToken -->
<g id="edge14" class="edge">
<title>ClayStakingRewards.earned-&gt;ClayStakingRewards.rewardPerToken</title>
<path fill="none" stroke="#1bc6a6" stroke-width="2" d="M346.3358,-1295.7338C372.47,-1293.3972 408.679,-1290.1599 441.4615,-1287.229"/>
<polygon fill="#1bc6a6" stroke="#1bc6a6" stroke-width="2" points="441.8619,-1290.7072 451.5104,-1286.3305 441.2385,-1283.735 441.8619,-1290.7072"/>
</g>
<!-- ClayStakingRewards.updateReward -->
<g id="node38" class="node">
<title>ClayStakingRewards.updateReward</title>
<polygon fill="#edad56" stroke="#1bc6a6" stroke-width="3" points="172.6383,-1273.5442 172.6383,-1288.4558 130.3834,-1299 70.6259,-1299 28.3709,-1288.4558 28.3709,-1273.5442 70.6259,-1263 130.3834,-1263 172.6383,-1273.5442"/>
<polygon fill="none" stroke="#1bc6a6" stroke-width="3" points="176.6285,-1270.4178 176.6285,-1291.5822 130.8725,-1303 70.1367,-1303 24.3808,-1291.5822 24.3808,-1270.4178 70.1367,-1259 130.8725,-1259 176.6285,-1270.4178"/>
<text text-anchor="middle" x="100.5046" y="-1276.8" font-family="Times,serif" font-size="14.00" fill="#000000">updateReward</text>
</g>
<!-- ClayStakingRewards.updateReward&#45;&gt;ClayStakingRewards.rewardPerToken -->
<g id="edge15" class="edge">
<title>ClayStakingRewards.updateReward-&gt;ClayStakingRewards.rewardPerToken</title>
<path fill="none" stroke="#1bc6a6" stroke-width="2" d="M176.8889,-1274.2947C190.5466,-1273.3385 204.6537,-1272.5082 217.9345,-1272 298.1705,-1268.9298 318.3448,-1269.408 398.5977,-1272 412.1003,-1272.4361 426.4188,-1273.1393 440.3416,-1273.9523"/>
<polygon fill="#1bc6a6" stroke="#1bc6a6" stroke-width="2" points="440.1988,-1277.45 450.3922,-1274.5615 440.6223,-1270.4628 440.1988,-1277.45"/>
</g>
<!-- ClayStakingRewards.updateReward&#45;&gt;ClayStakingRewards.earned -->
<g id="edge16" class="edge">
<title>ClayStakingRewards.updateReward-&gt;ClayStakingRewards.earned</title>
<path fill="none" stroke="#1bc6a6" stroke-width="2" d="M176.6584,-1287.5493C205.7305,-1290.0496 237.9788,-1292.823 263.4561,-1295.0141"/>
<polygon fill="#1bc6a6" stroke="#1bc6a6" stroke-width="2" points="263.3119,-1298.5145 273.5751,-1295.8843 263.9118,-1291.5402 263.3119,-1298.5145"/>
</g>
<!-- ClayStakingRewards.stake -->
<g id="node39" class="node">
<title>ClayStakingRewards.stake</title>
<ellipse fill="#ffbdb9" stroke="#ffbdb9" stroke-width="3" cx="100.5046" cy="-1169" rx="30.7558" ry="18"/>
<text text-anchor="middle" x="100.5046" y="-1164.8" font-family="Times,serif" font-size="14.00" fill="#000000">stake</text>
</g>
<!-- ClayStakingRewards.stake&#45;&gt;IERC20.transferFrom -->
<g id="edge17" class="edge">
<title>ClayStakingRewards.stake-&gt;IERC20.transferFrom</title>
<path fill="none" stroke="#ffffff" stroke-width="2" d="M131.1224,-1166.2335C149.0239,-1163.077 170.8194,-1156.3431 185.0092,-1142 220.0027,-1106.6287 202.8256,-1082.4066 217.9345,-1035 311.3004,-742.0504 215.0271,-593.2335 434.5977,-378 441.1993,-371.5288 449.3138,-366.604 457.9165,-362.857"/>
<polygon fill="#ffffff" stroke="#ffffff" stroke-width="2" points="459.3021,-366.0745 467.3945,-359.236 456.8039,-359.5354 459.3021,-366.0745"/>
</g>
<!-- ClayStakingRewards.withdraw -->
<g id="node40" class="node">
<title>ClayStakingRewards.withdraw</title>
<ellipse fill="#ff9797" stroke="#ff9797" stroke-width="3" cx="309.8034" cy="-1062" rx="47.51" ry="18"/>
<text text-anchor="middle" x="309.8034" y="-1057.8" font-family="Times,serif" font-size="14.00" fill="#000000">withdraw</text>
</g>
<!-- ClayStakingRewards.withdraw&#45;&gt;IERC20.transfer -->
<g id="edge18" class="edge">
<title>ClayStakingRewards.withdraw-&gt;IERC20.transfer</title>
<path fill="none" stroke="#ffffff" stroke-width="2" d="M314.3236,-1043.7906C327.5296,-990.5121 367.106,-830.2842 398.5977,-697 415.059,-627.3296 385.8629,-592.4391 434.5977,-540 444.4611,-529.3868 458.3846,-522.9067 472.2396,-518.9626"/>
<polygon fill="#ffffff" stroke="#ffffff" stroke-width="2" points="473.3729,-522.2888 482.257,-516.516 471.7121,-515.4886 473.3729,-522.2888"/>
</g>
<!-- ClayStakingRewards.exit -->
<g id="node41" class="node">
<title>ClayStakingRewards.exit</title>
<ellipse fill="#ffbdb9" stroke="#ffbdb9" stroke-width="3" cx="100.5046" cy="-1223" rx="27" ry="18"/>
<text text-anchor="middle" x="100.5046" y="-1218.8" font-family="Times,serif" font-size="14.00" fill="#000000">exit</text>
</g>
<!-- ClayStakingRewards.exit&#45;&gt;ClayStakingRewards.withdraw -->
<g id="edge19" class="edge">
<title>ClayStakingRewards.exit-&gt;ClayStakingRewards.withdraw</title>
<path fill="none" stroke="#1bc6a6" stroke-width="2" d="M126.7565,-1218.2461C144.2409,-1214.2374 167.1894,-1207.2993 185.0092,-1196 188.111,-1194.0332 251.8003,-1125.0399 286.9623,-1086.8421"/>
<polygon fill="#1bc6a6" stroke="#1bc6a6" stroke-width="2" points="289.8045,-1088.9223 294.0004,-1079.1937 284.6535,-1084.1823 289.8045,-1088.9223"/>
</g>
<!-- ClayStakingRewards.getReward -->
<g id="node42" class="node">
<title>ClayStakingRewards.getReward</title>
<ellipse fill="#edad56" stroke="#edad56" stroke-width="3" cx="309.8034" cy="-1189" rx="52.7276" ry="18"/>
<text text-anchor="middle" x="309.8034" y="-1184.8" font-family="Times,serif" font-size="14.00" fill="#000000">getReward</text>
</g>
<!-- ClayStakingRewards.exit&#45;&gt;ClayStakingRewards.getReward -->
<g id="edge20" class="edge">
<title>ClayStakingRewards.exit-&gt;ClayStakingRewards.getReward</title>
<path fill="none" stroke="#1bc6a6" stroke-width="2" d="M127.0125,-1218.6939C158.2452,-1213.6202 211.0528,-1205.0418 251.9005,-1198.4062"/>
<polygon fill="#1bc6a6" stroke="#1bc6a6" stroke-width="2" points="252.6981,-1201.8226 262.0075,-1196.7643 251.5756,-1194.9131 252.6981,-1201.8226"/>
</g>
<!-- ClayStakingRewards.getReward&#45;&gt;IClayToken.mint -->
<g id="edge21" class="edge">
<title>ClayStakingRewards.getReward-&gt;IClayToken.mint</title>
<path fill="none" stroke="#ffffff" stroke-width="2" d="M329.0185,-1172.0103C348.9716,-1153.4227 379.841,-1121.8693 398.5977,-1089 424.512,-1043.5877 402.5039,-1018.2773 434.5977,-977 448.597,-958.9948 470.2679,-945.3266 488.5667,-936.1194"/>
<polygon fill="#ffffff" stroke="#ffffff" stroke-width="2" points="490.2627,-939.1879 497.77,-931.7119 487.2391,-932.8745 490.2627,-939.1879"/>
</g>
<!-- ClayStakingRewards.pause -->
<g id="node43" class="node">
<title>ClayStakingRewards.pause</title>
<ellipse fill="#ffbdb9" stroke="#ffbdb9" stroke-width="3" cx="100.5046" cy="-1115" rx="33.045" ry="18"/>
<text text-anchor="middle" x="100.5046" y="-1110.8" font-family="Times,serif" font-size="14.00" fill="#000000">pause</text>
</g>
<!-- ClayStakingRewards.pause&#45;&gt;Pausable._pause -->
<g id="edge22" class="edge">
<title>ClayStakingRewards.pause-&gt;Pausable._pause</title>
<path fill="none" stroke="#1bc6a6" stroke-width="2" d="M133.4113,-1113.3566C151.6581,-1110.5766 173.022,-1103.8445 185.0092,-1088 250.2743,-1001.7337 151.6642,-200.4965 217.9345,-115 228.3926,-101.5078 245.2425,-94.4954 261.6736,-90.9352"/>
<polygon fill="#1bc6a6" stroke="#1bc6a6" stroke-width="2" points="262.5559,-94.3334 271.7892,-89.1376 261.3311,-87.4413 262.5559,-94.3334"/>
</g>
<!-- ClayStakingRewards.unpause -->
<g id="node44" class="node">
<title>ClayStakingRewards.unpause</title>
<ellipse fill="#ffbdb9" stroke="#ffbdb9" stroke-width="3" cx="100.5046" cy="-1061" rx="42.8596" ry="18"/>
<text text-anchor="middle" x="100.5046" y="-1056.8" font-family="Times,serif" font-size="14.00" fill="#000000">unpause</text>
</g>
<!-- ClayStakingRewards.unpause&#45;&gt;Pausable._unpause -->
<g id="edge23" class="edge">
<title>ClayStakingRewards.unpause-&gt;Pausable._unpause</title>
<path fill="none" stroke="#1bc6a6" stroke-width="2" d="M142.5165,-1057.6624C158.3653,-1054.1432 174.9734,-1047.2651 185.0092,-1034 250.2743,-947.7337 151.6642,-146.4965 217.9345,-61 226.5396,-49.8985 239.4719,-43.1839 252.9377,-39.1697"/>
<polygon fill="#1bc6a6" stroke="#1bc6a6" stroke-width="2" points="253.9351,-42.528 262.7829,-36.6999 252.2318,-35.7384 253.9351,-42.528"/>
</g>
<!-- ClayStakingRewards.updateRewardRate -->
<g id="node45" class="node">
<title>ClayStakingRewards.updateRewardRate</title>
<ellipse fill="#ffbdb9" stroke="#ffbdb9" stroke-width="3" cx="100.5046" cy="-1007" rx="84.5092" ry="18"/>
<text text-anchor="middle" x="100.5046" y="-1002.8" font-family="Times,serif" font-size="14.00" fill="#000000">updateRewardRate</text>
</g>
<!-- key -->
<g id="node46" class="node">
<title>key</title>
<polygon fill="#edad56" stroke="transparent" stroke-width="3" points="165.5046,-1996 35.5046,-1996 35.5046,-1908 165.5046,-1908 165.5046,-1996"/>
<text text-anchor="start" x="85.1406" y="-1977.4" font-family="Times,serif" font-size="14.00" fill="#000000">Internal Call</text>
<text text-anchor="start" x="81.2486" y="-1957.4" font-family="Times,serif" font-size="14.00" fill="#000000">External Call</text>
<text text-anchor="start" x="58.71" y="-1937.4" font-family="Times,serif" font-size="14.00" fill="#000000">Defined Contract</text>
<text text-anchor="start" x="45.1073" y="-1917.4" font-family="Times,serif" font-size="14.00" fill="#000000">Undefined Contract</text>
</g>
<!-- key2 -->
<g id="node47" class="node">
<title>key2</title>
<polygon fill="#edad56" stroke="transparent" stroke-width="3" points="336.8034,-1996 282.8034,-1996 282.8034,-1908 336.8034,-1908 336.8034,-1996"/>
<text text-anchor="start" x="297.5625" y="-1977.4" font-family="Times,serif" font-size="14.00" fill="#000000">   </text>
<text text-anchor="start" x="297.5625" y="-1957.4" font-family="Times,serif" font-size="14.00" fill="#000000">   </text>
<polygon fill="#445773" stroke="transparent" points="295.8034,-1932 295.8034,-1952 323.8034,-1952 323.8034,-1932 295.8034,-1932"/>
<text text-anchor="start" x="297.5625" y="-1937.4" font-family="Times,serif" font-size="14.00" fill="#000000">   </text>
<polygon fill="none" stroke="#e8726d" points="297.8034,-1914 297.8034,-1930 321.8034,-1930 321.8034,-1914 297.8034,-1914"/>
</g>
<!-- key&#45;&gt;key2 -->
<g id="edge24" class="edge">
<title>key:e-&gt;key2:w</title>
<path fill="none" stroke="#1bc6a6" stroke-width="2" d="M157.5046,-1982C215.4893,-1982 232.4487,-1982 285.7859,-1982"/>
<polygon fill="#1bc6a6" stroke="#1bc6a6" stroke-width="2" points="285.8035,-1985.5001 295.8034,-1982 285.8034,-1978.5001 285.8035,-1985.5001"/>
</g>
<!-- key&#45;&gt;key2 -->
<g id="edge25" class="edge">
<title>key:e-&gt;key2:w</title>
<path fill="none" stroke="#ffffff" stroke-width="2" d="M157.5046,-1962C215.4893,-1962 232.4487,-1962 285.7859,-1962"/>
<polygon fill="#ffffff" stroke="#ffffff" stroke-width="2" points="285.8035,-1965.5001 295.8034,-1962 285.8034,-1958.5001 285.8035,-1965.5001"/>
</g>
</g>
</svg>