<?xml version="1.0" encoding="UTF-8" standalone="no"?><!DOCTYPE svg PUBLIC "-//W3C//DTD SVG 1.1//EN" "http://www.w3.org/Graphics/SVG/1.1/DTD/svg11.dtd"><!-- Generated by graphviz version 2.40.1 (20161225.0304)
 --><!-- Title: G Pages: 1 --><svg xmlns="http://www.w3.org/2000/svg" xmlns:xlink="http://www.w3.org/1999/xlink" width="1445pt" height="1540pt" viewBox="0.00 0.00 1445.40 1540.09">
<g id="graph0" class="graph" transform="scale(1 1) rotate(0) translate(4 1536.0911)">
<title>G</title>
<polygon fill="#2e3e56" stroke="transparent" points="-4,4 -4,-1536.0911 1441.4033,-1536.0911 1441.4033,4 -4,4"/>
<g id="clust1" class="cluster">
<title>clusterFeePayer</title>
<path fill="#445773" stroke="#445773" d="M20,-742.0911C20,-742.0911 1367.5011,-742.0911 1367.5011,-742.0911 1373.5011,-742.0911 1379.5011,-748.0911 1379.5011,-754.0911 1379.5011,-754.0911 1379.5011,-1265.0911 1379.5011,-1265.0911 1379.5011,-1271.0911 1373.5011,-1277.0911 1367.5011,-1277.0911 1367.5011,-1277.0911 20,-1277.0911 20,-1277.0911 14,-1277.0911 8,-1271.0911 8,-1265.0911 8,-1265.0911 8,-754.0911 8,-754.0911 8,-748.0911 14,-742.0911 20,-742.0911"/>
<text text-anchor="middle" x="693.7505" y="-1260.4911" font-family="Times,serif" font-size="14.00" fill="#f0f0f0">FeePayer</text>
</g>
<g id="clust2" class="cluster">
<title>clusterFixedPoint</title>
<path fill="#3b4b63" stroke="#e8726d" stroke-dasharray="5,2" d="M1226.8777,-549.0911C1226.8777,-549.0911 1384.6808,-549.0911 1384.6808,-549.0911 1390.6808,-549.0911 1396.6808,-555.0911 1396.6808,-561.0911 1396.6808,-561.0911 1396.6808,-722.0911 1396.6808,-722.0911 1396.6808,-728.0911 1390.6808,-734.0911 1384.6808,-734.0911 1384.6808,-734.0911 1226.8777,-734.0911 1226.8777,-734.0911 1220.8777,-734.0911 1214.8777,-728.0911 1214.8777,-722.0911 1214.8777,-722.0911 1214.8777,-561.0911 1214.8777,-561.0911 1214.8777,-555.0911 1220.8777,-549.0911 1226.8777,-549.0911"/>
<text text-anchor="middle" x="1305.7792" y="-717.4911" font-family="Times,serif" font-size="14.00" fill="#f0f0f0">FixedPoint</text>
</g>
<g id="clust3" class="cluster">
<title>clusterFixedPoint.Unsigned</title>
<path fill="#3b4b63" stroke="#e8726d" stroke-dasharray="5,2" d="M954.7952,-86.0911C954.7952,-86.0911 1079.3224,-86.0911 1079.3224,-86.0911 1085.3224,-86.0911 1091.3224,-92.0911 1091.3224,-98.0911 1091.3224,-98.0911 1091.3224,-529.0911 1091.3224,-529.0911 1091.3224,-535.0911 1085.3224,-541.0911 1079.3224,-541.0911 1079.3224,-541.0911 954.7952,-541.0911 954.7952,-541.0911 948.7952,-541.0911 942.7952,-535.0911 942.7952,-529.0911 942.7952,-529.0911 942.7952,-98.0911 942.7952,-98.0911 942.7952,-92.0911 948.7952,-86.0911 954.7952,-86.0911"/>
<text text-anchor="middle" x="1017.0588" y="-524.4911" font-family="Times,serif" font-size="14.00" fill="#f0f0f0">FixedPoint.Unsigned</text>
</g>
<g id="clust4" class="cluster">
<title>clusterIERC20</title>
<path fill="#3b4b63" stroke="#e8726d" stroke-dasharray="5,2" d="M920.4908,-1285.0911C920.4908,-1285.0911 1113.6268,-1285.0911 1113.6268,-1285.0911 1119.6268,-1285.0911 1125.6268,-1291.0911 1125.6268,-1297.0911 1125.6268,-1297.0911 1125.6268,-1512.0911 1125.6268,-1512.0911 1125.6268,-1518.0911 1119.6268,-1524.0911 1113.6268,-1524.0911 1113.6268,-1524.0911 920.4908,-1524.0911 920.4908,-1524.0911 914.4908,-1524.0911 908.4908,-1518.0911 908.4908,-1512.0911 908.4908,-1512.0911 908.4908,-1297.0911 908.4908,-1297.0911 908.4908,-1291.0911 914.4908,-1285.0911 920.4908,-1285.0911"/>
<text text-anchor="middle" x="1017.0588" y="-1507.4911" font-family="Times,serif" font-size="14.00" fill="#f0f0f0">IERC20</text>
</g>
<g id="clust5" class="cluster">
<title>clusterStoreInterface</title>
<path fill="#3b4b63" stroke="#e8726d" stroke-dasharray="5,2" d="M929.5934,-549.0911C929.5934,-549.0911 1104.5241,-549.0911 1104.5241,-549.0911 1110.5241,-549.0911 1116.5241,-555.0911 1116.5241,-561.0911 1116.5241,-561.0911 1116.5241,-722.0911 1116.5241,-722.0911 1116.5241,-728.0911 1110.5241,-734.0911 1104.5241,-734.0911 1104.5241,-734.0911 929.5934,-734.0911 929.5934,-734.0911 923.5934,-734.0911 917.5934,-728.0911 917.5934,-722.0911 917.5934,-722.0911 917.5934,-561.0911 917.5934,-561.0911 917.5934,-555.0911 923.5934,-549.0911 929.5934,-549.0911"/>
<text text-anchor="middle" x="1017.0588" y="-717.4911" font-family="Times,serif" font-size="14.00" fill="#f0f0f0">StoreInterface</text>
</g>
<g id="clust6" class="cluster">
<title>clusterFinderInterface</title>
<path fill="#3b4b63" stroke="#e8726d" stroke-dasharray="5,2" d="M1194.1551,-1285.0911C1194.1551,-1285.0911 1417.4033,-1285.0911 1417.4033,-1285.0911 1423.4033,-1285.0911 1429.4033,-1291.0911 1429.4033,-1297.0911 1429.4033,-1297.0911 1429.4033,-1350.0911 1429.4033,-1350.0911 1429.4033,-1356.0911 1423.4033,-1362.0911 1417.4033,-1362.0911 1417.4033,-1362.0911 1194.1551,-1362.0911 1194.1551,-1362.0911 1188.1551,-1362.0911 1182.1551,-1356.0911 1182.1551,-1350.0911 1182.1551,-1350.0911 1182.1551,-1297.0911 1182.1551,-1297.0911 1182.1551,-1291.0911 1188.1551,-1285.0911 1194.1551,-1285.0911"/>
<text text-anchor="middle" x="1305.7792" y="-1345.4911" font-family="Times,serif" font-size="14.00" fill="#f0f0f0">FinderInterface</text>
</g>
<g id="clust7" class="cluster">
<title>cluster_01</title>
<polygon fill="#2e3e56" stroke="#000000" points="25.9006,-1340.0911 25.9006,-1469.0911 429.5731,-1469.0911 429.5731,-1340.0911 25.9006,-1340.0911"/>
<text text-anchor="middle" x="227.7368" y="-1452.4911" font-family="Times,serif" font-size="14.00" fill="#000000">Legend</text>
</g>
<!-- FeePayer.fees -->
<g id="node1" class="node">
<title>FeePayer.fees</title>
<polygon fill="#edad56" stroke="#1bc6a6" stroke-width="3" points="127.4707,-1030.6352 127.4707,-1045.5469 110.7347,-1056.0911 87.0665,-1056.0911 70.3305,-1045.5469 70.3305,-1030.6352 87.0665,-1020.0911 110.7347,-1020.0911 127.4707,-1030.6352"/>
<polygon fill="none" stroke="#1bc6a6" stroke-width="3" points="131.4429,-1028.4194 131.4429,-1047.7627 111.8749,-1060.0911 85.9263,-1060.0911 66.3583,-1047.7627 66.3583,-1028.4194 85.9263,-1016.0911 111.8749,-1016.0911 131.4429,-1028.4194"/>
<text text-anchor="middle" x="98.9006" y="-1033.8911" font-family="Times,serif" font-size="14.00" fill="#000000">fees</text>
</g>
<!-- FeePayer.payRegularFees -->
<g id="node3" class="node">
<title>FeePayer.payRegularFees</title>
<ellipse fill="#edad56" stroke="#edad56" stroke-width="3" cx="394.5731" cy="-1038.0911" rx="73.4939" ry="18"/>
<text text-anchor="middle" x="394.5731" y="-1033.8911" font-family="Times,serif" font-size="14.00" fill="#000000">payRegularFees</text>
</g>
<!-- FeePayer.fees&#45;&gt;FeePayer.payRegularFees -->
<g id="edge1" class="edge">
<title>FeePayer.fees-&gt;FeePayer.payRegularFees</title>
<path fill="none" stroke="#1bc6a6" stroke-width="2" d="M131.6724,-1038.0911C174.5965,-1038.0911 251.3894,-1038.0911 310.9362,-1038.0911"/>
<polygon fill="#1bc6a6" stroke="#1bc6a6" stroke-width="2" points="311.0878,-1041.5912 321.0878,-1038.0911 311.0877,-1034.5912 311.0878,-1041.5912"/>
</g>
<!-- FeePayer.&lt;Constructor&gt; -->
<g id="node2" class="node">
<title>FeePayer.&lt;Constructor&gt;</title>
<ellipse fill="#ff9797" stroke="#ff9797" stroke-width="3" cx="394.5731" cy="-984.0911" rx="67.5419" ry="18"/>
<text text-anchor="middle" x="394.5731" y="-979.8911" font-family="Times,serif" font-size="14.00" fill="#000000">&lt;Constructor&gt;</text>
</g>
<!-- FeePayer.IERC20 -->
<g id="node18" class="node">
<title>FeePayer.IERC20</title>
<ellipse fill="#edad56" stroke="#edad56" stroke-width="3" cx="725.6537" cy="-1004.0911" rx="42.8771" ry="18"/>
<text text-anchor="middle" x="725.6537" y="-999.8911" font-family="Times,serif" font-size="14.00" fill="#000000">IERC20</text>
</g>
<!-- FeePayer.&lt;Constructor&gt;&#45;&gt;FeePayer.IERC20 -->
<g id="edge2" class="edge">
<title>FeePayer.&lt;Constructor&gt;-&gt;FeePayer.IERC20</title>
<path fill="none" stroke="#1bc6a6" stroke-width="2" d="M460.7765,-988.0903C523.1314,-991.857 615.3261,-997.4264 672.8731,-1000.9027"/>
<polygon fill="#1bc6a6" stroke="#1bc6a6" stroke-width="2" points="673.0073,-1004.4171 683.2002,-1001.5265 673.4294,-997.4298 673.0073,-1004.4171"/>
</g>
<!-- FeePayer.FinderInterface -->
<g id="node19" class="node">
<title>FeePayer.FinderInterface</title>
<ellipse fill="#edad56" stroke="#edad56" stroke-width="3" cx="725.6537" cy="-1112.0911" rx="70.6007" ry="18"/>
<text text-anchor="middle" x="725.6537" y="-1107.8911" font-family="Times,serif" font-size="14.00" fill="#000000">FinderInterface</text>
</g>
<!-- FeePayer.&lt;Constructor&gt;&#45;&gt;FeePayer.FinderInterface -->
<g id="edge3" class="edge">
<title>FeePayer.&lt;Constructor&gt;-&gt;FeePayer.FinderInterface</title>
<path fill="none" stroke="#1bc6a6" stroke-width="2" d="M460.6636,-979.9618C496.533,-980.9909 539.8479,-987.8941 571.345,-1011.0911 600.7944,-1032.78 578.7044,-1062.3447 607.345,-1085.0911 618.9398,-1094.2997 633.0852,-1100.4871 647.5067,-1104.6181"/>
<polygon fill="#1bc6a6" stroke="#1bc6a6" stroke-width="2" points="646.9529,-1108.0886 657.5071,-1107.1614 648.6782,-1101.3046 646.9529,-1108.0886"/>
</g>
<!-- FeePayer.getCurrentTime -->
<g id="node20" class="node">
<title>FeePayer.getCurrentTime</title>
<ellipse fill="#edad56" stroke="#edad56" stroke-width="3" cx="725.6537" cy="-950.0911" rx="72.9295" ry="18"/>
<text text-anchor="middle" x="725.6537" y="-945.8911" font-family="Times,serif" font-size="14.00" fill="#000000">getCurrentTime</text>
</g>
<!-- FeePayer.&lt;Constructor&gt;&#45;&gt;FeePayer.getCurrentTime -->
<g id="edge4" class="edge">
<title>FeePayer.&lt;Constructor&gt;-&gt;FeePayer.getCurrentTime</title>
<path fill="none" stroke="#1bc6a6" stroke-width="2" d="M457.6261,-977.6159C511.7852,-972.0541 590.0734,-964.0143 648.0667,-958.0588"/>
<polygon fill="#1bc6a6" stroke="#1bc6a6" stroke-width="2" points="648.6935,-961.5129 658.2836,-957.0096 647.9784,-954.5495 648.6935,-961.5129"/>
</g>
<!-- FixedPoint.fromUnscaledUint -->
<g id="node22" class="node">
<title>FixedPoint.fromUnscaledUint</title>
<ellipse fill="#edad56" stroke="#edad56" stroke-width="3" cx="1305.7792" cy="-575.0911" rx="82.8032" ry="18"/>
<text text-anchor="middle" x="1305.7792" y="-570.8911" font-family="Times,serif" font-size="14.00" fill="#000000">fromUnscaledUint</text>
</g>
<!-- FeePayer.&lt;Constructor&gt;&#45;&gt;FixedPoint.fromUnscaledUint -->
<g id="edge5" class="edge">
<title>FeePayer.&lt;Constructor&gt;-&gt;FixedPoint.fromUnscaledUint</title>
<path fill="none" stroke="#ffffff" stroke-width="2" d="M455.1807,-992.105C493.9707,-993.5752 542.2991,-987.9481 571.345,-957.0911 631.6068,-893.0717 579.4018,-646.4527 607.345,-563.0911 670.6973,-374.0948 757.143,-361.5221 843.9625,-182.0911 864.5365,-139.5703 841.316,-109.2528 879.9625,-82.0911 929.8134,-47.0545 1105.1446,-45.8883 1154.1551,-82.0911 1231.9186,-139.5328 1286.3714,-450.8142 1301.5131,-546.8568"/>
<polygon fill="#ffffff" stroke="#ffffff" stroke-width="2" points="1298.0916,-547.6323 1303.0877,-556.9752 1305.0083,-546.5559 1298.0916,-547.6323"/>
</g>
<!-- FeePayer.getOutstandingRegularFees -->
<g id="node4" class="node">
<title>FeePayer.getOutstandingRegularFees</title>
<ellipse fill="#edad56" stroke="#edad56" stroke-width="3" cx="725.6537" cy="-768.0911" rx="118.1178" ry="18"/>
<text text-anchor="middle" x="725.6537" y="-763.8911" font-family="Times,serif" font-size="14.00" fill="#000000">getOutstandingRegularFees</text>
</g>
<!-- FeePayer.payRegularFees&#45;&gt;FeePayer.getOutstandingRegularFees -->
<g id="edge8" class="edge">
<title>FeePayer.payRegularFees-&gt;FeePayer.getOutstandingRegularFees</title>
<path fill="none" stroke="#1bc6a6" stroke-width="2" d="M461.3073,-1045.5189C498.5172,-1045.8012 542.9451,-1039.1078 571.345,-1011.0911 640.6293,-942.7414 540.5941,-865.9171 607.345,-795.0911 611.5105,-790.6712 616.2382,-786.9044 621.3485,-783.6996"/>
<polygon fill="#1bc6a6" stroke="#1bc6a6" stroke-width="2" points="623.1809,-786.6869 630.2784,-778.8207 619.8247,-780.5439 623.1809,-786.6869"/>
</g>
<!-- FeePayer._pfc -->
<g id="node9" class="node">
<title>FeePayer._pfc</title>
<ellipse fill="#edad56" stroke="#edad56" stroke-width="3" cx="1017.0588" cy="-954.0911" rx="28.3913" ry="18"/>
<text text-anchor="middle" x="1017.0588" y="-949.8911" font-family="Times,serif" font-size="14.00" fill="#000000">_pfc</text>
</g>
<!-- FeePayer.payRegularFees&#45;&gt;FeePayer._pfc -->
<g id="edge7" class="edge">
<title>FeePayer.payRegularFees-&gt;FeePayer._pfc</title>
<path fill="none" stroke="#1bc6a6" stroke-width="2" d="M420.3891,-1055.0311C459.0987,-1079.3121 535.3431,-1122.8693 607.345,-1139.0911 658.6409,-1150.6478 799.5304,-1167.2091 843.9625,-1139.0911 875.5453,-1119.1045 856.7315,-1092.3701 879.9625,-1063.0911 910.4503,-1024.6659 956.9512,-991.3867 987.1791,-972.0253"/>
<polygon fill="#1bc6a6" stroke="#1bc6a6" stroke-width="2" points="989.4025,-974.7615 996.002,-966.4731 985.6742,-968.837 989.4025,-974.7615"/>
</g>
<!-- FeePayer._getStore -->
<g id="node10" class="node">
<title>FeePayer._getStore</title>
<ellipse fill="#edad56" stroke="#edad56" stroke-width="3" cx="1017.0588" cy="-1090.0911" rx="48.0916" ry="18"/>
<text text-anchor="middle" x="1017.0588" y="-1085.8911" font-family="Times,serif" font-size="14.00" fill="#000000">_getStore</text>
</g>
<!-- FeePayer.payRegularFees&#45;&gt;FeePayer._getStore -->
<g id="edge12" class="edge">
<title>FeePayer.payRegularFees-&gt;FeePayer._getStore</title>
<path fill="none" stroke="#1bc6a6" stroke-width="2" d="M408.6612,-1056.049C439.6684,-1093.927 518.1969,-1181.1394 607.345,-1213.0911 656.8434,-1230.8319 800.7442,-1243.0413 843.9625,-1213.0911 881.416,-1187.1358 845.2054,-1146.5595 879.9625,-1117.0911 901.62,-1098.7289 932.1326,-1091.5134 958.8755,-1089.0903"/>
<polygon fill="#1bc6a6" stroke="#1bc6a6" stroke-width="2" points="959.1848,-1092.5773 968.914,-1088.383 958.6927,-1085.5946 959.1848,-1092.5773"/>
</g>
<!-- FeePayer._adjustCumulativeFeeMultiplier -->
<g id="node17" class="node">
<title>FeePayer._adjustCumulativeFeeMultiplier</title>
<ellipse fill="#edad56" stroke="#edad56" stroke-width="3" cx="1017.0588" cy="-1144.0911" rx="137.1927" ry="18"/>
<text text-anchor="middle" x="1017.0588" y="-1139.8911" font-family="Times,serif" font-size="14.00" fill="#000000">_adjustCumulativeFeeMultiplier</text>
</g>
<!-- FeePayer.payRegularFees&#45;&gt;FeePayer._adjustCumulativeFeeMultiplier -->
<g id="edge10" class="edge">
<title>FeePayer.payRegularFees-&gt;FeePayer._adjustCumulativeFeeMultiplier</title>
<path fill="none" stroke="#1bc6a6" stroke-width="2" d="M407.181,-1055.9271C436.677,-1095.8992 514.7418,-1191.9016 607.345,-1227.0911 705.6498,-1264.4472 741.4161,-1250.4058 843.9625,-1227.0911 894.5283,-1215.5945 947.5713,-1187.4116 981.4003,-1167.0731"/>
<polygon fill="#1bc6a6" stroke="#1bc6a6" stroke-width="2" points="983.2828,-1170.0246 989.9936,-1161.8261 979.6348,-1164.0502 983.2828,-1170.0246"/>
</g>
<!-- FeePayer.payRegularFees&#45;&gt;FeePayer.getCurrentTime -->
<g id="edge6" class="edge">
<title>FeePayer.payRegularFees-&gt;FeePayer.getCurrentTime</title>
<path fill="none" stroke="#1bc6a6" stroke-width="2" d="M468.0462,-1036.7179C501.0085,-1033.6716 539.5414,-1026.619 571.345,-1011.0911 591.1215,-1001.4352 587.933,-987.4603 607.345,-977.0911 620.7594,-969.9255 636.0158,-964.6542 651.0087,-960.7786"/>
<polygon fill="#1bc6a6" stroke="#1bc6a6" stroke-width="2" points="651.8946,-964.1655 660.8011,-958.4275 650.2603,-957.3589 651.8946,-964.1655"/>
</g>
<!-- FixedPoint.Unsigned.isEqual -->
<g id="node25" class="node">
<title>FixedPoint.Unsigned.isEqual</title>
<ellipse fill="#edad56" stroke="#edad56" stroke-width="3" cx="1017.0588" cy="-382.0911" rx="40.005" ry="18"/>
<text text-anchor="middle" x="1017.0588" y="-377.8911" font-family="Times,serif" font-size="14.00" fill="#000000">isEqual</text>
</g>
<!-- FeePayer.payRegularFees&#45;&gt;FixedPoint.Unsigned.isEqual -->
<g id="edge9" class="edge">
<title>FeePayer.payRegularFees-&gt;FixedPoint.Unsigned.isEqual</title>
<path fill="none" stroke="#ffffff" stroke-width="2" d="M460.3079,-1046.2177C498.1267,-1046.9795 543.5193,-1040.5384 571.345,-1011.0911 629.298,-949.7604 553.1884,-697.7986 607.345,-633.0911 677.4171,-549.3673 768.6368,-646.1215 843.9625,-567.0911 893.653,-514.9565 828.2879,-459.2598 879.9625,-409.0911 902.8496,-386.8709 938.3964,-380.354 967.5588,-379.2709"/>
<polygon fill="#ffffff" stroke="#ffffff" stroke-width="2" points="967.6385,-382.7702 977.5764,-379.0976 967.5173,-375.7712 967.6385,-382.7702"/>
</g>
<!-- FixedPoint.Unsigned.isGreaterThan -->
<g id="node26" class="node">
<title>FixedPoint.Unsigned.isGreaterThan</title>
<ellipse fill="#edad56" stroke="#edad56" stroke-width="3" cx="1017.0588" cy="-436.0911" rx="66.0281" ry="18"/>
<text text-anchor="middle" x="1017.0588" y="-431.8911" font-family="Times,serif" font-size="14.00" fill="#000000">isGreaterThan</text>
</g>
<!-- FeePayer.payRegularFees&#45;&gt;FixedPoint.Unsigned.isGreaterThan -->
<g id="edge11" class="edge">
<title>FeePayer.payRegularFees-&gt;FixedPoint.Unsigned.isGreaterThan</title>
<path fill="none" stroke="#ffffff" stroke-width="2" d="M468.0113,-1038.0187C504.0237,-1036.7141 545.1714,-1029.2529 571.345,-1002.0911 668.5085,-901.2588 516.2177,-795.41 607.345,-689.0911 678.3182,-606.2859 769.1704,-703.4639 843.9625,-624.0911 896.927,-567.8826 824.9647,-508.3118 879.9625,-454.0911 899.1782,-435.1468 927.5787,-427.5679 953.5543,-425.7926"/>
<polygon fill="#ffffff" stroke="#ffffff" stroke-width="2" points="953.8933,-429.2818 963.7432,-425.3794 953.6096,-422.2875 953.8933,-429.2818"/>
</g>
<!-- FeePayer.payRegularFees&#45;&gt;FixedPoint.Unsigned.isGreaterThan -->
<g id="edge15" class="edge">
<title>FeePayer.payRegularFees-&gt;FixedPoint.Unsigned.isGreaterThan</title>
<path fill="none" stroke="#ffffff" stroke-width="2" d="M440.9931,-1052.1353C481.3105,-1057.2777 538.278,-1054.4066 571.345,-1020.0911 668.5085,-919.2588 516.2177,-813.41 607.345,-707.0911 678.3182,-624.2859 769.1704,-721.4639 843.9625,-642.0911 896.927,-585.8826 824.9647,-526.3118 879.9625,-472.0911 896.9676,-455.3262 921.1657,-447.4621 944.5107,-443.6208"/>
<polygon fill="#ffffff" stroke="#ffffff" stroke-width="2" points="945.0334,-447.0818 954.44,-442.2066 944.0464,-440.1517 945.0334,-447.0818"/>
</g>
<!-- IERC20.safeIncreaseAllowance -->
<g id="node33" class="node">
<title>IERC20.safeIncreaseAllowance</title>
<ellipse fill="#edad56" stroke="#edad56" stroke-width="3" cx="1017.0588" cy="-1419.0911" rx="100.636" ry="18"/>
<text text-anchor="middle" x="1017.0588" y="-1414.8911" font-family="Times,serif" font-size="14.00" fill="#000000">safeIncreaseAllowance</text>
</g>
<!-- FeePayer.payRegularFees&#45;&gt;IERC20.safeIncreaseAllowance -->
<g id="edge13" class="edge">
<title>FeePayer.payRegularFees-&gt;IERC20.safeIncreaseAllowance</title>
<path fill="none" stroke="#ffffff" stroke-width="2" d="M410.0363,-1055.9186C443.3888,-1093.6689 525.6944,-1183.1202 607.345,-1243.0911 718.632,-1324.8293 750.1281,-1345.0913 879.9625,-1392.0911 895.263,-1397.6298 911.9579,-1402.1198 928.266,-1405.7302"/>
<polygon fill="#ffffff" stroke="#ffffff" stroke-width="2" points="927.846,-1409.2188 938.3541,-1407.8661 929.296,-1402.3706 927.846,-1409.2188"/>
</g>
<!-- IERC20.safeTransfer -->
<g id="node34" class="node">
<title>IERC20.safeTransfer</title>
<ellipse fill="#edad56" stroke="#edad56" stroke-width="3" cx="1017.0588" cy="-1473.0911" rx="59.0641" ry="18"/>
<text text-anchor="middle" x="1017.0588" y="-1468.8911" font-family="Times,serif" font-size="14.00" fill="#000000">safeTransfer</text>
</g>
<!-- FeePayer.payRegularFees&#45;&gt;IERC20.safeTransfer -->
<g id="edge16" class="edge">
<title>FeePayer.payRegularFees-&gt;IERC20.safeTransfer</title>
<path fill="none" stroke="#ffffff" stroke-width="2" d="M403.6179,-1055.9904C429.226,-1105.0848 506.9282,-1243.5536 607.345,-1324.0911 711.8487,-1407.9064 867.6931,-1447.048 953.934,-1463.2248"/>
<polygon fill="#ffffff" stroke="#ffffff" stroke-width="2" points="953.376,-1466.6808 963.843,-1465.0397 954.6371,-1459.7953 953.376,-1466.6808"/>
</g>
<!-- StoreInterface.payOracleFeesErc20 -->
<g id="node37" class="node">
<title>StoreInterface.payOracleFeesErc20</title>
<ellipse fill="#edad56" stroke="#edad56" stroke-width="3" cx="1017.0588" cy="-629.0911" rx="91.4307" ry="18"/>
<text text-anchor="middle" x="1017.0588" y="-624.8911" font-family="Times,serif" font-size="14.00" fill="#000000">payOracleFeesErc20</text>
</g>
<!-- FeePayer.payRegularFees&#45;&gt;StoreInterface.payOracleFeesErc20 -->
<g id="edge14" class="edge">
<title>FeePayer.payRegularFees-&gt;StoreInterface.payOracleFeesErc20</title>
<path fill="none" stroke="#ffffff" stroke-width="2" d="M460.7798,-1045.85C498.2832,-1046.3614 543.1881,-1039.7885 571.345,-1011.0911 656.1309,-924.6773 523.7858,-828.6916 607.345,-741.0911 681.1195,-663.7484 751.2564,-751.2902 843.9625,-698.0911 865.2863,-685.8544 858.729,-668.484 879.9625,-656.0911 893.1961,-648.3672 908.2455,-642.8112 923.409,-638.8234"/>
<polygon fill="#ffffff" stroke="#ffffff" stroke-width="2" points="924.4705,-642.1678 933.3721,-636.4223 922.8304,-635.3627 924.4705,-642.1678"/>
</g>
<!-- FeePayer.getOutstandingRegularFees&#45;&gt;FeePayer._pfc -->
<g id="edge18" class="edge">
<title>FeePayer.getOutstandingRegularFees-&gt;FeePayer._pfc</title>
<path fill="none" stroke="#1bc6a6" stroke-width="2" d="M808.1452,-781.0898C820.5351,-784.6835 832.865,-789.2617 843.9625,-795.0911 909.3446,-829.4357 968.7976,-894.692 998.0247,-929.9844"/>
<polygon fill="#1bc6a6" stroke="#1bc6a6" stroke-width="2" points="995.4226,-932.3316 1004.4586,-937.8634 1000.8445,-927.904 995.4226,-932.3316"/>
</g>
<!-- FeePayer.getOutstandingRegularFees&#45;&gt;FeePayer._getStore -->
<g id="edge17" class="edge">
<title>FeePayer.getOutstandingRegularFees-&gt;FeePayer._getStore</title>
<path fill="none" stroke="#1bc6a6" stroke-width="2" d="M820.5604,-778.8606C829.2646,-782.9077 837.2976,-788.2013 843.9625,-795.0911 902.5052,-855.6098 836.3019,-909.0943 879.9625,-981.0911 903.9279,-1020.6103 947.7644,-1051.6265 979.4274,-1070.3053"/>
<polygon fill="#1bc6a6" stroke="#1bc6a6" stroke-width="2" points="978.0033,-1073.5236 988.4173,-1075.4725 981.4916,-1067.4547 978.0033,-1073.5236"/>
</g>
<!-- FixedPoint.min -->
<g id="node23" class="node">
<title>FixedPoint.min</title>
<ellipse fill="#edad56" stroke="#edad56" stroke-width="3" cx="1305.7792" cy="-629.0911" rx="27" ry="18"/>
<text text-anchor="middle" x="1305.7792" y="-624.8911" font-family="Times,serif" font-size="14.00" fill="#000000">min</text>
</g>
<!-- FeePayer.getOutstandingRegularFees&#45;&gt;FixedPoint.min -->
<g id="edge25" class="edge">
<title>FeePayer.getOutstandingRegularFees-&gt;FixedPoint.min</title>
<path fill="none" stroke="#ffffff" stroke-width="2" d="M809.6482,-780.8327C903.6313,-794.6945 1055.5993,-804.9231 1154.1551,-729.0911 1184.6765,-705.6069 1153.4167,-672.7263 1182.1551,-647.0911 1206.3246,-625.5314 1243.6567,-619.8493 1270.9748,-620.6265"/>
<polygon fill="#ffffff" stroke="#ffffff" stroke-width="2" points="1271.0753,-624.1391 1281.2701,-621.2554 1271.5021,-617.1521 1271.0753,-624.1391"/>
</g>
<!-- FeePayer.getOutstandingRegularFees&#45;&gt;FixedPoint.min -->
<g id="edge29" class="edge">
<title>FeePayer.getOutstandingRegularFees-&gt;FixedPoint.min</title>
<path fill="none" stroke="#ffffff" stroke-width="2" d="M770.6672,-784.8014C855.4229,-807.4832 1040.38,-834.6333 1154.1551,-747.0911 1184.6765,-723.6069 1153.4167,-690.7263 1182.1551,-665.0911 1205.8905,-643.9187 1242.3197,-638.0586 1269.493,-635.3349"/>
<polygon fill="#ffffff" stroke="#ffffff" stroke-width="2" points="1270.137,-638.7905 1279.7736,-634.3875 1269.4946,-631.82 1270.137,-638.7905"/>
</g>
<!-- FeePayer.getOutstandingRegularFees&#45;&gt;FixedPoint.Unsigned.isEqual -->
<g id="edge19" class="edge">
<title>FeePayer.getOutstandingRegularFees-&gt;FixedPoint.Unsigned.isEqual</title>
<path fill="none" stroke="#ffffff" stroke-width="2" d="M741.4011,-749.9577C767.4688,-724.5546 819.1677,-676.83 843.9625,-624.0911 886.8634,-532.8397 809.925,-472.6311 879.9625,-400.0911 903.7772,-375.4253 943.084,-369.7654 973.5178,-371.1581"/>
<polygon fill="#ffffff" stroke="#ffffff" stroke-width="2" points="973.6413,-374.6768 983.8726,-371.9253 974.1585,-367.6959 973.6413,-374.6768"/>
</g>
<!-- FeePayer.getOutstandingRegularFees&#45;&gt;FixedPoint.Unsigned.isEqual -->
<g id="edge22" class="edge">
<title>FeePayer.getOutstandingRegularFees-&gt;FixedPoint.Unsigned.isEqual</title>
<path fill="none" stroke="#ffffff" stroke-width="2" d="M754.9199,-750.5766C782.6024,-727.891 822.9466,-686.7923 843.9625,-642.0911 886.8634,-550.8397 809.925,-490.6311 879.9625,-418.0911 902.27,-394.9865 938.1705,-388.558 967.6388,-386.4919"/>
<polygon fill="#ffffff" stroke="#ffffff" stroke-width="2" points="967.9732,-389.9787 977.7609,-385.9228 967.5802,-382.9897 967.9732,-389.9787"/>
</g>
<!-- FeePayer.getOutstandingRegularFees&#45;&gt;FixedPoint.Unsigned.isGreaterThan -->
<g id="edge23" class="edge">
<title>FeePayer.getOutstandingRegularFees-&gt;FixedPoint.Unsigned.isGreaterThan</title>
<path fill="none" stroke="#ffffff" stroke-width="2" d="M773.1692,-751.5459C798.2026,-740.3532 827.1258,-723.0065 843.9625,-698.0911 903.1232,-610.5431 806.8498,-539.3746 879.9625,-463.0911 895.8271,-446.5383 918.6643,-438.5277 941.1632,-435.008"/>
<polygon fill="#ffffff" stroke="#ffffff" stroke-width="2" points="941.6347,-438.4763 951.1056,-433.7274 940.7403,-431.5337 941.6347,-438.4763"/>
</g>
<!-- FixedPoint.Unsigned.add -->
<g id="node27" class="node">
<title>FixedPoint.Unsigned.add</title>
<ellipse fill="#edad56" stroke="#edad56" stroke-width="3" cx="1017.0588" cy="-166.0911" rx="27" ry="18"/>
<text text-anchor="middle" x="1017.0588" y="-161.8911" font-family="Times,serif" font-size="14.00" fill="#000000">add</text>
</g>
<!-- FeePayer.getOutstandingRegularFees&#45;&gt;FixedPoint.Unsigned.add -->
<g id="edge21" class="edge">
<title>FeePayer.getOutstandingRegularFees-&gt;FixedPoint.Unsigned.add</title>
<path fill="none" stroke="#ffffff" stroke-width="2" d="M732.2493,-749.8309C751.639,-695.6186 809.2689,-530.6206 843.9625,-390.0911 865.2954,-303.6799 817.4589,-256.4573 879.9625,-193.0911 905.8284,-166.8681 949.2393,-162.2533 980.2838,-162.8393"/>
<polygon fill="#ffffff" stroke="#ffffff" stroke-width="2" points="980.1708,-166.3374 990.2947,-163.2137 980.4325,-159.3423 980.1708,-166.3374"/>
</g>
<!-- FixedPoint.Unsigned.sub -->
<g id="node28" class="node">
<title>FixedPoint.Unsigned.sub</title>
<ellipse fill="#edad56" stroke="#edad56" stroke-width="3" cx="1017.0588" cy="-220.0911" rx="27" ry="18"/>
<text text-anchor="middle" x="1017.0588" y="-215.8911" font-family="Times,serif" font-size="14.00" fill="#000000">sub</text>
</g>
<!-- FeePayer.getOutstandingRegularFees&#45;&gt;FixedPoint.Unsigned.sub -->
<g id="edge24" class="edge">
<title>FeePayer.getOutstandingRegularFees-&gt;FixedPoint.Unsigned.sub</title>
<path fill="none" stroke="#ffffff" stroke-width="2" d="M728.7768,-749.8858C742.9265,-689.5586 802.1392,-511.3363 843.9625,-363.0911 861.7577,-300.0146 832.4267,-265.2094 879.9625,-220.0911 911.2623,-190.3829 965.2617,-188.9249 995.2998,-199.8604"/>
<polygon fill="#ffffff" stroke="#ffffff" stroke-width="2" points="993.9468,-203.0897 1004.5006,-204.0211 996.8311,-196.7115 993.9468,-203.0897"/>
</g>
<!-- FeePayer.getOutstandingRegularFees&#45;&gt;FixedPoint.Unsigned.sub -->
<g id="edge26" class="edge">
<title>FeePayer.getOutstandingRegularFees-&gt;FixedPoint.Unsigned.sub</title>
<path fill="none" stroke="#ffffff" stroke-width="2" d="M730.5789,-749.7797C747.3953,-694.076 803.7262,-523.7109 843.9625,-381.0911 861.7577,-318.0146 832.4267,-283.2094 879.9625,-238.0911 907.3488,-212.0974 952.1131,-207.7312 982.9999,-210.3251"/>
<polygon fill="#ffffff" stroke="#ffffff" stroke-width="2" points="982.9606,-213.8436 993.295,-211.5088 983.7603,-206.8894 982.9606,-213.8436"/>
</g>
<!-- FeePayer.getOutstandingRegularFees&#45;&gt;FixedPoint.Unsigned.sub -->
<g id="edge27" class="edge">
<title>FeePayer.getOutstandingRegularFees-&gt;FixedPoint.Unsigned.sub</title>
<path fill="none" stroke="#ffffff" stroke-width="2" d="M733.1696,-749.9878C752.5886,-696.3246 805.5933,-535.0928 843.9625,-399.0911 861.7577,-336.0146 832.4267,-301.2094 879.9625,-256.0911 906.5618,-230.8444 949.5548,-226 980.3036,-224.4123"/>
<polygon fill="#ffffff" stroke="#ffffff" stroke-width="2" points="980.7858,-227.8945 990.6223,-223.9584 980.4781,-220.9013 980.7858,-227.8945"/>
</g>
<!-- FeePayer.getOutstandingRegularFees&#45;&gt;FixedPoint.Unsigned.sub -->
<g id="edge28" class="edge">
<title>FeePayer.getOutstandingRegularFees-&gt;FixedPoint.Unsigned.sub</title>
<path fill="none" stroke="#ffffff" stroke-width="2" d="M736.7368,-750.1578C758.4751,-696.3582 807.7405,-545.482 843.9625,-417.0911 861.7577,-354.0146 832.4267,-319.2094 879.9625,-274.0911 909.5523,-246.006 959.4291,-243.1686 990.1696,-236.8731"/>
<polygon fill="#ffffff" stroke="#ffffff" stroke-width="2" points="991.2815,-240.2052 1000.1802,-234.455 989.6379,-233.4009 991.2815,-240.2052"/>
</g>
<!-- StoreInterface.computeRegularFee -->
<g id="node38" class="node">
<title>StoreInterface.computeRegularFee</title>
<ellipse fill="#edad56" stroke="#edad56" stroke-width="3" cx="1017.0588" cy="-575.0911" rx="88.6043" ry="18"/>
<text text-anchor="middle" x="1017.0588" y="-570.8911" font-family="Times,serif" font-size="14.00" fill="#000000">computeRegularFee</text>
</g>
<!-- FeePayer.getOutstandingRegularFees&#45;&gt;StoreInterface.computeRegularFee -->
<g id="edge20" class="edge">
<title>FeePayer.getOutstandingRegularFees-&gt;StoreInterface.computeRegularFee</title>
<path fill="none" stroke="#ffffff" stroke-width="2" d="M768.9369,-751.1908C793.834,-739.5472 824.0313,-721.8675 843.9625,-698.0911 873.2361,-663.1697 845.2054,-631.5595 879.9625,-602.0911 891.4981,-592.3107 905.546,-585.6926 920.1983,-581.2767"/>
<polygon fill="#ffffff" stroke="#ffffff" stroke-width="2" points="921.1389,-584.6483 929.8939,-578.6817 919.329,-577.8863 921.1389,-584.6483"/>
</g>
<!-- FeePayer.pfc -->
<g id="node5" class="node">
<title>FeePayer.pfc</title>
<ellipse fill="#ffbdb9" stroke="#ffbdb9" stroke-width="3" cx="725.6537" cy="-1058.0911" rx="27" ry="18"/>
<text text-anchor="middle" x="725.6537" y="-1053.8911" font-family="Times,serif" font-size="14.00" fill="#000000">pfc</text>
</g>
<!-- FeePayer.pfc&#45;&gt;FeePayer._pfc -->
<g id="edge30" class="edge">
<title>FeePayer.pfc-&gt;FeePayer._pfc</title>
<path fill="none" stroke="#1bc6a6" stroke-width="2" d="M751.9012,-1053.6171C776.1444,-1049.1303 812.9801,-1041.4086 843.9625,-1031.0911 895.3057,-1013.993 952.1521,-987.0669 986.2199,-970.0083"/>
<polygon fill="#1bc6a6" stroke="#1bc6a6" stroke-width="2" points="987.8511,-973.1056 995.2012,-965.4749 984.6968,-966.8565 987.8511,-973.1056"/>
</g>
<!-- FeePayer.gulp -->
<g id="node6" class="node">
<title>FeePayer.gulp</title>
<ellipse fill="#ffbdb9" stroke="#ffbdb9" stroke-width="3" cx="394.5731" cy="-930.0911" rx="28.4127" ry="18"/>
<text text-anchor="middle" x="394.5731" y="-925.8911" font-family="Times,serif" font-size="14.00" fill="#000000">gulp</text>
</g>
<!-- FeePayer._gulp -->
<g id="node8" class="node">
<title>FeePayer._gulp</title>
<ellipse fill="#edad56" stroke="#edad56" stroke-width="3" cx="725.6537" cy="-822.0911" rx="33.0682" ry="18"/>
<text text-anchor="middle" x="725.6537" y="-817.8911" font-family="Times,serif" font-size="14.00" fill="#000000">_gulp</text>
</g>
<!-- FeePayer.gulp&#45;&gt;FeePayer._gulp -->
<g id="edge31" class="edge">
<title>FeePayer.gulp-&gt;FeePayer._gulp</title>
<path fill="none" stroke="#1bc6a6" stroke-width="2" d="M422.7032,-932.459C459.7423,-934.1793 525.5224,-932.28 571.345,-903.0911 595.6729,-887.5942 583.5972,-865.4631 607.345,-849.0911 629.3291,-833.935 658.5444,-827.1681 682.442,-824.1985"/>
<polygon fill="#1bc6a6" stroke="#1bc6a6" stroke-width="2" points="683.0861,-827.6499 692.6612,-823.1148 682.3478,-820.689 683.0861,-827.6499"/>
</g>
<!-- FeePayer._payFinalFees -->
<g id="node7" class="node">
<title>FeePayer._payFinalFees</title>
<ellipse fill="#f2c383" stroke="#f2c383" stroke-width="3" cx="725.6537" cy="-1186.0911" rx="67.2139" ry="18"/>
<text text-anchor="middle" x="725.6537" y="-1181.8911" font-family="Times,serif" font-size="14.00" fill="#000000">_payFinalFees</text>
</g>
<!-- FeePayer._payFinalFees&#45;&gt;FeePayer._pfc -->
<g id="edge34" class="edge">
<title>FeePayer._payFinalFees-&gt;FeePayer._pfc</title>
<path fill="none" stroke="#1bc6a6" stroke-width="2" d="M789.2902,-1180.0199C808.7089,-1175.4365 828.8877,-1167.5579 843.9625,-1154.0911 876.3988,-1125.1145 854.0614,-1098.0323 879.9625,-1063.0911 909.2984,-1023.516 956.41,-990.3771 987.0501,-971.3776"/>
<polygon fill="#1bc6a6" stroke="#1bc6a6" stroke-width="2" points="988.8842,-974.3587 995.6093,-966.1719 985.2467,-968.378 988.8842,-974.3587"/>
</g>
<!-- FeePayer._payFinalFees&#45;&gt;FeePayer._getStore -->
<g id="edge37" class="edge">
<title>FeePayer._payFinalFees-&gt;FeePayer._getStore</title>
<path fill="none" stroke="#1bc6a6" stroke-width="2" d="M783.7776,-1176.8686C803.7773,-1172.0474 825.7131,-1164.8236 843.9625,-1154.0911 863.7397,-1142.46 859.792,-1128.0259 879.9625,-1117.0911 904.1554,-1103.9756 933.8279,-1097.182 959.3731,-1093.6828"/>
<polygon fill="#1bc6a6" stroke="#1bc6a6" stroke-width="2" points="959.8096,-1097.1556 969.3053,-1092.4565 958.9517,-1090.2084 959.8096,-1097.1556"/>
</g>
<!-- FeePayer._payFinalFees&#45;&gt;FeePayer._adjustCumulativeFeeMultiplier -->
<g id="edge36" class="edge">
<title>FeePayer._payFinalFees-&gt;FeePayer._adjustCumulativeFeeMultiplier</title>
<path fill="none" stroke="#1bc6a6" stroke-width="2" d="M784.9751,-1177.5411C822.182,-1172.1785 871.1507,-1165.1207 914.5136,-1158.8708"/>
<polygon fill="#1bc6a6" stroke="#1bc6a6" stroke-width="2" points="915.1382,-1162.3171 924.5366,-1157.4262 914.1395,-1155.3887 915.1382,-1162.3171"/>
</g>
<!-- FeePayer._payFinalFees&#45;&gt;FixedPoint.Unsigned.isEqual -->
<g id="edge32" class="edge">
<title>FeePayer._payFinalFees-&gt;FixedPoint.Unsigned.isEqual</title>
<path fill="none" stroke="#ffffff" stroke-width="2" d="M783.7097,-1176.8696C806.2016,-1170.2178 829.882,-1158.774 843.9625,-1139.0911 891.2117,-1073.0417 826.8544,-470.5284 879.9625,-409.0911 901.1781,-384.548 937.6406,-378.2791 967.6308,-377.8893"/>
<polygon fill="#ffffff" stroke="#ffffff" stroke-width="2" points="967.9039,-381.3917 977.9332,-377.9763 967.9631,-374.3919 967.9039,-381.3917"/>
</g>
<!-- FeePayer._payFinalFees&#45;&gt;FixedPoint.Unsigned.isGreaterThan -->
<g id="edge35" class="edge">
<title>FeePayer._payFinalFees-&gt;FixedPoint.Unsigned.isGreaterThan</title>
<path fill="none" stroke="#ffffff" stroke-width="2" d="M783.6718,-1176.8424C806.1573,-1170.1861 829.8434,-1158.7463 843.9625,-1139.0911 931.7285,-1016.9115 781.3603,-576.7059 879.9625,-463.0911 895.3366,-445.3761 918.655,-437.1913 941.7233,-433.8647"/>
<polygon fill="#ffffff" stroke="#ffffff" stroke-width="2" points="942.3867,-437.3116 951.9213,-432.6919 941.5869,-430.3574 942.3867,-437.3116"/>
</g>
<!-- FeePayer._payFinalFees&#45;&gt;IERC20.safeIncreaseAllowance -->
<g id="edge38" class="edge">
<title>FeePayer._payFinalFees-&gt;IERC20.safeIncreaseAllowance</title>
<path fill="none" stroke="#ffffff" stroke-width="2" d="M741.5082,-1203.7131C765.1163,-1230.3396 810.3336,-1282.8488 843.9625,-1331.0911 861.9646,-1356.9161 854.2692,-1373.9013 879.9625,-1392.0911 890.4545,-1399.519 902.4772,-1405.0286 914.9475,-1409.0959"/>
<polygon fill="#ffffff" stroke="#ffffff" stroke-width="2" points="913.9709,-1412.4569 924.5528,-1411.933 915.9538,-1405.7436 913.9709,-1412.4569"/>
</g>
<!-- IERC20.safeTransferFrom -->
<g id="node35" class="node">
<title>IERC20.safeTransferFrom</title>
<ellipse fill="#edad56" stroke="#edad56" stroke-width="3" cx="1017.0588" cy="-1365.0911" rx="80.4112" ry="18"/>
<text text-anchor="middle" x="1017.0588" y="-1360.8911" font-family="Times,serif" font-size="14.00" fill="#000000">safeTransferFrom</text>
</g>
<!-- FeePayer._payFinalFees&#45;&gt;IERC20.safeTransferFrom -->
<g id="edge33" class="edge">
<title>FeePayer._payFinalFees-&gt;IERC20.safeTransferFrom</title>
<path fill="none" stroke="#ffffff" stroke-width="2" d="M738.1645,-1204.0221C761.8186,-1236.438 816.4606,-1304.5328 879.9625,-1338.0911 895.978,-1346.5547 914.3148,-1352.378 932.2562,-1356.3813"/>
<polygon fill="#ffffff" stroke="#ffffff" stroke-width="2" points="931.665,-1359.8329 942.1656,-1358.4233 933.0778,-1352.977 931.665,-1359.8329"/>
</g>
<!-- FeePayer._payFinalFees&#45;&gt;StoreInterface.payOracleFeesErc20 -->
<g id="edge39" class="edge">
<title>FeePayer._payFinalFees-&gt;StoreInterface.payOracleFeesErc20</title>
<path fill="none" stroke="#ffffff" stroke-width="2" d="M783.4679,-1176.6943C805.9199,-1170.0136 829.6359,-1158.5956 843.9625,-1139.0911 907.6787,-1052.3461 808.5587,-736.6264 879.9625,-656.0911 889.6387,-645.1774 902.332,-637.9008 916.0916,-633.1549"/>
<polygon fill="#ffffff" stroke="#ffffff" stroke-width="2" points="917.1873,-636.4805 925.7638,-630.26 915.1801,-629.7744 917.1873,-636.4805"/>
</g>
<!-- FeePayer._gulp&#45;&gt;FeePayer._pfc -->
<g id="edge40" class="edge">
<title>FeePayer._gulp-&gt;FeePayer._pfc</title>
<path fill="none" stroke="#1bc6a6" stroke-width="2" d="M757.8814,-826.5759C782.1602,-830.6327 815.9411,-837.7422 843.9625,-849.0911 899.2872,-871.498 957.3838,-910.3836 990.2281,-934.0242"/>
<polygon fill="#1bc6a6" stroke="#1bc6a6" stroke-width="2" points="988.2624,-936.9223 998.4082,-939.974 992.3799,-931.2614 988.2624,-936.9223"/>
</g>
<!-- FixedPoint.Unsigned -->
<g id="node24" class="node">
<title>FixedPoint.Unsigned</title>
<ellipse fill="#edad56" stroke="#edad56" stroke-width="3" cx="1305.7792" cy="-683.0911" rx="48.0955" ry="18"/>
<text text-anchor="middle" x="1305.7792" y="-678.8911" font-family="Times,serif" font-size="14.00" fill="#000000">Unsigned</text>
</g>
<!-- FeePayer._gulp&#45;&gt;FixedPoint.Unsigned -->
<g id="edge41" class="edge">
<title>FeePayer._gulp-&gt;FixedPoint.Unsigned</title>
<path fill="none" stroke="#ffffff" stroke-width="2" d="M756.2918,-829.1855C831.259,-844.7189 1027.0677,-874.0811 1154.1551,-791.0911 1176.4611,-776.5249 1162.693,-756.2832 1182.1551,-738.0911 1202.9862,-718.6193 1231.8574,-705.2474 1256.4605,-696.5685"/>
<polygon fill="#ffffff" stroke="#ffffff" stroke-width="2" points="1257.6423,-699.8638 1266.0037,-693.3571 1255.4097,-693.2293 1257.6423,-699.8638"/>
</g>
<!-- FixedPoint.Unsigned.isLessThan -->
<g id="node29" class="node">
<title>FixedPoint.Unsigned.isLessThan</title>
<ellipse fill="#edad56" stroke="#edad56" stroke-width="3" cx="1017.0588" cy="-490.0911" rx="55.0323" ry="18"/>
<text text-anchor="middle" x="1017.0588" y="-485.8911" font-family="Times,serif" font-size="14.00" fill="#000000">isLessThan</text>
</g>
<!-- FeePayer._gulp&#45;&gt;FixedPoint.Unsigned.isLessThan -->
<g id="edge43" class="edge">
<title>FeePayer._gulp-&gt;FixedPoint.Unsigned.isLessThan</title>
<path fill="none" stroke="#ffffff" stroke-width="2" d="M758.691,-823.9886C785.6071,-823.6031 822.5439,-818.3271 843.9625,-795.0911 920.0465,-712.5508 810.5919,-633.3487 879.9625,-545.0911 898.6641,-521.2976 929.2559,-507.7531 956.8018,-500.0647"/>
<polygon fill="#ffffff" stroke="#ffffff" stroke-width="2" points="957.9764,-503.3763 966.7849,-497.4889 956.2275,-496.5983 957.9764,-503.3763"/>
</g>
<!-- FixedPoint.Unsigned.mul -->
<g id="node30" class="node">
<title>FixedPoint.Unsigned.mul</title>
<ellipse fill="#edad56" stroke="#edad56" stroke-width="3" cx="1017.0588" cy="-328.0911" rx="27" ry="18"/>
<text text-anchor="middle" x="1017.0588" y="-323.8911" font-family="Times,serif" font-size="14.00" fill="#000000">mul</text>
</g>
<!-- FeePayer._gulp&#45;&gt;FixedPoint.Unsigned.mul -->
<g id="edge44" class="edge">
<title>FeePayer._gulp-&gt;FixedPoint.Unsigned.mul</title>
<path fill="none" stroke="#ffffff" stroke-width="2" d="M758.5214,-824.324C785.7111,-824.2064 823.129,-819.1326 843.9625,-795.0911 908.2095,-720.9506 814.6134,-428.2621 879.9625,-355.0911 904.6429,-327.4565 948.6737,-323.1857 980.1802,-324.2369"/>
<polygon fill="#ffffff" stroke="#ffffff" stroke-width="2" points="980.1687,-327.741 990.3388,-324.7713 980.5365,-320.7507 980.1687,-327.741"/>
</g>
<!-- FixedPoint.Unsigned.div -->
<g id="node31" class="node">
<title>FixedPoint.Unsigned.div</title>
<ellipse fill="#edad56" stroke="#edad56" stroke-width="3" cx="1017.0588" cy="-274.0911" rx="27" ry="18"/>
<text text-anchor="middle" x="1017.0588" y="-269.8911" font-family="Times,serif" font-size="14.00" fill="#000000">div</text>
</g>
<!-- FeePayer._gulp&#45;&gt;FixedPoint.Unsigned.div -->
<g id="edge45" class="edge">
<title>FeePayer._gulp-&gt;FixedPoint.Unsigned.div</title>
<path fill="none" stroke="#ffffff" stroke-width="2" d="M758.5755,-824.3706C785.7989,-824.2821 823.2361,-819.225 843.9625,-795.0911 915.6744,-711.5892 807.0094,-383.5108 879.9625,-301.0911 904.5198,-273.347 948.5744,-269.0974 980.1201,-270.1835"/>
<polygon fill="#ffffff" stroke="#ffffff" stroke-width="2" points="980.119,-273.6884 990.2924,-270.7301 980.4946,-266.6985 980.119,-273.6884"/>
</g>
<!-- IERC20.balanceOf -->
<g id="node36" class="node">
<title>IERC20.balanceOf</title>
<ellipse fill="#edad56" stroke="#edad56" stroke-width="3" cx="1017.0588" cy="-1311.0911" rx="50.9211" ry="18"/>
<text text-anchor="middle" x="1017.0588" y="-1306.8911" font-family="Times,serif" font-size="14.00" fill="#000000">balanceOf</text>
</g>
<!-- FeePayer._gulp&#45;&gt;IERC20.balanceOf -->
<g id="edge42" class="edge">
<title>FeePayer._gulp-&gt;IERC20.balanceOf</title>
<path fill="none" stroke="#ffffff" stroke-width="2" d="M758.5123,-819.8661C785.6962,-819.9886 823.1109,-825.0652 843.9625,-849.0911 907.104,-921.8451 816.4961,-1208.6202 879.9625,-1281.0911 898.7508,-1302.5451 929.0179,-1310.6523 956.3395,-1313.1325"/>
<polygon fill="#ffffff" stroke="#ffffff" stroke-width="2" points="956.4246,-1316.646 966.6366,-1313.8237 956.8934,-1309.6618 956.4246,-1316.646"/>
</g>
<!-- FeePayer.StoreInterface -->
<g id="node21" class="node">
<title>FeePayer.StoreInterface</title>
<ellipse fill="#edad56" stroke="#edad56" stroke-width="3" cx="1305.7792" cy="-1090.0911" rx="65.9445" ry="18"/>
<text text-anchor="middle" x="1305.7792" y="-1085.8911" font-family="Times,serif" font-size="14.00" fill="#000000">StoreInterface</text>
</g>
<!-- FeePayer._getStore&#45;&gt;FeePayer.StoreInterface -->
<g id="edge46" class="edge">
<title>FeePayer._getStore-&gt;FeePayer.StoreInterface</title>
<path fill="none" stroke="#1bc6a6" stroke-width="2" d="M1065.3841,-1090.0911C1110.2323,-1090.0911 1177.7122,-1090.0911 1229.7726,-1090.0911"/>
<polygon fill="#1bc6a6" stroke="#1bc6a6" stroke-width="2" points="1229.9678,-1093.5912 1239.9678,-1090.0911 1229.9678,-1086.5912 1229.9678,-1093.5912"/>
</g>
<!-- FinderInterface.getImplementationAddress -->
<g id="node40" class="node">
<title>FinderInterface.getImplementationAddress</title>
<ellipse fill="#edad56" stroke="#edad56" stroke-width="3" cx="1305.7792" cy="-1311.0911" rx="115.7484" ry="18"/>
<text text-anchor="middle" x="1305.7792" y="-1306.8911" font-family="Times,serif" font-size="14.00" fill="#000000">getImplementationAddress</text>
</g>
<!-- FeePayer._getStore&#45;&gt;FinderInterface.getImplementationAddress -->
<g id="edge47" class="edge">
<title>FeePayer._getStore-&gt;FinderInterface.getImplementationAddress</title>
<path fill="none" stroke="#ffffff" stroke-width="2" d="M1064.337,-1086.7621C1094.145,-1087.3702 1131.2087,-1093.5554 1154.1551,-1117.0911 1205.7742,-1170.0356 1131.7029,-1227.0335 1182.1551,-1281.0911 1187.8237,-1287.1647 1194.4956,-1292.1011 1201.7537,-1296.1035"/>
<polygon fill="#ffffff" stroke="#ffffff" stroke-width="2" points="1200.7032,-1299.4834 1211.2293,-1300.6888 1203.7524,-1293.1823 1200.7032,-1299.4834"/>
</g>
<!-- FeePayer._computeFinalFees -->
<g id="node11" class="node">
<title>FeePayer._computeFinalFees</title>
<ellipse fill="#f2c383" stroke="#f2c383" stroke-width="3" cx="725.6537" cy="-876.0911" rx="86.8359" ry="18"/>
<text text-anchor="middle" x="725.6537" y="-871.8911" font-family="Times,serif" font-size="14.00" fill="#000000">_computeFinalFees</text>
</g>
<!-- FeePayer._computeFinalFees&#45;&gt;FeePayer._getStore -->
<g id="edge48" class="edge">
<title>FeePayer._computeFinalFees-&gt;FeePayer._getStore</title>
<path fill="none" stroke="#1bc6a6" stroke-width="2" d="M781.1026,-890.0028C802.4025,-897.3154 825.9102,-907.9867 843.9625,-923.0911 867.2314,-942.5603 859.7914,-958.4279 879.9625,-981.0911 911.2422,-1016.2354 954.7923,-1048.7149 984.3538,-1068.9126"/>
<polygon fill="#1bc6a6" stroke="#1bc6a6" stroke-width="2" points="982.4265,-1071.8344 992.6739,-1074.5257 986.3414,-1066.0315 982.4265,-1071.8344"/>
</g>
<!-- StoreInterface.computeFinalFee -->
<g id="node39" class="node">
<title>StoreInterface.computeFinalFee</title>
<ellipse fill="#edad56" stroke="#edad56" stroke-width="3" cx="1017.0588" cy="-683.0911" rx="78.1675" ry="18"/>
<text text-anchor="middle" x="1017.0588" y="-678.8911" font-family="Times,serif" font-size="14.00" fill="#000000">computeFinalFee</text>
</g>
<!-- FeePayer._computeFinalFees&#45;&gt;StoreInterface.computeFinalFee -->
<g id="edge49" class="edge">
<title>FeePayer._computeFinalFees-&gt;StoreInterface.computeFinalFee</title>
<path fill="none" stroke="#ffffff" stroke-width="2" d="M806.2502,-869.4363C820.0875,-865.1961 833.3906,-858.7592 843.9625,-849.0911 882.2346,-814.0908 844.5557,-775.9875 879.9625,-738.0911 897.969,-718.8183 923.635,-706.1541 947.8998,-697.8991"/>
<polygon fill="#ffffff" stroke="#ffffff" stroke-width="2" points="949.0086,-701.2192 957.4675,-694.8396 946.8765,-694.5517 949.0086,-701.2192"/>
</g>
<!-- FeePayer._getFeeAdjustedCollateral -->
<g id="node12" class="node">
<title>FeePayer._getFeeAdjustedCollateral</title>
<ellipse fill="#f2c383" stroke="#f2c383" stroke-width="3" cx="394.5731" cy="-822.0911" rx="114.6005" ry="18"/>
<text text-anchor="middle" x="394.5731" y="-817.8911" font-family="Times,serif" font-size="14.00" fill="#000000">_getFeeAdjustedCollateral</text>
</g>
<!-- FeePayer._getFeeAdjustedCollateral&#45;&gt;FixedPoint.Unsigned.mul -->
<g id="edge50" class="edge">
<title>FeePayer._getFeeAdjustedCollateral-&gt;FixedPoint.Unsigned.mul</title>
<path fill="none" stroke="#ffffff" stroke-width="2" d="M505.0266,-826.9097C529.8268,-822.5847 553.9216,-813.2236 571.345,-795.0911 670.8135,-691.574 522.1357,-589.6296 607.345,-474.0911 696.9768,-352.5557 896.5998,-331.8071 979.6681,-328.546"/>
<polygon fill="#ffffff" stroke="#ffffff" stroke-width="2" points="980.0205,-332.0364 989.9006,-328.2109 979.7914,-325.0401 980.0205,-332.0364"/>
</g>
<!-- FeePayer._getPendingRegularFeeAdjustedCollateral -->
<g id="node13" class="node">
<title>FeePayer._getPendingRegularFeeAdjustedCollateral</title>
<ellipse fill="#f2c383" stroke="#f2c383" stroke-width="3" cx="394.5731" cy="-876.0911" rx="176.5441" ry="18"/>
<text text-anchor="middle" x="394.5731" y="-871.8911" font-family="Times,serif" font-size="14.00" fill="#000000">_getPendingRegularFeeAdjustedCollateral</text>
</g>
<!-- FeePayer._getPendingRegularFeeAdjustedCollateral&#45;&gt;FeePayer.getOutstandingRegularFees -->
<g id="edge51" class="edge">
<title>FeePayer._getPendingRegularFeeAdjustedCollateral-&gt;FeePayer.getOutstandingRegularFees</title>
<path fill="none" stroke="#1bc6a6" stroke-width="2" d="M536.9279,-865.2651C549.0667,-861.1398 560.7403,-855.8462 571.345,-849.0911 595.6729,-833.5942 583.5972,-811.4631 607.345,-795.0911 613.7478,-790.6769 620.764,-786.9743 628.0836,-783.8699"/>
<polygon fill="#1bc6a6" stroke="#1bc6a6" stroke-width="2" points="629.418,-787.1067 637.4941,-780.2491 626.9042,-780.5736 629.418,-787.1067"/>
</g>
<!-- FeePayer._getPendingRegularFeeAdjustedCollateral&#45;&gt;FeePayer._pfc -->
<g id="edge56" class="edge">
<title>FeePayer._getPendingRegularFeeAdjustedCollateral-&gt;FeePayer._pfc</title>
<path fill="none" stroke="#1bc6a6" stroke-width="2" d="M501.0776,-890.4947C535.0074,-894.845 572.7222,-899.4327 607.345,-903.0911 712.299,-914.1809 739.3252,-909.3293 843.9625,-923.0911 891.1441,-929.2963 945.0435,-939.438 979.9876,-946.4219"/>
<polygon fill="#1bc6a6" stroke="#1bc6a6" stroke-width="2" points="979.7008,-949.9345 990.1954,-948.4801 981.0844,-943.0725 979.7008,-949.9345"/>
</g>
<!-- FeePayer._getPendingRegularFeeAdjustedCollateral&#45;&gt;FeePayer.getCurrentTime -->
<g id="edge52" class="edge">
<title>FeePayer._getPendingRegularFeeAdjustedCollateral-&gt;FeePayer.getCurrentTime</title>
<path fill="none" stroke="#1bc6a6" stroke-width="2" d="M510.9662,-889.7436C531.276,-893.2945 552.0632,-897.6886 571.345,-903.0911 588.0355,-907.7675 590.9439,-912.4829 607.345,-918.0911 625.435,-924.2767 645.4008,-930.0623 663.6972,-934.9667"/>
<polygon fill="#1bc6a6" stroke="#1bc6a6" stroke-width="2" points="662.8175,-938.3543 673.3796,-937.5228 664.6043,-931.5862 662.8175,-938.3543"/>
</g>
<!-- FeePayer._getPendingRegularFeeAdjustedCollateral&#45;&gt;FixedPoint.fromUnscaledUint -->
<g id="edge54" class="edge">
<title>FeePayer._getPendingRegularFeeAdjustedCollateral-&gt;FixedPoint.fromUnscaledUint</title>
<path fill="none" stroke="#ffffff" stroke-width="2" d="M533.8503,-864.9498C548.0219,-859.4116 560.9848,-851.4413 571.345,-840.0911 660.6472,-742.2553 544.2145,-361.5439 607.345,-245.0911 679.214,-112.5187 736.7633,-90.3626 879.9625,-43.0911 995.6836,-4.8903 1056.7236,30.1058 1154.1551,-43.0911 1237.2005,-105.4801 1289.3952,-446.1106 1302.5139,-547.0371"/>
<polygon fill="#ffffff" stroke="#ffffff" stroke-width="2" points="1299.0586,-547.611 1303.7919,-557.0897 1306.0028,-546.7281 1299.0586,-547.611"/>
</g>
<!-- FeePayer._getPendingRegularFeeAdjustedCollateral&#45;&gt;FixedPoint.fromUnscaledUint -->
<g id="edge58" class="edge">
<title>FeePayer._getPendingRegularFeeAdjustedCollateral-&gt;FixedPoint.fromUnscaledUint</title>
<path fill="none" stroke="#ffffff" stroke-width="2" d="M559.0775,-869.1716C563.4661,-865.8988 567.5776,-862.2184 571.345,-858.0911 660.6472,-760.2553 544.2145,-379.5439 607.345,-263.0911 679.214,-130.5187 736.7633,-108.3626 879.9625,-61.0911 995.6836,-22.8903 1056.7236,12.1058 1154.1551,-61.0911 1235.204,-121.9802 1286.8678,-447.8936 1301.5002,-546.7671"/>
<polygon fill="#ffffff" stroke="#ffffff" stroke-width="2" points="1298.0729,-547.5184 1302.9892,-556.9035 1304.9986,-546.5009 1298.0729,-547.5184"/>
</g>
<!-- FeePayer._getPendingRegularFeeAdjustedCollateral&#45;&gt;FixedPoint.Unsigned.isEqual -->
<g id="edge53" class="edge">
<title>FeePayer._getPendingRegularFeeAdjustedCollateral-&gt;FixedPoint.Unsigned.isEqual</title>
<path fill="none" stroke="#ffffff" stroke-width="2" d="M546.841,-866.8543C555.8187,-862.1927 564.1191,-856.3538 571.345,-849.0911 648.6596,-771.3824 540.7127,-692.1332 607.345,-605.0911 677.063,-514.0179 764.5499,-584.8472 843.9625,-502.0911 874.6502,-470.1113 846.0048,-437.5748 879.9625,-409.0911 903.8816,-389.0276 938.3992,-382.313 966.8142,-380.5965"/>
<polygon fill="#ffffff" stroke="#ffffff" stroke-width="2" points="967.1296,-384.0865 976.9758,-380.1747 966.8393,-377.0925 967.1296,-384.0865"/>
</g>
<!-- FeePayer._getPendingRegularFeeAdjustedCollateral&#45;&gt;FixedPoint.Unsigned.mul -->
<g id="edge57" class="edge">
<title>FeePayer._getPendingRegularFeeAdjustedCollateral-&gt;FixedPoint.Unsigned.mul</title>
<path fill="none" stroke="#ffffff" stroke-width="2" d="M547.6049,-866.9885C556.3421,-862.2804 564.3844,-856.3954 571.345,-849.0911 624.8267,-792.9678 562.5504,-565.3648 607.345,-502.0911 674.5725,-407.13 748.3778,-456.429 843.9625,-390.0911 862.2952,-377.3677 860.1986,-365.4529 879.9625,-355.0911 911.2482,-338.6885 951.3001,-332.2102 980.0229,-329.673"/>
<polygon fill="#ffffff" stroke="#ffffff" stroke-width="2" points="980.3514,-333.1582 990.0552,-328.9054 979.8173,-326.1786 980.3514,-333.1582"/>
</g>
<!-- FixedPoint.Unsigned.divCeil -->
<g id="node32" class="node">
<title>FixedPoint.Unsigned.divCeil</title>
<ellipse fill="#edad56" stroke="#edad56" stroke-width="3" cx="1017.0588" cy="-112.0911" rx="39.4428" ry="18"/>
<text text-anchor="middle" x="1017.0588" y="-107.8911" font-family="Times,serif" font-size="14.00" fill="#000000">divCeil</text>
</g>
<!-- FeePayer._getPendingRegularFeeAdjustedCollateral&#45;&gt;FixedPoint.Unsigned.divCeil -->
<g id="edge55" class="edge">
<title>FeePayer._getPendingRegularFeeAdjustedCollateral-&gt;FixedPoint.Unsigned.divCeil</title>
<path fill="none" stroke="#ffffff" stroke-width="2" d="M548.2163,-866.9666C556.7482,-862.2485 564.5823,-856.3685 571.345,-849.0911 640.992,-774.1425 562.6152,-482.1087 607.345,-390.0911 616.3453,-371.5755 861.601,-148.4018 879.9625,-139.0911 907.1093,-125.3255 940.5786,-118.5676 967.6518,-115.2549"/>
<polygon fill="#ffffff" stroke="#ffffff" stroke-width="2" points="968.1328,-118.7232 977.6882,-114.1466 967.3644,-111.7655 968.1328,-118.7232"/>
</g>
<!-- FeePayer._convertToRawCollateral -->
<g id="node14" class="node">
<title>FeePayer._convertToRawCollateral</title>
<ellipse fill="#f2c383" stroke="#f2c383" stroke-width="3" cx="394.5731" cy="-768.0911" rx="111.1538" ry="18"/>
<text text-anchor="middle" x="394.5731" y="-763.8911" font-family="Times,serif" font-size="14.00" fill="#000000">_convertToRawCollateral</text>
</g>
<!-- FeePayer._convertToRawCollateral&#45;&gt;FixedPoint.Unsigned.div -->
<g id="edge59" class="edge">
<title>FeePayer._convertToRawCollateral-&gt;FixedPoint.Unsigned.div</title>
<path fill="none" stroke="#ffffff" stroke-width="2" d="M397.6854,-749.8479C410.1138,-683.0356 462.7126,-450.0453 607.345,-343.0911 721.7293,-258.505 903.044,-263.2968 980.2723,-269.9561"/>
<polygon fill="#ffffff" stroke="#ffffff" stroke-width="2" points="980.1809,-273.4625 990.4609,-270.899 980.826,-266.4923 980.1809,-273.4625"/>
</g>
<!-- FeePayer._removeCollateral -->
<g id="node15" class="node">
<title>FeePayer._removeCollateral</title>
<ellipse fill="#f2c383" stroke="#f2c383" stroke-width="3" cx="98.9006" cy="-768.0911" rx="82.8013" ry="18"/>
<text text-anchor="middle" x="98.9006" y="-763.8911" font-family="Times,serif" font-size="14.00" fill="#000000">_removeCollateral</text>
</g>
<!-- FeePayer._removeCollateral&#45;&gt;FeePayer._getFeeAdjustedCollateral -->
<g id="edge60" class="edge">
<title>FeePayer._removeCollateral-&gt;FeePayer._getFeeAdjustedCollateral</title>
<path fill="none" stroke="#1bc6a6" stroke-width="2" d="M171.9859,-776.7505C187.0924,-779.9198 202.9311,-783.2709 217.8012,-786.0911 253.5979,-792.8801 293.7245,-799.1189 326.6879,-804.7522"/>
<polygon fill="#1bc6a6" stroke="#1bc6a6" stroke-width="2" points="326.2248,-808.224 336.6753,-806.481 327.4188,-801.3266 326.2248,-808.224"/>
</g>
<!-- FeePayer._removeCollateral&#45;&gt;FeePayer._getFeeAdjustedCollateral -->
<g id="edge64" class="edge">
<title>FeePayer._removeCollateral-&gt;FeePayer._getFeeAdjustedCollateral</title>
<path fill="none" stroke="#1bc6a6" stroke-width="2" d="M134.1403,-784.4416C157.7278,-791.4419 189.5169,-798.7268 217.8012,-804.0911 236.9798,-807.7284 257.4012,-811.2078 277.2981,-814.254"/>
<polygon fill="#1bc6a6" stroke="#1bc6a6" stroke-width="2" points="276.9206,-817.7365 287.3293,-815.7596 277.9596,-810.814 276.9206,-817.7365"/>
</g>
<!-- FeePayer._removeCollateral&#45;&gt;FeePayer._convertToRawCollateral -->
<g id="edge61" class="edge">
<title>FeePayer._removeCollateral-&gt;FeePayer._convertToRawCollateral</title>
<path fill="none" stroke="#1bc6a6" stroke-width="2" d="M182.0487,-768.0911C210.2083,-768.0911 242.2684,-768.0911 272.7974,-768.0911"/>
<polygon fill="#1bc6a6" stroke="#1bc6a6" stroke-width="2" points="273.0842,-771.5912 283.0841,-768.0911 273.0841,-764.5912 273.0842,-771.5912"/>
</g>
<!-- FeePayer._removeCollateral&#45;&gt;FixedPoint.Unsigned.sub -->
<g id="edge62" class="edge">
<title>FeePayer._removeCollateral-&gt;FixedPoint.Unsigned.sub</title>
<path fill="none" stroke="#ffffff" stroke-width="2" d="M108.3671,-750.1474C153.5027,-673.7542 355.1393,-376.2774 607.345,-256.0911 734.4883,-195.5021 908.3098,-201.4788 981.8802,-211.5701"/>
<polygon fill="#ffffff" stroke="#ffffff" stroke-width="2" points="981.5823,-215.0644 991.9899,-213.0814 982.6173,-208.1413 981.5823,-215.0644"/>
</g>
<!-- FeePayer._removeCollateral&#45;&gt;FixedPoint.Unsigned.sub -->
<g id="edge63" class="edge">
<title>FeePayer._removeCollateral-&gt;FixedPoint.Unsigned.sub</title>
<path fill="none" stroke="#ffffff" stroke-width="2" d="M112.3098,-750.3029C164.2926,-676.0149 361.8647,-391.0724 607.345,-274.0911 733.2568,-214.0889 904.9472,-219.3693 979.7145,-221.3333"/>
<polygon fill="#ffffff" stroke="#ffffff" stroke-width="2" points="979.9411,-224.84 990.0254,-221.5909 980.116,-217.8422 979.9411,-224.84"/>
</g>
<!-- FeePayer._addCollateral -->
<g id="node16" class="node">
<title>FeePayer._addCollateral</title>
<ellipse fill="#f2c383" stroke="#f2c383" stroke-width="3" cx="98.9006" cy="-822.0911" rx="67.7741" ry="18"/>
<text text-anchor="middle" x="98.9006" y="-817.8911" font-family="Times,serif" font-size="14.00" fill="#000000">_addCollateral</text>
</g>
<!-- FeePayer._addCollateral&#45;&gt;FeePayer._getFeeAdjustedCollateral -->
<g id="edge65" class="edge">
<title>FeePayer._addCollateral-&gt;FeePayer._getFeeAdjustedCollateral</title>
<path fill="none" stroke="#1bc6a6" stroke-width="2" d="M163.4218,-816.4022C196.8016,-815.4462 238.5952,-815.1362 277.4322,-815.4721"/>
<polygon fill="#1bc6a6" stroke="#1bc6a6" stroke-width="2" points="277.7296,-818.9752 287.7649,-815.5776 277.8012,-811.9756 277.7296,-818.9752"/>
</g>
<!-- FeePayer._addCollateral&#45;&gt;FeePayer._getFeeAdjustedCollateral -->
<g id="edge68" class="edge">
<title>FeePayer._addCollateral-&gt;FeePayer._getFeeAdjustedCollateral</title>
<path fill="none" stroke="#1bc6a6" stroke-width="2" d="M163.4218,-827.78C196.8016,-828.7359 238.5952,-829.046 277.4322,-828.71"/>
<polygon fill="#1bc6a6" stroke="#1bc6a6" stroke-width="2" points="277.8012,-832.2066 287.7649,-828.6045 277.7296,-825.2069 277.8012,-832.2066"/>
</g>
<!-- FeePayer._addCollateral&#45;&gt;FeePayer._convertToRawCollateral -->
<g id="edge66" class="edge">
<title>FeePayer._addCollateral-&gt;FeePayer._convertToRawCollateral</title>
<path fill="none" stroke="#1bc6a6" stroke-width="2" d="M149.0669,-809.8601C170.2118,-804.9234 195.1322,-799.3904 217.8012,-795.0911 244.3067,-790.0641 273.1862,-785.3389 299.774,-781.2897"/>
<polygon fill="#1bc6a6" stroke="#1bc6a6" stroke-width="2" points="300.4756,-784.7236 309.842,-779.7717 299.4319,-777.8018 300.4756,-784.7236"/>
</g>
<!-- FeePayer._addCollateral&#45;&gt;FixedPoint.Unsigned.add -->
<g id="edge67" class="edge">
<title>FeePayer._addCollateral-&gt;FixedPoint.Unsigned.add</title>
<path fill="none" stroke="#ffffff" stroke-width="2" d="M151.9256,-810.6609C162.4728,-806.8323 172.9969,-801.7679 181.8012,-795.0911 204.7842,-777.6618 200.6467,-764.28 217.8012,-741.0911 380.3795,-521.3225 377.4301,-412.9731 607.345,-265.0911 727.9935,-187.4895 904.1106,-170.6838 980.0037,-167.0685"/>
<polygon fill="#ffffff" stroke="#ffffff" stroke-width="2" points="980.1893,-170.5639 990.0311,-166.641 979.8911,-163.5703 980.1893,-170.5639"/>
</g>
<!-- FeePayer._adjustCumulativeFeeMultiplier&#45;&gt;FixedPoint.fromUnscaledUint -->
<g id="edge71" class="edge">
<title>FeePayer._adjustCumulativeFeeMultiplier-&gt;FixedPoint.fromUnscaledUint</title>
<path fill="none" stroke="#ffffff" stroke-width="2" d="M1132.2037,-1134.1746C1140.4538,-1129.8253 1147.9501,-1124.2329 1154.1551,-1117.0911 1229.3262,-1030.572 1107.878,-689.3789 1182.1551,-602.0911 1190.5244,-592.2558 1201.5686,-585.5138 1213.6181,-580.963"/>
<polygon fill="#ffffff" stroke="#ffffff" stroke-width="2" points="1215.0347,-584.183 1223.4651,-577.7659 1212.873,-577.5251 1215.0347,-584.183"/>
</g>
<!-- FeePayer._adjustCumulativeFeeMultiplier&#45;&gt;FixedPoint.Unsigned.mul -->
<g id="edge70" class="edge">
<title>FeePayer._adjustCumulativeFeeMultiplier-&gt;FixedPoint.Unsigned.mul</title>
<path fill="none" stroke="#ffffff" stroke-width="2" d="M894.412,-1135.9379C881.2477,-1129.7312 869.81,-1120.7886 861.9625,-1108.0911 840.2322,-1072.9308 840.2322,-399.2513 861.9625,-364.0911 885.74,-325.6182 942.4784,-321.6181 980.3324,-323.7413"/>
<polygon fill="#ffffff" stroke="#ffffff" stroke-width="2" points="980.2376,-327.2436 990.4653,-324.479 980.7459,-320.2621 980.2376,-327.2436"/>
</g>
<!-- FeePayer._adjustCumulativeFeeMultiplier&#45;&gt;FixedPoint.Unsigned.divCeil -->
<g id="edge69" class="edge">
<title>FeePayer._adjustCumulativeFeeMultiplier-&gt;FixedPoint.Unsigned.divCeil</title>
<path fill="none" stroke="#ffffff" stroke-width="2" d="M894.412,-1135.9379C881.2477,-1129.7312 869.81,-1120.7886 861.9625,-1108.0911 847.943,-1085.407 847.943,-170.7751 861.9625,-148.0911 883.3489,-113.487 931.4007,-106.7712 968.3926,-107.3154"/>
<polygon fill="#ffffff" stroke="#ffffff" stroke-width="2" points="968.3931,-110.8172 978.5016,-107.6442 968.6208,-103.8209 968.3931,-110.8172"/>
</g>
<!-- key -->
<g id="node41" class="node">
<title>key</title>
<polygon fill="#edad56" stroke="transparent" stroke-width="3" points="163.9006,-1436.0911 33.9006,-1436.0911 33.9006,-1348.0911 163.9006,-1348.0911 163.9006,-1436.0911"/>
<text text-anchor="start" x="83.5366" y="-1417.4911" font-family="Times,serif" font-size="14.00" fill="#000000">Internal Call</text>
<text text-anchor="start" x="79.6446" y="-1397.4911" font-family="Times,serif" font-size="14.00" fill="#000000">External Call</text>
<text text-anchor="start" x="57.106" y="-1377.4911" font-family="Times,serif" font-size="14.00" fill="#000000">Defined Contract</text>
<text text-anchor="start" x="43.5033" y="-1357.4911" font-family="Times,serif" font-size="14.00" fill="#000000">Undefined Contract</text>
</g>
<!-- key2 -->
<g id="node42" class="node">
<title>key2</title>
<polygon fill="#edad56" stroke="transparent" stroke-width="3" points="421.5731,-1436.0911 367.5731,-1436.0911 367.5731,-1348.0911 421.5731,-1348.0911 421.5731,-1436.0911"/>
<text text-anchor="start" x="382.3322" y="-1417.4911" font-family="Times,serif" font-size="14.00" fill="#000000"></text>
<text text-anchor="start" x="382.3322" y="-1397.4911" font-family="Times,serif" font-size="14.00" fill="#000000"></text>
<polygon fill="#445773" stroke="transparent" points="380.5731,-1372.0911 380.5731,-1392.0911 408.5731,-1392.0911 408.5731,-1372.0911 380.5731,-1372.0911"/>
<text text-anchor="start" x="382.3322" y="-1377.4911" font-family="Times,serif" font-size="14.00" fill="#000000"></text>
<polygon fill="none" stroke="#e8726d" points="382.5731,-1354.0911 382.5731,-1370.0911 406.5731,-1370.0911 406.5731,-1354.0911 382.5731,-1354.0911"/>
</g>
<!-- key&#45;&gt;key2 -->
<g id="edge72" class="edge">
<title>key:e-&gt;key2:w</title>
<path fill="none" stroke="#1bc6a6" stroke-width="2" d="M155.9006,-1422.0911C252.2445,-1422.0911 278.8708,-1422.0911 370.3127,-1422.0911"/>
<polygon fill="#1bc6a6" stroke="#1bc6a6" stroke-width="2" points="370.5731,-1425.5912 380.5731,-1422.0911 370.573,-1418.5912 370.5731,-1425.5912"/>
</g>
<!-- key&#45;&gt;key2 -->
<g id="edge73" class="edge">
<title>key:e-&gt;key2:w</title>
<path fill="none" stroke="#ffffff" stroke-width="2" d="M155.9006,-1402.0911C252.2445,-1402.0911 278.8708,-1402.0911 370.3127,-1402.0911"/>
<polygon fill="#ffffff" stroke="#ffffff" stroke-width="2" points="370.5731,-1405.5912 380.5731,-1402.0911 370.573,-1398.5912 370.5731,-1405.5912"/>
</g>
</g>
</svg>