<?xml version="1.0" encoding="UTF-8" standalone="no"?><!DOCTYPE svg PUBLIC "-//W3C//DTD SVG 1.1//EN" "http://www.w3.org/Graphics/SVG/1.1/DTD/svg11.dtd"><!-- Generated by graphviz version 2.40.1 (20161225.0304)
 --><!-- Title: G Pages: 1 --><svg xmlns="http://www.w3.org/2000/svg" xmlns:xlink="http://www.w3.org/1999/xlink" width="472pt" height="755pt" viewBox="0.00 0.00 472.30 755.00">
<g id="graph0" class="graph" transform="scale(1 1) rotate(0) translate(4 751)">
<title>G</title>
<polygon fill="#2e3e56" stroke="transparent" points="-4,4 -4,-751 468.2962,-751 468.2962,4 -4,4"/>
<g id="clust1" class="cluster">
<title>clusterClayBonds</title>
<path fill="#445773" stroke="#445773" d="M20,-255C20,-255 444.2962,-255 444.2962,-255 450.2962,-255 456.2962,-261 456.2962,-267 456.2962,-267 456.2962,-590 456.2962,-590 456.2962,-596 450.2962,-602 444.2962,-602 444.2962,-602 20,-602 20,-602 14,-602 8,-596 8,-590 8,-590 8,-267 8,-267 8,-261 14,-255 20,-255"/>
<text text-anchor="middle" x="232.1481" y="-585.4" font-family="Times,serif" font-size="14.00" fill="#f0f0f0">ClayBonds</text>
</g>
<g id="clust2" class="cluster">
<title>clusterIClayToken</title>
<path fill="#3b4b63" stroke="#e8726d" stroke-dasharray="5,2" d="M260.2233,-8C260.2233,-8 375.1148,-8 375.1148,-8 381.1148,-8 387.1148,-14 387.1148,-20 387.1148,-20 387.1148,-235 387.1148,-235 387.1148,-241 381.1148,-247 375.1148,-247 375.1148,-247 260.2233,-247 260.2233,-247 254.2233,-247 248.2233,-241 248.2233,-235 248.2233,-235 248.2233,-20 248.2233,-20 248.2233,-14 254.2233,-8 260.2233,-8"/>
<text text-anchor="middle" x="317.669" y="-230.4" font-family="Times,serif" font-size="14.00" fill="#f0f0f0">IClayToken</text>
</g>
<g id="clust3" class="cluster">
<title>cluster_01</title>
<polygon fill="#2e3e56" stroke="#000000" points="10.5209,-610 10.5209,-739 352.669,-739 352.669,-610 10.5209,-610"/>
<text text-anchor="middle" x="181.595" y="-722.4" font-family="Times,serif" font-size="14.00" fill="#000000">Legend</text>
</g>
<!-- ClayBonds.&lt;Constructor&gt; -->
<g id="node1" class="node">
<title>ClayBonds.&lt;Constructor&gt;</title>
<ellipse fill="#ff9797" stroke="#ff9797" stroke-width="3" cx="83.5209" cy="-524" rx="67.5419" ry="18"/>
<text text-anchor="middle" x="83.5209" y="-519.8" font-family="Times,serif" font-size="14.00" fill="#000000">&lt;Constructor&gt;</text>
</g>
<!-- ClayBonds.getDaysLeftToMaturationDate -->
<g id="node2" class="node">
<title>ClayBonds.getDaysLeftToMaturationDate</title>
<ellipse fill="#edad56" stroke="#edad56" stroke-width="3" cx="317.669" cy="-497" rx="130.7544" ry="18"/>
<text text-anchor="middle" x="317.669" y="-492.8" font-family="Times,serif" font-size="14.00" fill="#000000">getDaysLeftToMaturationDate</text>
</g>
<!-- ClayBonds.getRewardPercent -->
<g id="node3" class="node">
<title>ClayBonds.getRewardPercent</title>
<ellipse fill="#edad56" stroke="#edad56" stroke-width="3" cx="317.669" cy="-551" rx="81.6384" ry="18"/>
<text text-anchor="middle" x="317.669" y="-546.8" font-family="Times,serif" font-size="14.00" fill="#000000">getRewardPercent</text>
</g>
<!-- ClayBonds.getReward -->
<g id="node4" class="node">
<title>ClayBonds.getReward</title>
<ellipse fill="#edad56" stroke="#edad56" stroke-width="3" cx="317.669" cy="-389" rx="52.7276" ry="18"/>
<text text-anchor="middle" x="317.669" y="-384.8" font-family="Times,serif" font-size="14.00" fill="#000000">getReward</text>
</g>
<!-- ClayBonds.issue -->
<g id="node5" class="node">
<title>ClayBonds.issue</title>
<ellipse fill="#ffbdb9" stroke="#ffbdb9" stroke-width="3" cx="83.5209" cy="-443" rx="30.1938" ry="18"/>
<text text-anchor="middle" x="83.5209" y="-438.8" font-family="Times,serif" font-size="14.00" fill="#000000">issue</text>
</g>
<!-- ClayBonds.issue&#45;&gt;ClayBonds.getDaysLeftToMaturationDate -->
<g id="edge1" class="edge">
<title>ClayBonds.issue-&gt;ClayBonds.getDaysLeftToMaturationDate</title>
<path fill="none" stroke="#1bc6a6" stroke-width="2" d="M111.1066,-450.6063C131.9075,-456.2416 161.1779,-463.9583 187.0419,-470 201.8407,-473.4569 217.6363,-476.9158 232.9451,-480.1484"/>
<polygon fill="#1bc6a6" stroke="#1bc6a6" stroke-width="2" points="232.4144,-483.6131 242.9196,-482.2377 233.8496,-476.7618 232.4144,-483.6131"/>
</g>
<!-- ClayBonds.issue&#45;&gt;ClayBonds.getRewardPercent -->
<g id="edge2" class="edge">
<title>ClayBonds.issue-&gt;ClayBonds.getRewardPercent</title>
<path fill="none" stroke="#1bc6a6" stroke-width="2" d="M101.8875,-457.7235C130.324,-480.4686 182.2537,-521.7815 187.0419,-524 202.3231,-531.0803 219.4643,-536.3168 236.1754,-540.1857"/>
<polygon fill="#1bc6a6" stroke="#1bc6a6" stroke-width="2" points="235.4324,-543.6059 245.9476,-542.3092 236.9189,-536.7655 235.4324,-543.6059"/>
</g>
<!-- ClayBonds.issue&#45;&gt;ClayBonds.getReward -->
<g id="edge3" class="edge">
<title>ClayBonds.issue-&gt;ClayBonds.getReward</title>
<path fill="none" stroke="#1bc6a6" stroke-width="2" d="M111.1066,-435.3937C131.9075,-429.7584 161.1779,-422.0417 187.0419,-416 211.4001,-410.3101 238.4586,-404.6149 261.6023,-399.9319"/>
<polygon fill="#1bc6a6" stroke="#1bc6a6" stroke-width="2" points="262.484,-403.3248 271.5982,-397.9227 261.1045,-396.462 262.484,-403.3248"/>
</g>
<!-- ClayBonds._mint -->
<g id="node8" class="node">
<title>ClayBonds._mint</title>
<ellipse fill="#edad56" stroke="#edad56" stroke-width="3" cx="317.669" cy="-443" rx="33.646" ry="18"/>
<text text-anchor="middle" x="317.669" y="-438.8" font-family="Times,serif" font-size="14.00" fill="#000000">_mint</text>
</g>
<!-- ClayBonds.issue&#45;&gt;ClayBonds._mint -->
<g id="edge5" class="edge">
<title>ClayBonds.issue-&gt;ClayBonds._mint</title>
<path fill="none" stroke="#1bc6a6" stroke-width="2" d="M114.1317,-443C154.9288,-443 227.3756,-443 273.9272,-443"/>
<polygon fill="#1bc6a6" stroke="#1bc6a6" stroke-width="2" points="274.0201,-446.5001 284.0201,-443 274.0201,-439.5001 274.0201,-446.5001"/>
</g>
<!-- IClayToken.transferFrom -->
<g id="node11" class="node">
<title>IClayToken.transferFrom</title>
<ellipse fill="#edad56" stroke="#edad56" stroke-width="3" cx="317.669" cy="-196" rx="61.3916" ry="18"/>
<text text-anchor="middle" x="317.669" y="-191.8" font-family="Times,serif" font-size="14.00" fill="#000000">transferFrom</text>
</g>
<!-- ClayBonds.issue&#45;&gt;IClayToken.transferFrom -->
<g id="edge4" class="edge">
<title>ClayBonds.issue-&gt;IClayToken.transferFrom</title>
<path fill="none" stroke="#ffffff" stroke-width="2" d="M99.4856,-427.6117C114.6216,-412.2446 137.0661,-387.3257 151.0419,-362 176.0998,-316.5921 151.9584,-289.1959 187.0419,-251 205.6308,-230.762 232.8598,-217.7145 257.6532,-209.4353"/>
<polygon fill="#ffffff" stroke="#ffffff" stroke-width="2" points="258.8793,-212.7189 267.3721,-206.3847 256.7828,-206.0402 258.8793,-212.7189"/>
</g>
<!-- ClayBonds.claim -->
<g id="node6" class="node">
<title>ClayBonds.claim</title>
<ellipse fill="#ffbdb9" stroke="#ffbdb9" stroke-width="3" cx="83.5209" cy="-335" rx="32.4788" ry="18"/>
<text text-anchor="middle" x="83.5209" y="-330.8" font-family="Times,serif" font-size="14.00" fill="#000000">claim</text>
</g>
<!-- ClayBonds.balanceOf -->
<g id="node9" class="node">
<title>ClayBonds.balanceOf</title>
<ellipse fill="#edad56" stroke="#edad56" stroke-width="3" cx="317.669" cy="-281" rx="50.9211" ry="18"/>
<text text-anchor="middle" x="317.669" y="-276.8" font-family="Times,serif" font-size="14.00" fill="#000000">balanceOf</text>
</g>
<!-- ClayBonds.claim&#45;&gt;ClayBonds.balanceOf -->
<g id="edge6" class="edge">
<title>ClayBonds.claim-&gt;ClayBonds.balanceOf</title>
<path fill="none" stroke="#1bc6a6" stroke-width="2" d="M112.8717,-326.916C133.5423,-321.328 161.9014,-313.8727 187.0419,-308 211.8912,-302.1954 239.5508,-296.3853 262.9973,-291.6499"/>
<polygon fill="#1bc6a6" stroke="#1bc6a6" stroke-width="2" points="263.9905,-295.0205 273.1067,-289.6218 262.6136,-288.1572 263.9905,-295.0205"/>
</g>
<!-- ClayBonds._burn -->
<g id="node10" class="node">
<title>ClayBonds._burn</title>
<ellipse fill="#edad56" stroke="#edad56" stroke-width="3" cx="317.669" cy="-335" rx="33.6305" ry="18"/>
<text text-anchor="middle" x="317.669" y="-330.8" font-family="Times,serif" font-size="14.00" fill="#000000">_burn</text>
</g>
<!-- ClayBonds.claim&#45;&gt;ClayBonds._burn -->
<g id="edge7" class="edge">
<title>ClayBonds.claim-&gt;ClayBonds._burn</title>
<path fill="none" stroke="#1bc6a6" stroke-width="2" d="M116.0782,-335C157.1138,-335 227.8123,-335 273.641,-335"/>
<polygon fill="#1bc6a6" stroke="#1bc6a6" stroke-width="2" points="273.872,-338.5001 283.872,-335 273.8719,-331.5001 273.872,-338.5001"/>
</g>
<!-- IClayToken.mint -->
<g id="node12" class="node">
<title>IClayToken.mint</title>
<ellipse fill="#edad56" stroke="#edad56" stroke-width="3" cx="317.669" cy="-142" rx="28.991" ry="18"/>
<text text-anchor="middle" x="317.669" y="-137.8" font-family="Times,serif" font-size="14.00" fill="#000000">mint</text>
</g>
<!-- ClayBonds.claim&#45;&gt;IClayToken.mint -->
<g id="edge8" class="edge">
<title>ClayBonds.claim-&gt;IClayToken.mint</title>
<path fill="none" stroke="#ffffff" stroke-width="2" d="M114.364,-329.1607C127.3541,-325.2228 141.6146,-318.7073 151.0419,-308 193.2128,-260.1032 140.812,-212.9919 187.0419,-169 211.3212,-145.896 249.8978,-140.2858 278.8463,-139.7737"/>
<polygon fill="#ffffff" stroke="#ffffff" stroke-width="2" points="279.0251,-143.2739 289.0316,-139.7928 279.0382,-136.274 279.0251,-143.2739"/>
</g>
<!-- ClayBonds.burn -->
<g id="node7" class="node">
<title>ClayBonds.burn</title>
<ellipse fill="#ffbdb9" stroke="#ffbdb9" stroke-width="3" cx="83.5209" cy="-281" rx="28.9754" ry="18"/>
<text text-anchor="middle" x="83.5209" y="-276.8" font-family="Times,serif" font-size="14.00" fill="#000000">burn</text>
</g>
<!-- IClayToken.balanceOf -->
<g id="node13" class="node">
<title>IClayToken.balanceOf</title>
<ellipse fill="#edad56" stroke="#edad56" stroke-width="3" cx="317.669" cy="-88" rx="50.9211" ry="18"/>
<text text-anchor="middle" x="317.669" y="-83.8" font-family="Times,serif" font-size="14.00" fill="#000000">balanceOf</text>
</g>
<!-- ClayBonds.burn&#45;&gt;IClayToken.balanceOf -->
<g id="edge9" class="edge">
<title>ClayBonds.burn-&gt;IClayToken.balanceOf</title>
<path fill="none" stroke="#ffffff" stroke-width="2" d="M89.2826,-263.134C101.405,-228.5749 132.9785,-152.6659 187.0419,-115 207.2348,-100.9316 233.1738,-93.8906 256.6081,-90.467"/>
<polygon fill="#ffffff" stroke="#ffffff" stroke-width="2" points="257.3395,-93.9024 266.8204,-89.1736 256.4599,-86.9579 257.3395,-93.9024"/>
</g>
<!-- IClayToken.burn -->
<g id="node14" class="node">
<title>IClayToken.burn</title>
<ellipse fill="#edad56" stroke="#edad56" stroke-width="3" cx="317.669" cy="-34" rx="28.9754" ry="18"/>
<text text-anchor="middle" x="317.669" y="-29.8" font-family="Times,serif" font-size="14.00" fill="#000000">burn</text>
</g>
<!-- ClayBonds.burn&#45;&gt;IClayToken.burn -->
<g id="edge10" class="edge">
<title>ClayBonds.burn-&gt;IClayToken.burn</title>
<path fill="none" stroke="#ffffff" stroke-width="2" d="M86.4565,-262.808C94.334,-220.2413 120.0702,-113.7763 187.0419,-61 212.9278,-40.6009 250.4037,-34.5381 278.5828,-33.1763"/>
<polygon fill="#ffffff" stroke="#ffffff" stroke-width="2" points="278.9945,-36.6655 288.884,-32.8644 278.7826,-29.6687 278.9945,-36.6655"/>
</g>
<!-- key -->
<g id="node15" class="node">
<title>key</title>
<polygon fill="#edad56" stroke="transparent" stroke-width="3" points="148.5209,-706 18.5209,-706 18.5209,-618 148.5209,-618 148.5209,-706"/>
<text text-anchor="start" x="68.1569" y="-687.4" font-family="Times,serif" font-size="14.00" fill="#000000">Internal Call</text>
<text text-anchor="start" x="64.2649" y="-667.4" font-family="Times,serif" font-size="14.00" fill="#000000">External Call</text>
<text text-anchor="start" x="41.7263" y="-647.4" font-family="Times,serif" font-size="14.00" fill="#000000">Defined Contract</text>
<text text-anchor="start" x="28.1236" y="-627.4" font-family="Times,serif" font-size="14.00" fill="#000000">Undefined Contract</text>
</g>
<!-- key2 -->
<g id="node16" class="node">
<title>key2</title>
<polygon fill="#edad56" stroke="transparent" stroke-width="3" points="344.669,-706 290.669,-706 290.669,-618 344.669,-618 344.669,-706"/>
<text text-anchor="start" x="305.4281" y="-687.4" font-family="Times,serif" font-size="14.00" fill="#000000">   </text>
<text text-anchor="start" x="305.4281" y="-667.4" font-family="Times,serif" font-size="14.00" fill="#000000">   </text>
<polygon fill="#445773" stroke="transparent" points="303.669,-642 303.669,-662 331.669,-662 331.669,-642 303.669,-642"/>
<text text-anchor="start" x="305.4281" y="-647.4" font-family="Times,serif" font-size="14.00" fill="#000000">   </text>
<polygon fill="none" stroke="#e8726d" points="305.669,-624 305.669,-640 329.669,-640 329.669,-624 305.669,-624"/>
</g>
<!-- key&#45;&gt;key2 -->
<g id="edge11" class="edge">
<title>key:e-&gt;key2:w</title>
<path fill="none" stroke="#1bc6a6" stroke-width="2" d="M140.5209,-692C209.4907,-692 229.2588,-692 293.4237,-692"/>
<polygon fill="#1bc6a6" stroke="#1bc6a6" stroke-width="2" points="293.6691,-695.5001 303.669,-692 293.669,-688.5001 293.6691,-695.5001"/>
</g>
<!-- key&#45;&gt;key2 -->
<g id="edge12" class="edge">
<title>key:e-&gt;key2:w</title>
<path fill="none" stroke="#ffffff" stroke-width="2" d="M140.5209,-672C209.4907,-672 229.2588,-672 293.4237,-672"/>
<polygon fill="#ffffff" stroke="#ffffff" stroke-width="2" points="293.6691,-675.5001 303.669,-672 293.669,-668.5001 293.6691,-675.5001"/>
</g>
</g>
</svg>