<?xml version="1.0" encoding="UTF-8" standalone="no"?><!DOCTYPE svg PUBLIC "-//W3C//DTD SVG 1.1//EN" "http://www.w3.org/Graphics/SVG/1.1/DTD/svg11.dtd"><!-- Generated by graphviz version 2.40.1 (20161225.0304)
 --><!-- Title: G Pages: 1 --><svg xmlns="http://www.w3.org/2000/svg" xmlns:xlink="http://www.w3.org/1999/xlink" width="784pt" height="709pt" viewBox="0.00 0.00 784.28 709.00">
<g id="graph0" class="graph" transform="scale(1 1) rotate(0) translate(4 705)">
<title>G</title>
<polygon fill="#2e3e56" stroke="transparent" points="-4,4 -4,-705 780.2754,-705 780.2754,4 -4,4"/>
<g id="clust1" class="cluster">
<title>clusterExpiringMultiPartyCreator</title>
<path fill="#445773" stroke="#445773" d="M20,-371C20,-371 756.2754,-371 756.2754,-371 762.2754,-371 768.2754,-377 768.2754,-383 768.2754,-383 768.2754,-544 768.2754,-544 768.2754,-550 762.2754,-556 756.2754,-556 756.2754,-556 20,-556 20,-556 14,-556 8,-550 8,-544 8,-544 8,-383 8,-383 8,-377 14,-371 20,-371"/>
<text text-anchor="middle" x="388.1377" y="-539.4" font-family="Times,serif" font-size="14.00" fill="#f0f0f0">ExpiringMultiPartyCreator</text>
</g>
<g id="clust2" class="cluster">
<title>clusterTokenFactory</title>
<path fill="#3b4b63" stroke="#e8726d" stroke-dasharray="5,2" d="M317.3006,-286C317.3006,-286 426.8074,-286 426.8074,-286 432.8074,-286 438.8074,-292 438.8074,-298 438.8074,-298 438.8074,-351 438.8074,-351 438.8074,-357 432.8074,-363 426.8074,-363 426.8074,-363 317.3006,-363 317.3006,-363 311.3006,-363 305.3006,-357 305.3006,-351 305.3006,-351 305.3006,-298 305.3006,-298 305.3006,-292 311.3006,-286 317.3006,-286"/>
<text text-anchor="middle" x="372.054" y="-346.4" font-family="Times,serif" font-size="14.00" fill="#f0f0f0">TokenFactory</text>
</g>
<g id="clust3" class="cluster">
<title>clusterExpiringMultiPartyLib</title>
<path fill="#3b4b63" stroke="#e8726d" stroke-dasharray="5,2" d="M311.7333,-201C311.7333,-201 432.3748,-201 432.3748,-201 438.3748,-201 444.3748,-207 444.3748,-213 444.3748,-213 444.3748,-266 444.3748,-266 444.3748,-272 438.3748,-278 432.3748,-278 432.3748,-278 311.7333,-278 311.7333,-278 305.7333,-278 299.7333,-272 299.7333,-266 299.7333,-266 299.7333,-213 299.7333,-213 299.7333,-207 305.7333,-201 311.7333,-201"/>
<text text-anchor="middle" x="372.054" y="-261.4" font-family="Times,serif" font-size="14.00" fill="#f0f0f0">ExpiringMultiPartyLib</text>
</g>
<g id="clust4" class="cluster">
<title>clusterExpandedIERC20</title>
<path fill="#3b4b63" stroke="#e8726d" stroke-dasharray="5,2" d="M320.5174,-8C320.5174,-8 423.5907,-8 423.5907,-8 429.5907,-8 435.5907,-14 435.5907,-20 435.5907,-20 435.5907,-181 435.5907,-181 435.5907,-187 429.5907,-193 423.5907,-193 423.5907,-193 320.5174,-193 320.5174,-193 314.5174,-193 308.5174,-187 308.5174,-181 308.5174,-181 308.5174,-20 308.5174,-20 308.5174,-14 314.5174,-8 320.5174,-8"/>
<text text-anchor="middle" x="372.054" y="-176.4" font-family="Times,serif" font-size="14.00" fill="#f0f0f0">ExpandedIERC20</text>
</g>
<g id="clust5" class="cluster">
<title>cluster_01</title>
<polygon fill="#2e3e56" stroke="#000000" points="52.7228,-564 52.7228,-693 407.054,-693 407.054,-564 52.7228,-564"/>
<text text-anchor="middle" x="229.8884" y="-676.4" font-family="Times,serif" font-size="14.00" fill="#000000">Legend</text>
</g>
<!-- ExpiringMultiPartyCreator.&lt;Constructor&gt; -->
<g id="node1" class="node">
<title>ExpiringMultiPartyCreator.&lt;Constructor&gt;</title>
<ellipse fill="#ff9797" stroke="#ff9797" stroke-width="3" cx="125.7228" cy="-478" rx="67.5419" ry="18"/>
<text text-anchor="middle" x="125.7228" y="-473.8" font-family="Times,serif" font-size="14.00" fill="#000000">&lt;Constructor&gt;</text>
</g>
<!-- ExpiringMultiPartyCreator.createExpiringMultiParty -->
<g id="node2" class="node">
<title>ExpiringMultiPartyCreator.createExpiringMultiParty</title>
<ellipse fill="#ff9797" stroke="#ff9797" stroke-width="3" cx="125.7228" cy="-397" rx="109.946" ry="18"/>
<text text-anchor="middle" x="125.7228" y="-392.8" font-family="Times,serif" font-size="14.00" fill="#000000">createExpiringMultiParty</text>
</g>
<!-- ExpiringMultiPartyCreator._convertParams -->
<g id="node3" class="node">
<title>ExpiringMultiPartyCreator._convertParams</title>
<ellipse fill="#edad56" stroke="#edad56" stroke-width="3" cx="372.054" cy="-397" rx="73.4939" ry="18"/>
<text text-anchor="middle" x="372.054" y="-392.8" font-family="Times,serif" font-size="14.00" fill="#000000">_convertParams</text>
</g>
<!-- ExpiringMultiPartyCreator.createExpiringMultiParty&#45;&gt;ExpiringMultiPartyCreator._convertParams -->
<g id="edge5" class="edge">
<title>ExpiringMultiPartyCreator.createExpiringMultiParty-&gt;ExpiringMultiPartyCreator._convertParams</title>
<path fill="none" stroke="#1bc6a6" stroke-width="2" d="M235.5607,-397C253.1976,-397 271.2033,-397 288.1084,-397"/>
<polygon fill="#1bc6a6" stroke="#1bc6a6" stroke-width="2" points="288.4789,-400.5001 298.4789,-397 288.4789,-393.5001 288.4789,-400.5001"/>
</g>
<!-- ExpiringMultiPartyCreator._getSyntheticDecimals -->
<g id="node4" class="node">
<title>ExpiringMultiPartyCreator._getSyntheticDecimals</title>
<ellipse fill="#edad56" stroke="#edad56" stroke-width="3" cx="372.054" cy="-451" rx="100.7172" ry="18"/>
<text text-anchor="middle" x="372.054" y="-446.8" font-family="Times,serif" font-size="14.00" fill="#000000">_getSyntheticDecimals</text>
</g>
<!-- ExpiringMultiPartyCreator.createExpiringMultiParty&#45;&gt;ExpiringMultiPartyCreator._getSyntheticDecimals -->
<g id="edge2" class="edge">
<title>ExpiringMultiPartyCreator.createExpiringMultiParty-&gt;ExpiringMultiPartyCreator._getSyntheticDecimals</title>
<path fill="none" stroke="#1bc6a6" stroke-width="2" d="M191.735,-411.471C224.681,-418.6933 264.6374,-427.4524 298.5567,-434.8881"/>
<polygon fill="#1bc6a6" stroke="#1bc6a6" stroke-width="2" points="297.8949,-438.3261 308.4124,-437.0487 299.3939,-431.4885 297.8949,-438.3261"/>
</g>
<!-- ExpiringMultiPartyCreator.TokenFactory -->
<g id="node5" class="node">
<title>ExpiringMultiPartyCreator.TokenFactory</title>
<ellipse fill="#edad56" stroke="#edad56" stroke-width="3" cx="372.054" cy="-505" rx="65.4111" ry="18"/>
<text text-anchor="middle" x="372.054" y="-500.8" font-family="Times,serif" font-size="14.00" fill="#000000">TokenFactory</text>
</g>
<!-- ExpiringMultiPartyCreator.createExpiringMultiParty&#45;&gt;ExpiringMultiPartyCreator.TokenFactory -->
<g id="edge1" class="edge">
<title>ExpiringMultiPartyCreator.createExpiringMultiParty-&gt;ExpiringMultiPartyCreator.TokenFactory</title>
<path fill="none" stroke="#1bc6a6" stroke-width="2" d="M164.4872,-413.9262C185.9227,-423.8134 212.7359,-437.0634 235.4455,-451 252.4916,-461.461 253.4614,-469.2495 271.4455,-478 282.9941,-483.6192 295.8775,-488.1985 308.4666,-491.8825"/>
<polygon fill="#1bc6a6" stroke="#1bc6a6" stroke-width="2" points="307.8974,-495.3564 318.4685,-494.6478 309.7628,-488.6095 307.8974,-495.3564"/>
</g>
<!-- TokenFactory.createToken -->
<g id="node8" class="node">
<title>TokenFactory.createToken</title>
<ellipse fill="#edad56" stroke="#edad56" stroke-width="3" cx="372.054" cy="-312" rx="58.5078" ry="18"/>
<text text-anchor="middle" x="372.054" y="-307.8" font-family="Times,serif" font-size="14.00" fill="#000000">createToken</text>
</g>
<!-- ExpiringMultiPartyCreator.createExpiringMultiParty&#45;&gt;TokenFactory.createToken -->
<g id="edge3" class="edge">
<title>ExpiringMultiPartyCreator.createExpiringMultiParty-&gt;TokenFactory.createToken</title>
<path fill="none" stroke="#ffffff" stroke-width="2" d="M172.9264,-380.7117C216.0457,-365.8328 279.5438,-343.9219 323.1797,-328.8648"/>
<polygon fill="#ffffff" stroke="#ffffff" stroke-width="2" points="324.4107,-332.1426 332.722,-325.5721 322.1273,-325.5255 324.4107,-332.1426"/>
</g>
<!-- ExpiringMultiPartyLib.deploy -->
<g id="node9" class="node">
<title>ExpiringMultiPartyLib.deploy</title>
<ellipse fill="#edad56" stroke="#edad56" stroke-width="3" cx="372.054" cy="-227" rx="37.1424" ry="18"/>
<text text-anchor="middle" x="372.054" y="-222.8" font-family="Times,serif" font-size="14.00" fill="#000000">deploy</text>
</g>
<!-- ExpiringMultiPartyCreator.createExpiringMultiParty&#45;&gt;ExpiringMultiPartyLib.deploy -->
<g id="edge4" class="edge">
<title>ExpiringMultiPartyCreator.createExpiringMultiParty-&gt;ExpiringMultiPartyLib.deploy</title>
<path fill="none" stroke="#ffffff" stroke-width="2" d="M146.1273,-379.0889C173.578,-355.4237 224.3996,-313.1058 271.4455,-282 292.3743,-268.1623 317.0824,-254.6184 336.7751,-244.4332"/>
<polygon fill="#ffffff" stroke="#ffffff" stroke-width="2" points="338.4096,-247.5285 345.7191,-239.859 335.2222,-241.2963 338.4096,-247.5285"/>
</g>
<!-- ExpandedIERC20.addMinter -->
<g id="node10" class="node">
<title>ExpandedIERC20.addMinter</title>
<ellipse fill="#edad56" stroke="#edad56" stroke-width="3" cx="372.054" cy="-142" rx="51.0242" ry="18"/>
<text text-anchor="middle" x="372.054" y="-137.8" font-family="Times,serif" font-size="14.00" fill="#000000">addMinter</text>
</g>
<!-- ExpiringMultiPartyCreator.createExpiringMultiParty&#45;&gt;ExpandedIERC20.addMinter -->
<g id="edge6" class="edge">
<title>ExpiringMultiPartyCreator.createExpiringMultiParty-&gt;ExpandedIERC20.addMinter</title>
<path fill="none" stroke="#ffffff" stroke-width="2" d="M135.2428,-378.9268C155.8412,-341.1795 207.8566,-252.8511 271.4455,-197 288.5403,-181.9854 310.4254,-169.4144 329.4158,-160.0981"/>
<polygon fill="#ffffff" stroke="#ffffff" stroke-width="2" points="330.9456,-163.2462 338.4721,-155.7896 327.9383,-156.9251 330.9456,-163.2462"/>
</g>
<!-- ExpandedIERC20.addBurner -->
<g id="node11" class="node">
<title>ExpandedIERC20.addBurner</title>
<ellipse fill="#edad56" stroke="#edad56" stroke-width="3" cx="372.054" cy="-88" rx="51.5881" ry="18"/>
<text text-anchor="middle" x="372.054" y="-83.8" font-family="Times,serif" font-size="14.00" fill="#000000">addBurner</text>
</g>
<!-- ExpiringMultiPartyCreator.createExpiringMultiParty&#45;&gt;ExpandedIERC20.addBurner -->
<g id="edge7" class="edge">
<title>ExpiringMultiPartyCreator.createExpiringMultiParty-&gt;ExpandedIERC20.addBurner</title>
<path fill="none" stroke="#ffffff" stroke-width="2" d="M129.6692,-378.9208C141.5744,-328.8055 181.958,-187.0718 271.4455,-115 283.1183,-105.5989 297.7773,-99.4551 312.2658,-95.4447"/>
<polygon fill="#ffffff" stroke="#ffffff" stroke-width="2" points="313.3548,-98.7813 322.2302,-92.9954 311.6838,-91.9836 313.3548,-98.7813"/>
</g>
<!-- ExpandedIERC20.resetOwner -->
<g id="node12" class="node">
<title>ExpandedIERC20.resetOwner</title>
<ellipse fill="#edad56" stroke="#edad56" stroke-width="3" cx="372.054" cy="-34" rx="55.5734" ry="18"/>
<text text-anchor="middle" x="372.054" y="-29.8" font-family="Times,serif" font-size="14.00" fill="#000000">resetOwner</text>
</g>
<!-- ExpiringMultiPartyCreator.createExpiringMultiParty&#45;&gt;ExpandedIERC20.resetOwner -->
<g id="edge8" class="edge">
<title>ExpiringMultiPartyCreator.createExpiringMultiParty-&gt;ExpandedIERC20.resetOwner</title>
<path fill="none" stroke="#ffffff" stroke-width="2" d="M128.0542,-378.8381C136.2724,-322.5103 169.1462,-149.265 271.4455,-61 282.023,-51.8736 295.378,-45.7966 308.8711,-41.7596"/>
<polygon fill="#ffffff" stroke="#ffffff" stroke-width="2" points="309.9093,-45.1054 318.6828,-39.1661 308.1204,-38.3379 309.9093,-45.1054"/>
</g>
<!-- ExpiringMultiPartyCreator._requireWhitelistedCollateral -->
<g id="node6" class="node">
<title>ExpiringMultiPartyCreator._requireWhitelistedCollateral</title>
<ellipse fill="#edad56" stroke="#edad56" stroke-width="3" cx="634.469" cy="-397" rx="125.6131" ry="18"/>
<text text-anchor="middle" x="634.469" y="-392.8" font-family="Times,serif" font-size="14.00" fill="#000000">_requireWhitelistedCollateral</text>
</g>
<!-- ExpiringMultiPartyCreator._convertParams&#45;&gt;ExpiringMultiPartyCreator._requireWhitelistedCollateral -->
<g id="edge9" class="edge">
<title>ExpiringMultiPartyCreator._convertParams-&gt;ExpiringMultiPartyCreator._requireWhitelistedCollateral</title>
<path fill="none" stroke="#1bc6a6" stroke-width="2" d="M445.5002,-397C462.0675,-397 480.1699,-397 498.3976,-397"/>
<polygon fill="#1bc6a6" stroke="#1bc6a6" stroke-width="2" points="498.5281,-400.5001 508.5281,-397 498.528,-393.5001 498.5281,-400.5001"/>
</g>
<!-- ExpiringMultiPartyCreator.IERC20Standard -->
<g id="node7" class="node">
<title>ExpiringMultiPartyCreator.IERC20Standard</title>
<ellipse fill="#edad56" stroke="#edad56" stroke-width="3" cx="634.469" cy="-451" rx="77.0274" ry="18"/>
<text text-anchor="middle" x="634.469" y="-446.8" font-family="Times,serif" font-size="14.00" fill="#000000">IERC20Standard</text>
</g>
<!-- ExpiringMultiPartyCreator._getSyntheticDecimals&#45;&gt;ExpiringMultiPartyCreator.IERC20Standard -->
<g id="edge10" class="edge">
<title>ExpiringMultiPartyCreator._getSyntheticDecimals-&gt;ExpiringMultiPartyCreator.IERC20Standard</title>
<path fill="none" stroke="#1bc6a6" stroke-width="2" d="M472.76,-451C497.295,-451 523.3363,-451 547.1883,-451"/>
<polygon fill="#1bc6a6" stroke="#1bc6a6" stroke-width="2" points="547.2658,-454.5001 557.2658,-451 547.2657,-447.5001 547.2658,-454.5001"/>
</g>
<!-- key -->
<g id="node13" class="node">
<title>key</title>
<polygon fill="#edad56" stroke="transparent" stroke-width="3" points="190.7228,-660 60.7228,-660 60.7228,-572 190.7228,-572 190.7228,-660"/>
<text text-anchor="start" x="110.3588" y="-641.4" font-family="Times,serif" font-size="14.00" fill="#000000">Internal Call</text>
<text text-anchor="start" x="106.4668" y="-621.4" font-family="Times,serif" font-size="14.00" fill="#000000">External Call</text>
<text text-anchor="start" x="83.9282" y="-601.4" font-family="Times,serif" font-size="14.00" fill="#000000">Defined Contract</text>
<text text-anchor="start" x="70.3255" y="-581.4" font-family="Times,serif" font-size="14.00" fill="#000000">Undefined Contract</text>
</g>
<!-- key2 -->
<g id="node14" class="node">
<title>key2</title>
<polygon fill="#edad56" stroke="transparent" stroke-width="3" points="399.054,-660 345.054,-660 345.054,-572 399.054,-572 399.054,-660"/>
<text text-anchor="start" x="359.8131" y="-641.4" font-family="Times,serif" font-size="14.00" fill="#000000">   </text>
<text text-anchor="start" x="359.8131" y="-621.4" font-family="Times,serif" font-size="14.00" fill="#000000">   </text>
<polygon fill="#445773" stroke="transparent" points="358.054,-596 358.054,-616 386.054,-616 386.054,-596 358.054,-596"/>
<text text-anchor="start" x="359.8131" y="-601.4" font-family="Times,serif" font-size="14.00" fill="#000000">   </text>
<polygon fill="none" stroke="#e8726d" points="360.054,-578 360.054,-594 384.054,-594 384.054,-578 360.054,-578"/>
</g>
<!-- key&#45;&gt;key2 -->
<g id="edge11" class="edge">
<title>key:e-&gt;key2:w</title>
<path fill="none" stroke="#1bc6a6" stroke-width="2" d="M182.7228,-646C257.1472,-646 278.2608,-646 347.8956,-646"/>
<polygon fill="#1bc6a6" stroke="#1bc6a6" stroke-width="2" points="348.0541,-649.5001 358.054,-646 348.054,-642.5001 348.0541,-649.5001"/>
</g>
<!-- key&#45;&gt;key2 -->
<g id="edge12" class="edge">
<title>key:e-&gt;key2:w</title>
<path fill="none" stroke="#ffffff" stroke-width="2" d="M182.7228,-626C257.1472,-626 278.2608,-626 347.8956,-626"/>
<polygon fill="#ffffff" stroke="#ffffff" stroke-width="2" points="348.0541,-629.5001 358.054,-626 348.054,-622.5001 348.0541,-629.5001"/>
</g>
</g>
</svg>